<?xml version="1.0" standalone="no"?>
<!DOCTYPE svg PUBLIC "-//W3C//DTD SVG 1.1//EN" "http://www.w3.org/Graphics/SVG/1.1/DTD/svg11.dtd" >
<svg xmlns="http://www.w3.org/2000/svg">
<metadata>
This is a custom SVG webfont generated by Font Squirrel.
Copyright   : Copyright c 2010 Miles Newlyn All rights reserved
Designer    : Miles Newlyn
</metadata>
<defs>
<font id="FrankRegular" horiz-adv-x="1052" >
<font-face units-per-em="2048" ascent="1536" descent="-512" />
<missing-glyph horiz-adv-x="382" />
<glyph unicode=" "  horiz-adv-x="382" />
<glyph unicode="&#x09;" horiz-adv-x="382" />
<glyph unicode="&#xa0;" horiz-adv-x="382" />
<glyph unicode="!" horiz-adv-x="546" d="M184 1495q0 23 25 23h131q23 0 22 -23l-20 -1026q0 -20 -25 -20h-88q-23 0 -22 20zM188 31v172q0 33 29 33h113q31 0 30 -33v-170q0 -33 -30 -33h-113q-29 0 -29 31z" />
<glyph unicode="&#x22;" horiz-adv-x="716" d="M102 1487q0 23 23 22h137q20 0 21 -22l-29 -520q0 -16 -23 -17h-75q-20 0 -25 19zM436 1487q-4 23 21 22h137q25 0 20 -22l-28 -520q0 -16 -23 -17h-76q-23 0 -22 19z" />
<glyph unicode="#" horiz-adv-x="1294" d="M55 496l15 86q2 25 30 24h211l68 316h-203q-27 0 -22 24l14 86q2 25 27 25h215l94 434q6 18 26 18h115q18 0 14 -18l-92 -434h303l93 434q4 18 24 18h117q18 0 14 -16l-94 -436h193q27 0 22 -27l-14 -84q-2 -25 -27 -24h-205l-67 -316h192q29 0 23 -26l-15 -84 q-2 -25 -30 -25h-201l-96 -451q-4 -20 -25 -20h-112q-20 0 -17 20l96 451h-303l-96 -453q-6 -18 -27 -18h-112q-20 0 -17 18l97 453h-205q-29 0 -23 25zM467 606h303l68 316h-306z" />
<glyph unicode="$" horiz-adv-x="1114" d="M72 365q-8 35 18 45l100 39q39 14 52 -25q18 -92 102 -163t217 -71q139 0 212 59.5t73 166.5q0 96 -73 148t-257 126q-102 41 -164.5 73t-120 79t-84 109.5t-26.5 144.5q0 137 94 235.5t250 122.5v172q0 27 27 27h133q31 0 30 -29v-172q139 -14 239.5 -94t133.5 -178 q16 -43 -14 -56l-82 -30q-20 -10 -39 -10.5t-29 22.5q-27 86 -102.5 142.5t-194 56.5t-188.5 -55.5t-70 -139.5q0 -92 66.5 -141t259.5 -129q209 -84 306 -169t97 -237q0 -156 -108.5 -261t-274.5 -132v-172q0 -27 -26 -27h-135q-29 0 -29 27v170q-147 16 -257.5 109.5 t-135.5 216.5z" />
<glyph unicode="%" horiz-adv-x="1519" d="M84 1006v290q0 115 74.5 174.5t199.5 59.5t201 -59.5t76 -174.5v-290q0 -115 -76 -172.5t-201 -57.5t-199.5 57.5t-74.5 172.5zM236 1006q0 -106 122 -107q125 0 125 107v290q0 109 -125 109q-123 0 -122 -111v-288zM279 27l778 1462q10 20 37 20h114q27 0 15 -20 l-781 -1471q-12 -18 -34 -18h-115q-28 0 -14 27zM887 211v295q0 115 74.5 176t199.5 61t200 -61t75 -176v-295q0 -115 -76 -173t-201 -58t-198.5 58t-73.5 173zM1036 211q0 -109 123 -109t123 109v295q0 115 -123 115t-123 -115v-295z" />
<glyph unicode="&#x26;" horiz-adv-x="1421" d="M82 440q0 156 78 264.5t223 196.5q-63 76 -90 111t-53.5 95t-26.5 120q0 123 92 216t256 93q158 0 245 -82t116 -199q8 -27 -23 -34l-115 -29q-31 -8 -36 25q-41 168 -191 172q-76 0 -121 -48.5t-45 -113.5q0 -23 7.5 -46.5t15.5 -41t29.5 -46t35 -43t46 -51t46.5 -53.5 l455 -514q18 72 18 201v143q0 29 25 29h125q23 0 23 -29v-131q0 -219 -70 -350l239 -266q10 -14 4 -21.5t-18 -7.5h-158q-18 0 -36 20l-129 144q-166 -184 -451 -184q-223 0 -369.5 128.5t-146.5 331.5zM270 444q0 -143 100.5 -227t241.5 -84q213 0 330 150l-450 505 q-117 -61 -169.5 -145t-52.5 -199z" />
<glyph unicode="'" horiz-adv-x="368" d="M102 1487q0 23 23 22h137q20 0 21 -22l-29 -520q0 -16 -23 -17h-75q-20 0 -25 19z" />
<glyph unicode="(" horiz-adv-x="712" d="M131 662q0 281 95.5 521t203.5 359q23 23 41 6l88 -71q20 -14 4 -31q-94 -111 -171 -325t-77 -462q0 -246 72 -456.5t158 -331.5q14 -20 -10 -39l-76 -61q-29 -25 -49 2q-100 123 -189.5 357.5t-89.5 531.5z" />
<glyph unicode=")" horiz-adv-x="712" d="M150 1446q-14 18 4 33l88 71q20 16 41 -8q115 -135 207 -369.5t92 -510.5q0 -297 -89.5 -534t-187.5 -351q-20 -27 -49 -6l-80 63q-23 18 -8 37q86 119 157.5 334t71.5 454q0 250 -76.5 464t-170.5 323z" />
<glyph unicode="*" horiz-adv-x="794" d="M72 1241l30 96q6 25 29 15l215 -99l-20 242q-4 23 22 23h107q20 0 20 -23l-22 -242l209 95q23 10 30 -15l31 -94q8 -27 -14 -31l-224 -55l156 -180q18 -18 -2 -35l-80 -59q-20 -14 -37 8l-125 205l-125 -205q-18 -23 -34 -8l-80 63q-18 12 -4 31l157 180l-225 57 q-22 4 -14 31z" />
<glyph unicode="+" horiz-adv-x="1177" d="M70 586v94q0 31 26 31h408v413q0 27 28 27h113q27 0 27 -27v-413h407q29 0 29 -31v-94q0 -29 -29 -29h-407v-422q0 -27 -27 -26h-113q-29 0 -28 26v422h-408q-26 0 -26 29z" />
<glyph unicode="," horiz-adv-x="417" d="M39 -203q-23 18 2 39q70 68 89.5 149t19.5 269q0 25 24 25h129q25 0 25 -25q0 -348 -217 -500q-18 -12 -33 2z" />
<glyph unicode="-" horiz-adv-x="935" d="M119 565v99q0 25 22 24h654q23 0 22 -24v-99q0 -25 -24 -24h-652q-22 -1 -22 24z" />
<glyph unicode="." horiz-adv-x="423" d="M123 31v215q0 33 29 33h120q29 0 29 -33v-213q0 -33 -29 -33h-120q-29 0 -29 31z" />
<glyph unicode="/" horiz-adv-x="786" d="M8 29l600 1460q10 20 35 20h121q25 0 16 -20l-604 -1471q-8 -18 -35 -18h-116q-27 0 -17 29z" />
<glyph unicode="0" horiz-adv-x="1269" d="M141 451v591q0 475 493.5 475.5t493.5 -470.5v-596q0 -227 -121.5 -350.5t-371.5 -123.5q-494 1 -494 474zM330 465q0 -319 305 -320q164 0 234.5 78t70.5 242v563q0 160 -70.5 241t-234.5 81q-305 0 -305 -322v-563z" />
<glyph unicode="1" horiz-adv-x="1071" d="M131 1294q-4 25 14 27q2 0 89.5 20.5t148.5 38t90 35.5q31 20 72 82h119v-1331h272q23 0 22 -23v-118q0 -25 -22 -25h-739q-23 0 -23 25v118q0 23 21 23h280v1053l-307 -39q-27 0 -29 22z" />
<glyph unicode="2" horiz-adv-x="1243" d="M135 0v145q0 217 97.5 351.5t371.5 261.5q195 90 256.5 159.5t61.5 178.5q0 113 -71 183.5t-200 70.5q-131 0 -201.5 -54.5t-115.5 -158.5q-14 -37 -43 -29l-103 39q-33 16 -20 45q59 152 181 239t300 87q223 0 343 -119t120 -305q0 -170 -90 -272.5t-328 -213.5 q-231 -109 -296.5 -186.5t-65.5 -210.5v-45h747q23 0 23 -25v-114q0 -27 -23 -27h-944z" />
<glyph unicode="3" horiz-adv-x="1216" d="M102 305q-12 39 21 51l92 35q41 18 53 -20q29 -100 110 -163t218 -63q133 0 216 70t83 195v18q0 127 -79 199.5t-220 72.5h-96q-20 0 -21 23v111q0 25 21 24h100q117 0 189.5 64.5t72.5 167.5v28q0 115 -67.5 173.5t-192.5 58.5q-117 0 -183.5 -49.5t-107.5 -155.5 q-12 -31 -39 -21l-102 37q-29 10 -16 43q49 147 164.5 230.5t283.5 83.5q219 0 334 -103.5t115 -288.5v-30q0 -113 -70 -202t-170 -112q115 -23 194.5 -108.5t79.5 -237.5v-26q0 -193 -139 -313t-346 -120q-211 0 -332 94.5t-166 233.5z" />
<glyph unicode="4" horiz-adv-x="1234" d="M90 492q-4 16 8 34l707 983q14 23 37 11l94 -80q25 -14 8 -41l-614 -856h407v278q0 23 27 23h139q25 0 25 -23v-278h174q25 0 24 -27v-115q0 -25 -24 -24h-174v-365q0 -25 -25 -24h-139q-27 0 -27 24v365h-604q-16 0 -22 18z" />
<glyph unicode="5" horiz-adv-x="1232" d="M137 299q-16 47 17 57l96 37q37 16 49 -20q29 -100 107.5 -164t209.5 -64q141 0 219 86t78 240v41q0 313 -280 313q-178 0 -281 -153q-16 -23 -39 -10l-100 49q-23 12 -20 37l55 749h737q23 0 23 -24v-117q0 -25 -23 -25h-577l-35 -477l4 -2q119 131 315 131 q188 0 300 -121t112 -348v-49q0 -229 -132 -358.5t-354 -129.5q-111 0 -198.5 30t-142 81t-88.5 102.5t-52 108.5z" />
<glyph unicode="6" horiz-adv-x="1269" d="M141 469v494q0 260 135.5 407.5t380.5 147.5q100 0 181.5 -28t133.5 -75t82.5 -93t49.5 -97q10 -31 -23 -45l-108 -39q-23 -12 -39 26q-72 182 -277 183q-326 0 -327 -387v-144l4 -2q45 72 137 119t211 47q207 0 332 -124t125 -343v-67q0 -209 -138.5 -340.5 t-347.5 -131.5q-244 0 -378 136.5t-134 355.5zM332 463q0 -143 83 -230.5t240 -87.5q131 0 213 88.5t82 229.5v41q0 152 -74.5 236.5t-213.5 84.5q-147 0 -238.5 -88t-91.5 -235v-39z" />
<glyph unicode="7" horiz-adv-x="1081" d="M115 1356v117q0 25 22 24h850q27 0 27 -24v-84q0 -27 -17 -50q-215 -305 -375.5 -678.5t-160.5 -635.5q0 -25 -25 -25h-141q-25 0 -25 25q0 266 157 631.5t366 674.5h-656q-22 0 -22 25z" />
<glyph unicode="8" horiz-adv-x="1292" d="M131 393v45q0 260 272 365q-96 31 -158.5 109.5t-62.5 205.5v33q0 174 121 270.5t342 96.5t343 -96.5t122 -270.5v-33q0 -127 -62.5 -205.5t-160.5 -109.5q274 -104 274 -365v-45q0 -195 -138 -305.5t-377.5 -110.5t-377 110.5t-137.5 305.5zM319 412q0 -268 326 -268.5 t326 268.5v32q0 270 -326 271q-160 0 -243 -68.5t-83 -202.5v-32zM367 1102q0 -111 74.5 -170.5t203.5 -59.5q131 0 206 59.5t75 170.5v33q0 223 -281 223q-279 0 -278 -223v-33z" />
<glyph unicode="9" horiz-adv-x="1255" d="M119 985v59q0 203 135 338.5t364 135.5q227 0 361.5 -131.5t134.5 -354.5v-526q0 -266 -143.5 -397.5t-356.5 -131.5q-164 0 -283.5 64.5t-174.5 169.5q-20 39 8 55l100 53q29 14 43 -14q84 -160 301 -160q143 0 229.5 80t86.5 256v176q-47 -76 -136.5 -117.5 t-201.5 -41.5q-215 0 -341 135t-126 352zM309 987q0 -154 77 -243t226 -89q143 0 227.5 83t84.5 223v63q0 156 -80 241t-226 85q-141 0 -225 -83t-84 -233v-47z" />
<glyph unicode=":" horiz-adv-x="434" d="M125 31v215q0 33 29 33h120q31 0 31 -33v-213q0 -33 -31 -33h-120q-29 0 -29 31zM125 872v215q0 31 29 31h120q31 0 31 -31v-213q0 -33 -31 -32h-120q-29 -1 -29 30z" />
<glyph unicode=";" horiz-adv-x="442" d="M27 -203q-23 18 2 39q70 68 89 149t19 269q0 25 25 25h129q25 0 24 -25q0 -348 -217 -500q-18 -12 -32 2zM137 872v215q0 31 27 31h121q31 0 30 -31v-213q0 -33 -30 -32h-121q-27 -1 -27 30z" />
<glyph unicode="&#x3c;" horiz-adv-x="1028" d="M115 578v108q0 23 22 33l721 254q31 12 31 -25v-110q0 -25 -21 -31l-549 -174l547 -174q23 -6 23 -33v-107q0 -37 -43 -22l-709 248q-22 8 -22 33z" />
<glyph unicode="=" horiz-adv-x="1009" d="M100 428v102q0 25 23 25h764q23 0 22 -25v-102q0 -25 -24 -25h-760q-25 0 -25 25zM100 739v103q0 25 23 24h764q23 0 22 -24v-103q0 -27 -24 -26h-760q-25 -1 -25 26z" />
<glyph unicode="&#x3e;" horiz-adv-x="1028" d="M141 319v107q0 27 21 33l549 174l-549 174q-20 6 -21 31v110q0 35 31 25l719 -254q23 -10 22 -33v-108q0 -25 -22 -33l-709 -248q-41 -15 -41 22z" />
<glyph unicode="?" horiz-adv-x="858" d="M39 1327q-12 16 8 41q145 168 365 168q178 0 280.5 -104.5t102.5 -260.5q0 -80 -35 -151.5t-86 -125.5t-101.5 -107.5t-85 -118t-34.5 -133.5v-58q0 -33 -29 -33h-107q-29 0 -28 31v68q0 80 33.5 152.5t81 127t95.5 105.5t81.5 110.5t33.5 118.5q0 100 -56 159.5 t-167 59.5q-156 0 -239 -125q-20 -27 -41 -2zM289 31v172q0 33 28 33h107q29 0 29 -33v-170q0 -33 -29 -33h-107q-28 0 -28 31z" />
<glyph unicode="@" horiz-adv-x="1726" d="M131 455v284q0 121 46 232.5t135 204t236.5 147.5t330.5 55q195 0 339 -48t224 -131t117.5 -181t37.5 -211v-315q0 -145 -70.5 -238.5t-219.5 -93.5q-72 0 -127.5 28.5t-73.5 57.5l-21 26q-111 -121 -280 -120q-113 0 -196 70.5t-83 187.5v24q0 143 118 212t400 56v27 q0 205 -188 205q-145 0 -184 -133q-6 -23 -31 -10l-76 36q-20 10 -10 31q33 86 113 142.5t196 56.5q328 0 328 -336v-326q0 -47 32.5 -83t90.5 -36q63 0 104 49.5t41 135.5v332q0 195 -136 323.5t-443 128.5q-305 0 -451.5 -150.5t-146.5 -377.5v-244q0 -225 139 -372.5 t418 -147.5q233 0 438 82q20 10 29 -8l28 -80q8 -23 -12 -33q-219 -94 -483 -94q-160 0 -287 42t-205 106.5t-128 151.5t-69.5 169t-19.5 166zM672 416q0 -61 43 -100.5t114 -39.5q135 0 213 107v207q-152 4 -235.5 -16.5t-109 -54.5t-25.5 -91v-12z" />
<glyph unicode="A" horiz-adv-x="1175" d="M20 29l461 1444q10 31 35 30h152q25 0 34 -30l451 -1446q3 -8 3 -14q0 -13 -17 -13h-152q-23 0 -29 25l-122 411h-508l-125 -411q-8 -25 -31 -25h-137q-17 0 -17 15q0 6 2 14zM377 594h414l-201 684z" />
<glyph unicode="B" horiz-adv-x="1202" d="M162 0v1497h479q205 0 315.5 -98.5t110.5 -265.5v-46q0 -115 -61.5 -200.5t-159.5 -112.5q113 -18 186.5 -111.5t73.5 -228.5v-45q0 -174 -116 -281.5t-328 -107.5h-500zM352 166h262q156 0 230 59.5t74 210.5q-2 125 -76 190.5t-209 65.5h-281v-526zM352 846h264 q123 0 194 58.5t71 170.5v29q0 231 -289 231h-240v-489z" />
<glyph unicode="C" horiz-adv-x="1198" d="M141 467v561q0 227 137.5 358.5t376.5 131.5q186 0 305 -87.5t166 -238.5q3 -11 4 -19q0 -23 -24 -32l-105 -37q-37 -12 -45 26q-70 219 -303 220q-150 0 -235.5 -86t-85.5 -246v-537q0 -158 78.5 -247t240.5 -89q121 0 198 61.5t103 160.5q9 28 34 27q8 0 18 -3l100 -39 q21 -7 21 -31q0 -11 -5 -26q-39 -127 -166 -222.5t-305 -95.5q-508 1 -508 490z" />
<glyph unicode="D" horiz-adv-x="1306" d="M162 0v1497h506q238 0 366.5 -135t128.5 -354v-527q0 -213 -129 -347t-366 -134h-506zM352 166h281q342 0 342 340v481q0 160 -83 252t-259 92h-281v-1165z" />
<glyph unicode="E" d="M162 0v1497h770q23 0 22 -27v-114q0 -25 -22 -25h-580v-485h529q23 0 22 -27v-110q0 -25 -22 -25h-529v-518h580q23 0 22 -25v-116q0 -25 -22 -25h-770z" />
<glyph unicode="F" horiz-adv-x="983" d="M162 23v1474h741q25 0 25 -24v-115q0 -27 -23 -27h-553v-522h506q23 0 23 -25v-112q0 -25 -23 -25h-506v-624q0 -23 -24 -23h-140q-26 0 -26 23z" />
<glyph unicode="G" horiz-adv-x="1298" d="M141 455v571q0 236 141.5 364t387.5 128q211 0 326.5 -85t172.5 -239q4 -12 5 -21q0 -23 -25 -32l-113 -37q-33 -10 -43 24q-76 221 -317 222q-170 0 -257 -81t-87 -268v-528q0 -328 338 -328q63 0 119.5 15.5t106.5 49.5t80 97.5t30 151.5v172h-293q-23 0 -23 24v99 q0 25 23 24h444q35 0 35 -28v-306q0 -211 -146.5 -339t-383.5 -128q-248 0 -384.5 125.5t-136.5 352.5z" />
<glyph unicode="H" horiz-adv-x="1380" d="M162 23v1454q0 20 24 20h142q25 0 24 -20v-639h678v639q0 20 23 20h141q25 0 25 -20v-1454q0 -23 -25 -23h-139q-25 0 -25 23v647h-678v-647q0 -23 -24 -23h-142q-24 0 -24 23z" />
<glyph unicode="I" horiz-adv-x="534" d="M172 23v1452q0 23 25 22h141q25 0 24 -22v-1452q0 -23 -24 -23h-141q-25 0 -25 23z" />
<glyph unicode="J" horiz-adv-x="897" d="M29 129q-12 13 -12.5 26t12.5 25l71 84q27 31 52 0q88 -106 219 -106q207 0 207 239v1078q0 23 24 22h139q27 0 27 -22v-1063q0 -217 -103.5 -326t-289.5 -109q-194 0 -346 152z" />
<glyph unicode="K" horiz-adv-x="1157" d="M162 23v1452q0 23 26 22h140q25 0 24 -22v-691l551 693q16 20 33 20h164q14 0 17 -9t-5 -20l-461 -583l484 -860q4 -7 3 -13q0 -3 -1 -6q-4 -6 -15 -6h-176q-20 0 -28 18l-394 730l-172 -211v-514q0 -23 -24 -23h-142q-24 0 -24 23z" />
<glyph unicode="L" horiz-adv-x="1005" d="M162 0v1477q0 20 24 20h142q25 0 24 -20v-1311h621q23 0 22 -27v-114q0 -25 -20 -25h-813z" />
<glyph unicode="M" horiz-adv-x="1628" d="M162 23v1447q0 27 28 27h216q23 0 30 -22l254 -811q82 -258 127 -488q33 199 123 488q164 512 246 766q10 37 20 55q4 12 70 12h162q29 0 28 -27v-1445q0 -25 -22 -25h-133q-20 0 -21 25v948q0 217 10 317h-4l-393 -1267q-8 -23 -31 -23h-135q-20 0 -28 23l-383 1271 q2 -41 2 -133q0 -20 4 -112.5t4 -145.5v-880q0 -23 -25 -23h-127q-22 0 -22 23z" />
<glyph unicode="N" horiz-adv-x="1394" d="M162 23v1447q0 27 28 27h209q18 0 31 -22l412 -799q123 -236 217 -477h8q-16 213 -16 428v850q0 20 22 20h137q23 0 23 -20v-1452q0 -25 -27 -25h-198q-18 0 -33 25l-438 843q-72 137 -201 430h-8q16 -207 16 -391v-884q0 -23 -22 -23h-138q-22 0 -22 23z" />
<glyph unicode="O" horiz-adv-x="1363" d="M141 461v477q0 281 126 430.5t415 149.5q252 0 396.5 -132.5t144.5 -355.5v-475q0 -283 -126 -430.5t-415 -147.5q-256 0 -398.5 129.5t-142.5 354.5zM332 479q0 -156 91 -245t259 -89t260 88.5t92 243.5v537q0 156 -92 246t-260 90t-259 -89.5t-91 -244.5v-537z" />
<glyph unicode="P" horiz-adv-x="1153" d="M162 23v1474h438q469 0 469 -434v-66q0 -438 -471 -438h-246v-536q0 -23 -22 -23h-146q-22 0 -22 23zM352 723h234q164 0 228.5 68.5t64.5 216.5v45q0 145 -64.5 211.5t-230.5 66.5h-232v-608z" />
<glyph unicode="Q" horiz-adv-x="1363" d="M141 530v357q0 47 4 129q25 502 537 502q252 0 396.5 -132.5t144.5 -355.5v-475q0 -395 -238 -516l170 -313q14 -27 -16 -27h-125q-18 0 -31 20l-147 273q-66 -14 -154 -15q-541 0 -541 553zM332 479q0 -143 80 -230t223 -97q25 -3 50 -3q33 0 65 5l-156 288 q-14 27 16 27h125q16 0 29 -20l135 -248q135 86 135 276v475q0 195 -81 296.5t-271 101.5t-270 -100.5t-80 -295.5v-475z" />
<glyph unicode="R" horiz-adv-x="1187" d="M162 23v1474h459q449 0 448 -410v-83q0 -307 -266 -394l311 -585q4 -8 4 -13q0 -12 -18 -12h-172q-18 0 -29 18l-289 568h-258v-563q0 -23 -24 -23h-142q-24 0 -24 23zM352 748h256q270 0 271 268v59q0 131 -64.5 193.5t-220.5 62.5h-242v-583z" />
<glyph unicode="S" horiz-adv-x="1081" d="M59 301q-2 7 -1 13q0 22 24 30l111 37q31 10 40 -25q23 -100 102 -157.5t208 -57.5q115 0 191.5 58.5t76.5 175.5q0 109 -61.5 169t-235.5 144q-223 104 -319.5 195.5t-96.5 257.5q0 170 122 273.5t315 103.5q180 0 293.5 -84t160.5 -217q10 -31 -20 -43l-111 -39 q-25 -10 -39 16q-70 201 -282 201q-252 0 -252 -211q0 -66 45 -118t86 -76.5t172 -88.5q20 -10 30 -16q199 -96 291 -193q94 -98 95 -272q0 -178 -126 -288q-128 -112 -337 -112q-201 0 -322 89.5t-160 234.5z" />
<glyph unicode="T" horiz-adv-x="1042" d="M-10 1358v115q0 25 22 24h1020q20 0 21 -24v-115q0 -27 -21 -27h-418v-1308q0 -23 -22 -23h-146q-20 0 -20 23v1308h-414q-22 0 -22 27z" />
<glyph unicode="U" horiz-adv-x="1320" d="M145 420v1055q0 23 23 22h145q23 0 23 -22v-1035q0 -295 321 -295q164 0 248 76t84 219v1035q0 23 21 22h141q23 0 23 -22v-1055q0 -197 -134.5 -320t-382.5 -123q-252 0 -382 122t-130 321z" />
<glyph unicode="V" horiz-adv-x="1177" d="M27 1473q-3 7 -3 11q0 13 19 13h156q23 0 26 -18l207 -727q86 -293 154 -584h4q57 250 155 582l218 729q4 18 26 18h146q20 0 19 -14q0 -4 -1 -8l-453 -1450q-6 -25 -32 -25h-168q-25 0 -31 25z" />
<glyph unicode="W" horiz-adv-x="1744" d="M20 1475q-1 5 -1 8q0 14 18 14h151q20 0 25 -20l149 -674q90 -399 123 -635h4q35 236 121 633l156 676q4 20 31 20h137q25 0 31 -20l161 -672q90 -375 131 -637h5q23 143 122 637l148 674q4 18 24 18h146q20 0 20 -16q0 -4 -2 -8l-346 -1448q-4 -25 -33 -25h-170 q-25 0 -30 25l-172 749q-68 285 -103 461h-2q-37 -213 -92 -461l-170 -749q-4 -25 -35 -25h-168q-25 0 -30 25z" />
<glyph unicode="X" horiz-adv-x="1183" d="M20 9q-2 4 -1 8q0 6 4 12l460 725l-440 716q-6 12 -2 19.5t14 7.5h164q16 0 29 -18l344 -580l344 580q10 18 27 18h161q12 0 16.5 -8t-1.5 -16l-447 -715l469 -733q3 -4 4 -9q0 -4 -3 -8q-5 -8 -17 -8h-158q-20 0 -33 20l-368 592l-355 -589q-14 -23 -34 -23h-160 q-13 0 -17 9z" />
<glyph unicode="Y" horiz-adv-x="1120" d="M0 1473q-5 9 -5 14q0 10 15 10h166q16 0 27 -18l360 -693l357 693q10 18 26 18h162q12 0 16 -8q2 -3 2 -7q0 -5 -4 -9l-467 -861v-589q0 -23 -22 -23h-146q-23 0 -22 23v587z" />
<glyph unicode="Z" horiz-adv-x="1114" d="M45 111l774 1220h-680q-25 0 -24 23v119q0 25 24 24h873q20 0 28 -22l27 -84l-776 -1225h745q23 0 23 -25v-116q0 -25 -23 -25h-940q-23 0 -26 20z" />
<glyph unicode="[" horiz-adv-x="684" d="M172 -287v1848h416q23 0 22 -25v-102q0 -25 -24 -25h-232v-1544h234q23 0 22 -25v-102q0 -25 -24 -25h-414z" />
<glyph unicode="\" horiz-adv-x="772" d="M31 1489q-8 20 16 20h121q25 0 35 -20l600 -1460q10 -29 -17 -29h-116q-27 0 -35 18z" />
<glyph unicode="]" horiz-adv-x="684" d="M74 -160q0 25 24 25h234v1544h-234q-25 0 -24 25v102q0 25 24 25h414v-1848h-412q-27 0 -26 25v102z" />
<glyph unicode="^" horiz-adv-x="1056" d="M156 754l272 708q8 23 31 23h135q25 0 35 -25l276 -719q10 -31 -26 -30h-121q-25 0 -31 20l-203 572l-198 -570q-6 -23 -33 -22h-115q-36 0 -22 43z" />
<glyph unicode="_" horiz-adv-x="790" d="M-2 -133h795v-103h-795v103z" />
<glyph unicode="`" horiz-adv-x="636" d="M146.5 1544q3.5 8 17.5 8h119q25 0 34 -18l170 -279q16 -25 -14 -24h-84q-14 0 -27 12l-210 283q-9 10 -5.5 18z" />
<glyph unicode="a" horiz-adv-x="1054" d="M82 303v10q0 190 151 274q122 67 375 66q63 0 133 -4v70q0 139 -54 202.5t-171 63.5q-168 0 -223 -164q-12 -31 -41 -14l-92 45q-27 14 -17 39q109 248 387 248q186 0 289 -108.5t103 -307.5v-700q0 -23 -27 -23h-123q-27 0 -27 23v108q-139 -152 -333 -151 q-143 0 -236.5 90t-93.5 233zM264 315q0 -80 54.5 -131t140.5 -51q166 0 282 133v260q-41 1 -78 2q-206 0 -294 -39q-104 -45 -105 -163v-11z" />
<glyph unicode="b" horiz-adv-x="1161" d="M147 23v1490q0 23 25 23h133q27 0 27 -23v-571q47 76 137 136.5t205 60.5q180 0 279.5 -113t99.5 -324v-280q0 -209 -119 -325.5t-295 -116.5q-121 0 -200 47t-113 112v-116q0 -23 -23 -23h-131q-25 0 -25 23zM332 406q0 -119 75.5 -196t198.5 -77q264 0 264 309v232 q0 309 -245 309q-117 0 -205 -88t-88 -221v-268z" />
<glyph unicode="c" horiz-adv-x="1019" d="M109 414v293q0 207 122.5 319.5t313.5 112.5q156 0 260 -79t135 -216q1 -6 1 -11q0 -22 -21 -28l-109 -29q-31 -10 -39 19q-14 82 -70.5 136t-156.5 54q-115 0 -184.5 -72.5t-69.5 -222.5v-266q0 -145 67.5 -218t186.5 -73q186 0 237 164q12 35 47 16l86 -45 q29 -12 21 -43q-90 -246 -399 -245q-193 0 -310.5 111.5t-117.5 322.5z" />
<glyph unicode="d" horiz-adv-x="1163" d="M109 406v296q0 199 109.5 318t291.5 119q213 0 324 -142v516q0 23 22 23h135q25 0 25 -23v-1490q0 -23 -25 -23h-131q-23 0 -22 23v118q-45 -66 -129 -113.5t-199 -47.5q-180 0 -290.5 111.5t-110.5 314.5zM291 428q0 -147 71.5 -221t200.5 -74q123 0 197 81t74 198v303 q0 121 -80 195.5t-199 74.5q-123 0 -193.5 -78t-70.5 -241v-238z" />
<glyph unicode="e" horiz-adv-x="1073" d="M109 412v297q0 197 120.5 313.5t313.5 116.5q207 0 321.5 -115t114.5 -342v-141q0 -49 -51 -49h-639v-80q0 -129 65.5 -204t196.5 -75q190 0 262 154q12 29 41 14l88 -43q31 -16 16 -47q-109 -231 -407 -231q-213 0 -327.5 115.5t-114.5 316.5zM289 629h512v80 q0 129 -64.5 202.5t-193.5 73.5q-117 0 -185.5 -74.5t-68.5 -201.5v-80z" />
<glyph unicode="f" horiz-adv-x="722" d="M74 956v99q0 25 20 24h119v113q0 168 82 256t231 88q156 0 256 -119q7 -9 8 -18q0 -11 -12 -23l-76 -71q-18 -18 -32 4q-49 74 -142 73q-133 0 -133 -170v-133h293q23 0 23 -24v-99q0 -27 -25 -26h-291v-907q0 -23 -24 -23h-133q-25 0 -25 23v907h-119q-20 -1 -20 26z " />
<glyph unicode="g" horiz-adv-x="1069" d="M57 -111q0 209 203 293q-100 51 -100 146q0 104 108 159q-166 92 -166 285v12q0 168 113 261.5t303 93.5q156 0 262 -64q127 80 252 80q23 0 23 -37v-80q0 -27 -45 -26q-53 0 -148 -4q72 -84 72 -209v-35q0 -154 -113.5 -243t-308.5 -89q-84 0 -141 17q-55 -29 -56 -72 q0 -59 117 -78l254 -37q182 -29 256 -108.5t74 -237.5q0 -154 -124 -255t-360 -101q-231 0 -353 85.5t-122 243.5zM231 -84q0 -213 304 -213q307 0 307 211q0 88 -42 132t-167 63l-189 28l-47 8q-166 -59 -166 -229zM272 778q0 -209 246 -209t246 209q0 109 -63.5 166 t-182.5 57t-182.5 -57t-63.5 -166z" />
<glyph unicode="h" horiz-adv-x="1144" d="M147 23v1490q0 23 27 23h131q27 0 27 -23v-565q141 190 352 191q158 0 242 -96.5t84 -264.5v-755q0 -23 -27 -23h-131q-25 0 -25 23v708q0 129 -49 191.5t-153 62.5q-92 0 -171 -60.5t-122 -148.5v-753q0 -23 -27 -23h-131q-27 0 -27 23z" />
<glyph unicode="i" horiz-adv-x="475" d="M147 27v1060q0 31 29 31h125q29 0 29 -28v-1061q0 -29 -29 -29h-127q-27 0 -27 27zM147 1313v192q0 31 27 31h125q31 0 31 -31v-192q0 -33 -31 -33h-125q-27 0 -27 33z" />
<glyph unicode="j" horiz-adv-x="493" d="M-14 -346q-9 11 -9 20q0 12 15 23q90 63 132 150t42 237v1006q0 29 27 28h126q29 0 29 -31v-1001q0 -334 -235 -516q-9 -7 -18 -7q-10 0 -21 9zM166 1311v194q0 31 27 31h124q31 0 31 -33v-190q0 -33 -31 -33h-124q-27 0 -27 31z" />
<glyph unicode="k" horiz-adv-x="1003" d="M147 27v1482q0 27 27 27h129q29 0 29 -27v-878l416 469q18 18 36 18h150q14 0 18 -9t-4 -19l-356 -402l389 -657q7 -11 7 -18q0 -13 -21 -13h-156q-25 0 -37 18l-317 547l-125 -135v-403q0 -27 -27 -27h-131q-27 0 -27 27z" />
<glyph unicode="l" horiz-adv-x="479" d="M147 27v1482q0 27 29 27h127q29 0 29 -29v-1480q0 -27 -29 -27h-127q-29 0 -29 27z" />
<glyph unicode="m" horiz-adv-x="1687" d="M147 23v1073q0 23 25 22h127q27 0 27 -22v-146q49 80 132 134.5t187 54.5q111 0 178.5 -57.5t96.5 -141.5q125 199 335 199q137 0 217 -91.5t80 -238.5v-786q0 -23 -24 -23h-133q-25 0 -25 23v737q0 223 -170 223q-86 0 -154.5 -57.5t-103.5 -147.5v-755q0 -23 -27 -23 h-131q-27 0 -26 23v743q0 217 -170 217q-92 0 -160 -59.5t-98 -143.5v-757q0 -23 -27 -23h-131q-25 0 -25 23z" />
<glyph unicode="n" horiz-adv-x="1142" d="M147 23v1073q0 23 25 22h127q27 0 27 -22v-150q145 193 362 193q158 0 239 -96.5t81 -256.5v-763q0 -23 -27 -23h-129q-27 0 -27 23v708q0 119 -43 186.5t-157 67.5q-94 0 -173 -60.5t-122 -148.5v-753q0 -23 -25 -23h-133q-25 0 -25 23z" />
<glyph unicode="o" horiz-adv-x="1128" d="M109 399v312q0 203 120.5 315.5t333.5 112.5q219 0 338 -112t119 -316v-303q0 -201 -120 -314.5t-337 -113.5q-215 0 -334.5 111t-119.5 308zM291 420q0 -287 272 -287q274 0 275 291v270q0 291 -275 291q-127 0 -199.5 -71.5t-72.5 -219.5v-274z" />
<glyph unicode="p" horiz-adv-x="1157" d="M145 -403v1501q0 23 25 22h129q27 0 27 -22v-158q47 78 138 138.5t206 60.5q180 0 280.5 -113t100.5 -324v-280q0 -207 -120 -324.5t-296 -117.5q-117 0 -195 47t-112 112v-542q0 -23 -23 -23h-135q-25 0 -25 23zM328 399q0 -117 75.5 -191.5t200.5 -74.5q262 0 262 309 v232q0 309 -243 309q-117 0 -206 -88t-89 -221v-275z" />
<glyph unicode="q" horiz-adv-x="1163" d="M106 403v306q0 197 113 313.5t293 116.5q223 0 326 -162v121q0 20 24 20h129q25 0 25 -20v-1501q0 -23 -25 -23h-135q-23 0 -22 23v538q-117 -156 -330 -155q-176 0 -287 114t-111 309zM289 424q0 -141 69.5 -216t190.5 -75q131 0 208 75t77 210v297q0 113 -77 191.5 t-198 78.5q-129 0 -199.5 -82t-70.5 -221v-258z" />
<glyph unicode="r" horiz-adv-x="704" d="M147 23v1073q0 23 25 22h127q27 0 27 -22v-201q49 104 143 174t205 70q33 0 28 -31l-20 -127q-2 -20 -27 -25h-51q-98 -8 -174 -78.5t-100 -154.5v-700q0 -23 -25 -23h-135q-23 0 -23 23z" />
<glyph unicode="s" horiz-adv-x="907" d="M76 238q-2 7 -2 13q0 21 22 28l103 38q29 10 37 -18q16 -76 73.5 -123t155.5 -47q92 0 148.5 45t56.5 117q0 70 -58.5 117t-142.5 76.5t-168 64.5t-142.5 105.5t-58.5 174.5q0 137 101.5 223.5t265.5 86.5q143 0 234.5 -70t121.5 -184q8 -29 -16 -35l-113 -29 q-23 -6 -28 19q-47 147 -209 147q-88 0 -138.5 -40t-50.5 -111q0 -63 58.5 -105.5t142.5 -71t169 -65.5t143.5 -111.5t58.5 -187.5q0 -135 -103.5 -225t-271.5 -90q-154 0 -255 66.5t-134 191.5z" />
<glyph unicode="t" horiz-adv-x="729" d="M31 956v99q0 25 22 24h142v258q0 23 24 23h131q25 0 25 -23v-258h217q23 0 22 -24v-99q0 -27 -22 -26h-215v-602q0 -100 39 -137t133 -37h67q27 0 27 -25v-100q0 -29 -31 -29h-86q-164 0 -247.5 68.5t-83.5 248.5v613h-142q-22 -1 -22 26z" />
<glyph unicode="u" horiz-adv-x="1144" d="M135 311v785q0 23 25 22h133q25 0 24 -20v-756q0 -102 47.5 -155.5t131.5 -53.5q186 0 319 174v789q0 23 25 22h133q25 0 24 -20v-1075q0 -23 -22 -23h-131q-25 0 -25 23v127q-166 -170 -370 -170q-150 0 -232 86.5t-82 244.5z" />
<glyph unicode="v" horiz-adv-x="950" d="M10 1092q-3 7 -3 12q0 14 20 14h155q23 0 27 -20l164 -527q51 -164 108 -415h4q55 250 107 415l162 527q4 20 24 20h146q17 0 17 -13q0 -6 -3 -13l-354 -1067q-8 -25 -31 -25h-152q-25 0 -32 25z" />
<glyph unicode="w" horiz-adv-x="1445" d="M35 1092q-1 5 -1 9q0 17 19 17h140q25 0 28 -22l129 -525q53 -233 76 -405h4q20 152 84 405l129 525q6 23 29 22h129q20 0 26 -22l127 -527q66 -305 78 -401h4q20 150 82 405l127 523q4 23 25 22h127q18 0 17 -16q0 -4 -1 -10l-287 -1067q-6 -25 -28 -25h-148 q-23 0 -28 25l-117 469q-63 272 -76 385h-4q-25 -176 -76 -385l-123 -469q-6 -25 -28 -25h-150q-25 0 -31 25z" />
<glyph unicode="x" horiz-adv-x="940" d="M41 7q-2 3 -2 7q0 6 4 13l330 538l-328 525q-5 8 -5 14q0 3 1 6q4 8 16 8h150q18 0 31 -18l245 -404l236 404q10 18 29 18h137q14 0 18 -9l2 -6q0 -6 -6 -13l-326 -531l328 -532q4 -8 4 -14q0 -13 -20 -13h-146q-23 0 -34 23l-238 405l-236 -408q-12 -20 -28 -20h-146 q-12 0 -16 7z" />
<glyph unicode="y" horiz-adv-x="935" d="M-2 1096q-2 6 -2 10q0 13 18 12h160q18 0 25 -18l278 -875l279 873q6 20 24 20h148q18 0 17 -14q0 -4 -1 -8l-399 -1123q-98 -276 -314 -405q-12 -7 -21 -7q-12 0 -22 11l-71 90q-23 27 4 41q174 88 258 311z" />
<glyph unicode="z" horiz-adv-x="958" d="M57 92l568 873h-486q-23 0 -22 24v107q0 23 20 22h686q20 0 29 -20l20 -70l-565 -874h557q20 0 21 -23v-106q0 -25 -23 -25h-756q-20 0 -28 23z" />
<glyph unicode="{" horiz-adv-x="739" d="M61 582v102q0 20 25 25q106 10 151.5 60t45.5 157v321q0 152 53 237t184 85h101q23 0 22 -25v-102q0 -25 -22 -25h-66q-51 0 -77.5 -30.5t-26.5 -83.5v-420q0 -94 -60.5 -161t-154.5 -83v-4q94 -18 154.5 -84t60.5 -168v-406q0 -121 108 -120h62q23 0 22 -25v-102 q0 -25 -22 -25h-101q-238 0 -237 287v381q0 168 -193 184q-29 2 -29 25z" />
<glyph unicode="|" horiz-adv-x="497" d="M162 -512v2124q0 27 26 26h119q29 0 29 -28v-2122q0 -27 -27 -27h-121q-26 0 -26 27z" />
<glyph unicode="}" horiz-adv-x="743" d="M100 -164q0 25 23 25h61q111 0 111 121v407q0 100 58.5 168t150.5 82v6q-94 14 -151.5 78.5t-57.5 165.5v416q0 51 -27.5 80.5t-77.5 29.5h-67q-23 0 -23 25v100q0 25 23 25h100q133 0 185.5 -83t52.5 -235v-315q0 -104 46 -154.5t150 -62.5q25 -2 25 -25v-100 q0 -23 -27 -25q-195 -18 -194 -186v-381q0 -287 -238 -287h-100q-23 0 -23 25v100z" />
<glyph unicode="~" horiz-adv-x="1085" d="M74 598q31 61 96.5 114.5t140.5 53.5q84 0 235.5 -59.5t219.5 -59.5t137 101q16 20 35 8l72 -64q12 -8 2 -28q-29 -61 -93.5 -113.5t-140.5 -52.5q-98 0 -247.5 58t-213.5 58q-33 0 -62.5 -21.5t-39.5 -34.5t-33 -44q-20 -20 -35 -8l-71 63q-12 13 -2 29z" />
<glyph unicode="&#xa1;" horiz-adv-x="546" d="M184 -354l23 1024q0 20 22 20h88q25 0 25 -20l20 -1026q0 -20 -22 -21h-131q-25 0 -25 23zM188 936v174q0 31 29 31h113q31 0 30 -33v-170q0 -33 -30 -33h-113q-29 0 -29 31z" />
<glyph unicode="&#xa2;" horiz-adv-x="1011" d="M113 420v285q0 174 90 285.5t241 135.5v156q0 27 27 27h121q35 0 35 -35v-144q129 -18 212 -97t105 -191q6 -33 -20 -39l-113 -29q-31 -10 -39 19q-12 80 -65.5 135t-157.5 55q-115 0 -184.5 -74.5t-69.5 -232.5v-244q0 -145 66.5 -218t185.5 -73q178 0 231 164 q12 35 47 14l90 -47q29 -12 19 -43q-35 -94 -116 -155.5t-191 -79.5v-166q0 -29 -29 -29h-127q-27 0 -27 29v166q-156 23 -243.5 131.5t-87.5 294.5z" />
<glyph unicode="&#xa3;" horiz-adv-x="1163" d="M111 684v107q0 25 22 24h152q-4 31 -20.5 128t-16.5 157q0 197 122 307.5t310 110.5q301 0 403 -283q16 -43 -20 -55l-92 -39q-35 -12 -45 24q-53 195 -254 195q-102 0 -170 -65.5t-68 -188.5q0 -57 17.5 -156.5t21.5 -134.5h318q25 0 24 -24v-107q0 -25 -24 -25h-312 q6 -303 -108 -501h698q23 0 23 -25v-106q0 -27 -25 -27h-879q-10 10 -26.5 38t-16.5 40q0 8 33 57q121 201 121 463q0 39 -2 61h-154q-32 0 -32 25z" />
<glyph unicode="&#xa4;" horiz-adv-x="1304" d="M72 565v92q0 27 22 27h152v143h-152q-23 0 -22 27v92q0 27 22 27h152v67q0 213 134 344.5t359 131.5q201 0 328 -91.5t168 -232.5q12 -43 -25 -53l-104 -35q-29 -10 -41 20q-70 231 -326 232q-154 0 -229.5 -85t-75.5 -235v-63h395q25 0 25 -27v-92q0 -27 -25 -27h-395 v-143h397q23 0 23 -27v-92q0 -25 -25 -24h-393v-82q0 -324 303 -324q262 0 326 230q12 37 49 22l96 -37q35 -10 17 -63q-119 -309 -488 -310q-231 0 -362 127t-131 361v76h-152q-22 -1 -22 24z" />
<glyph unicode="&#xa5;" horiz-adv-x="1161" d="M37 1473q-14 25 10 24h166q16 0 27 -18l344 -688l344 688q10 18 24 18h162q12 0 16.5 -8t-2.5 -16l-454 -855v-40h289q23 0 22 -27v-100q0 -25 -22 -25h-289v-403q0 -23 -23 -23h-145q-20 0 -21 23v403h-286q-23 0 -23 25v102q0 25 23 25h286v40z" />
<glyph unicode="&#xa6;" horiz-adv-x="483" d="M156 412q0 23 22 22h127q23 0 23 -22v-932q0 -23 -23 -23h-127q-23 0 -22 23v932zM156 686v930q0 23 22 22h127q23 0 23 -22v-930q0 -25 -23 -24h-127q-22 -1 -22 24z" />
<glyph unicode="&#xa7;" horiz-adv-x="1024" d="M135 88q-4 31 21 41l102 29q29 10 35 -21q12 -80 68.5 -131t150.5 -51q90 0 141.5 43t51.5 127q0 80 -62.5 135t-200.5 119q-141 66 -206.5 137.5t-65.5 183.5q0 90 56.5 164t152.5 99q-233 104 -234 297q0 115 94.5 196.5t262.5 81.5q141 0 232 -67.5t120 -172.5 q8 -27 -14 -36l-113 -35q-25 -10 -31 16q-10 68 -60 112t-134 44q-86 0 -130 -38t-44 -99.5t51 -109.5t203 -114q158 -68 225 -144.5t67 -195.5q0 -94 -62 -166.5t-150 -99.5q236 -117 235 -305q0 -139 -107.5 -226t-279.5 -87q-147 0 -249.5 73.5t-125.5 200.5zM338 700.5 q0 -75.5 56.5 -130t133.5 -54.5q84 0 131.5 50t47.5 126q0 82 -56.5 133.5t-142.5 51.5q-80 0 -125 -50.5t-45 -126z" />
<glyph unicode="&#xa8;" horiz-adv-x="843" d="M154 1305v172q0 33 28 32h109q29 0 28 -32v-170q0 -33 -28 -33h-109q-28 0 -28 31zM524 1305v172q0 33 27 32h108q31 0 31 -32v-170q0 -33 -31 -33h-108q-27 0 -27 31z" />
<glyph unicode="&#xa9;" horiz-adv-x="1558" d="M47 731q0 307 213 517t518 210q326 0 530.5 -204.5t204.5 -522.5q0 -303 -216 -517t-519 -214q-324 0 -527.5 198.5t-203.5 532.5zM172 731q0 -272 170 -443t438 -171q252 0 430.5 181t178.5 433q0 260 -172.5 435t-436.5 175q-260 0 -434 -177t-174 -433zM461 612v213 q0 156 91 240t232 84q125 0 203 -60.5t96 -158.5q4 -27 -14 -29l-90 -22q-25 -8 -27 14q-25 135 -164 135q-182 0 -182 -223v-184q0 -213 180 -213q131 0 170 116q8 25 33 13l74 -35q23 -10 14 -35q-72 -180 -297 -180q-143 0 -231 82.5t-88 242.5z" />
<glyph unicode="&#xaa;" horiz-adv-x="813" d="M82 932v20q0 133 113.5 191.5t367.5 52.5v29q0 172 -162 172q-117 0 -168 -103q-8 -18 -26 -10l-74 33q-20 6 -10 26q74 174 280 175q152 0 232 -81t80 -225v-479q0 -16 -19 -16h-110q-18 0 -19 16v72q-113 -100 -243 -100q-98 0 -170 62.5t-72 164.5zM223 938 q0 -55 38 -86t101 -31q109 0 201 92v179q-195 2 -267.5 -31t-72.5 -113v-10z" />
<glyph unicode="&#xab;" horiz-adv-x="1105" d="M84 608l315 457q16 27 43 10l88 -57q25 -14 9 -35l-263 -373l263 -372q14 -23 -9 -37l-88 -58q-27 -16 -43 11zM526 608l316 457q18 27 43 10l90 -57q23 -16 6 -35l-260 -373l260 -372q14 -23 -6 -37l-90 -58q-25 -16 -43 11z" />
<glyph unicode="&#xac;" horiz-adv-x="1126" d="M49 594v90q0 25 23 25h989v-574q0 -20 -27 -20h-84q-25 0 -24 20v432h-854q-23 0 -23 27z" />
<glyph unicode="&#xad;" horiz-adv-x="944" d="M133 565v97q0 27 23 26h653q23 0 22 -26v-97q0 -27 -24 -26h-649q-25 -1 -25 26z" />
<glyph unicode="&#xae;" horiz-adv-x="1048" d="M90 1096q0 178 128 304t306 126q188 0 311 -122t123 -308q0 -176 -126.5 -299t-307.5 -123q-188 0 -311 118t-123 304zM180 1096q0 -152 95.5 -248t248.5 -96q145 0 244.5 100t99.5 244q0 156 -96 253t-248 97q-145 0 -244.5 -101.5t-99.5 -248.5zM375 889v436h166 q72 0 110.5 -39t38.5 -92v-16q0 -98 -84 -129l86 -160q4 -8 -4 -8h-80q-6 0 -10 6l-74 151h-65v-149q0 -8 -6 -8h-72q-6 0 -6 8zM459 1108h63q47 0 65.5 16.5t18.5 53.5v10q0 68 -74 67h-73v-147z" />
<glyph unicode="&#xaf;" horiz-adv-x="937" d="M211 1370v92q0 27 22 27h474q20 0 20 -27v-92q0 -27 -22 -27h-472q-22 0 -22 27z" />
<glyph unicode="&#xb0;" horiz-adv-x="827" d="M82 1204q0 135 98.5 230.5t233.5 95.5q147 0 239 -89t92 -237q0 -133 -98 -228t-233 -95q-145 0 -238.5 90t-93.5 233zM221 1204q0 -80 55.5 -135t135.5 -55t136 55t56 135q0 82 -54 137.5t-138 55.5q-80 0 -135.5 -55.5t-55.5 -137.5z" />
<glyph unicode="&#xb1;" horiz-adv-x="1177" d="M63 29v96q0 27 31 27h410v28v377h-408q-27 0 -26 29v94q0 31 26 31h408v413q0 16 11 21.5t42 5.5h88q27 0 27 -27v-413h407q29 0 29 -31v-94q0 -29 -29 -29h-407v-405h399q33 0 33 -50v-73q0 -29 -33 -29h-977q-31 0 -31 29z" />
<glyph unicode="&#xb2;" horiz-adv-x="665" d="M61 715v104q0 109 50.5 179.5t162.5 127.5q72 37 100.5 53.5t54.5 47t26 67.5q0 45 -30 73t-89 28q-119 0 -164 -101q-8 -20 -25 -16l-79 31q-25 6 -7 37q86 172 281 172q117 0 187.5 -58.5t70.5 -163.5q0 -92 -59.5 -148t-202.5 -126q-82 -41 -107.5 -81t-25.5 -103h358 q20 0 21 -25v-72q0 -27 -23 -26h-500z" />
<glyph unicode="&#xb3;" horiz-adv-x="661" d="M53 870q-12 31 6 37l74 29q23 12 33 -14q39 -96 158 -97q57 0 92 29t35 84v12q0 55 -38 88t-106 33h-59q-18 0 -19 23v69q0 25 21 25h72q53 0 91 26.5t38 73.5v6q0 47 -31 75t-88 28q-119 0 -162 -94q-12 -25 -33 -19l-69 27q-20 6 -11 30q31 76 103.5 126.5t175.5 50.5 q127 0 192.5 -60.5t65.5 -150.5v-17q0 -63 -37 -107t-88 -53q53 -18 89 -65t36 -111v-20q0 -102 -70.5 -167t-193.5 -65q-207 0 -277 168z" />
<glyph unicode="&#xb4;" horiz-adv-x="636" d="M150 1255l167 279q12 18 37 18h117q16 0 19.5 -8t-5.5 -18l-211 -283q-12 -12 -26 -12h-86q-26 -1 -12 24z" />
<glyph unicode="&#xb5;" horiz-adv-x="1144" d="M147 -418v1512q0 25 25 24h129q25 0 25 -22v-693q0 -109 65.5 -176t165.5 -67q102 0 181 79.5t87 125.5v731q0 23 25 22h133q25 0 25 -20v-1075q0 -23 -25 -23h-125q-23 0 -22 23v149q-100 -193 -281 -192q-82 0 -142.5 36.5t-84.5 94.5v-529q0 -23 -25 -22h-131 q-25 -1 -25 22z" />
<glyph unicode="&#xb6;" horiz-adv-x="1169" d="M47 956q0 246 159 397.5t453 151.5h420q23 0 23 -20v-88q0 -25 -25 -25h-121v-1630q0 -29 -30 -29h-107q-25 0 -24 27v1632h-131v-878h-136q-219 0 -350 117.5t-131 344.5z" />
<glyph unicode="&#xb7;" horiz-adv-x="501" d="M166 522v217q0 31 29 31h110q31 0 31 -33v-213q0 -33 -31 -32h-110q-29 -1 -29 30z" />
<glyph unicode="&#xb8;" horiz-adv-x="868" d="M233 -322l31 50q8 14 23 6q68 -51 133 -51q92 0 92 71v8q0 41 -42 61.5t-120 12.5v205h119v-123q78 -2 124 -45t46 -106v-19q0 -66 -56.5 -115t-154.5 -49t-188 64q-15 14 -7 30z" />
<glyph unicode="&#xb9;" horiz-adv-x="571" d="M61 1382q-2 14 11 19q145 35 168 49q16 10 47 53h98v-669h137q12 0 13 -13v-94q0 -12 -13 -12h-420q-10 0 -10 12v94q0 12 10 13h142v483l-156 -19q-18 -4 -18 11z" />
<glyph unicode="&#xba;" horiz-adv-x="811" d="M76 995v238q0 135 92 210t235 75q152 0 241 -74t89 -215v-234q0 -143 -90 -216.5t-240 -73.5q-152 0 -239.5 74.5t-87.5 215.5zM219 1008q0 -182 184 -183q186 0 187 183v209q0 180 -187 180q-184 0 -184 -180v-209z" />
<glyph unicode="&#xbb;" horiz-adv-x="1103" d="M125 231l260 373l-260 373q-18 23 8 35l88 57q23 18 43 -10l316 -457l-316 -455q-20 -25 -43 -8l-88 56q-24 16 -8 36zM565 231l262 373l-262 373q-18 23 8 35l89 57q27 20 43 -10l315 -457l-315 -455q-18 -27 -43 -8l-89 56q-24 16 -8 36z" />
<glyph unicode="&#xbc;" horiz-adv-x="1536" d="M92 1341q-2 14 12 19q147 37 168 51q27 16 45 49h103v-667h129q12 0 12 -13v-90q0 -12 -12 -12h-412q-12 0 -12 12v90q0 12 12 13h139v483l-157 -16q-16 -4 -17 10zM338 29l776 1460q10 20 33 20h102q25 0 17 -20l-785 -1471q-8 -18 -35 -18h-92q-30 0 -16 29zM842 307 q-2 10 6 25l381 575q12 20 28 6l72 -47q18 -14 6 -32l-323 -488h190v139q0 16 19 17h100q18 0 18 -17v-139h88q18 0 19 -20v-78q0 -23 -19 -23h-88v-147q0 -20 -18 -21h-104q-18 0 -19 21v147h-326q-10 0 -16 17z" />
<glyph unicode="&#xbd;" horiz-adv-x="1634" d="M92 1341q-2 14 12 19q147 37 168 51q27 16 45 49h103v-667h129q12 0 12 -13v-90q0 -12 -12 -12h-412q-12 0 -12 12v90q0 12 12 13h139v483l-157 -16q-16 -4 -17 10zM338 29l776 1460q10 20 33 20h102q25 0 17 -20l-785 -1471q-8 -18 -35 -18h-92q-30 0 -16 29zM1001 109 v112q0 109 51.5 178.5t166.5 124.5q98 47 139 80t41 86q0 98 -121 98q-115 0 -158 -100q-10 -20 -24 -16l-80 30q-25 6 -6 39q84 170 272 170q117 0 189.5 -59t72.5 -160q0 -92 -61.5 -151.5t-200.5 -124.5q-84 -37 -110.5 -78t-26.5 -107h362q23 0 23 -24v-72 q0 -27 -25 -26h-504z" />
<glyph unicode="&#xbe;" horiz-adv-x="1548" d="M86 809q-16 29 8 37l78 31q23 8 31 -13q41 -102 151 -102q127 0 127 112v13q0 123 -135 123h-65q-18 0 -19 22v68q0 27 21 26h71q55 0 91 26t36 75v6q0 102 -116 102q-111 0 -158 -96q-12 -29 -33 -20l-70 28q-20 6 -12 33q33 74 104.5 124t170.5 50q125 0 192.5 -59.5 t67.5 -153.5v-18q0 -59 -37 -102.5t-88 -53.5q53 -16 89 -63.5t36 -110.5v-21q0 -104 -70 -168.5t-197 -64.5q-200 0 -274 170zM350 29l789 1460q10 20 32 20h103q25 0 16 -20l-796 -1471q-8 -18 -35 -18h-94q-33 0 -15 29zM854 307q-2 10 6 25l379 575q12 18 31 6l71 -47 q18 -14 7 -32l-324 -488h188v139q0 16 21 17h98q20 0 21 -17v-139h86q18 0 18 -20v-78q0 -23 -18 -23h-86v-147q0 -20 -21 -21h-102q-20 0 -21 21v147h-325q-12 0 -15 17z" />
<glyph unicode="&#xbf;" horiz-adv-x="897" d="M86 -84q0 80 35 151.5t86 126t101 107.5t85 117.5t35 134.5v57q0 33 29 33h106q29 0 29 -31v-67q0 -80 -34 -153t-81 -127t-95 -105t-82 -110.5t-34 -119.5q0 -100 56.5 -159.5t166.5 -59.5q156 0 240 125q20 27 41 2l72 -78q12 -16 -8 -41q-145 -168 -365 -168 q-178 0 -280.5 104.5t-102.5 260.5zM428 885v170q0 33 29 32h106q29 0 29 -30v-172q0 -33 -29 -33h-106q-29 0 -29 33z" />
<glyph unicode="&#xc0;" horiz-adv-x="1165" d="M16 29l461 1444q10 31 35 30h150q27 0 36 -30l451 -1446q10 -27 -14 -27h-152q-23 0 -29 25l-123 411h-507l-127 -411q-4 -25 -29 -25h-137q-25 0 -15 29zM293 1946q-18 29 14 28h119q25 0 35 -20l170 -279q12 -23 -15 -22h-86q-18 0 -24 12zM373 594h413l-202 684z" />
<glyph unicode="&#xc1;" horiz-adv-x="1165" d="M16 29l461 1444q10 31 35 30h150q27 0 36 -30l451 -1446q10 -27 -14 -27h-152q-23 0 -29 25l-123 411h-507l-127 -411q-4 -25 -29 -25h-137q-25 0 -15 29zM373 594h413l-202 684zM534.5 1659q-4.5 6 2.5 18l170 279q10 18 34 18h119q14 0 17.5 -8t-5.5 -18l-210 -283 q-12 -12 -27 -12h-86q-10 0 -14.5 6z" />
<glyph unicode="&#xc2;" horiz-adv-x="1165" d="M16 29l461 1444q10 31 35 30h150q27 0 36 -30l451 -1446q10 -27 -14 -27h-152q-23 0 -29 25l-123 411h-507l-127 -411q-4 -25 -29 -25h-137q-25 0 -15 29zM340 1675l166 252q12 18 35 19h92q20 0 33 -19l163 -254q14 -20 -12 -20h-92q-23 0 -33 18l-106 182l-111 -184 q-10 -16 -29 -16h-94q-24 -1 -12 22zM373 594h413l-202 684z" />
<glyph unicode="&#xc3;" horiz-adv-x="1165" d="M16 29l461 1444q10 31 70 30h115q27 0 36 -30l451 -1446q10 -27 -14 -27h-152q-23 0 -29 25l-123 411h-507l-127 -411q-4 -25 -29 -25h-137q-25 0 -15 29zM283 1761q-8 8 0 23q23 43 68.5 82t105.5 45h39q49 -6 116.5 -49t98.5 -43q33 0 55 17t31.5 36.5t19.5 30t21 0.5 l59 -64q10 -10 2 -24q-74 -129 -186 -129q-63 0 -135 47t-101 47q-63 0 -106 -78q-8 -12 -21 -2zM373 594h413l-202 684z" />
<glyph unicode="&#xc4;" horiz-adv-x="1165" d="M16 29l461 1444q10 31 35 30h150q27 0 36 -30l451 -1446q10 -27 -14 -27h-152q-23 0 -29 25l-123 411h-507l-127 -411q-4 -25 -29 -25h-137q-25 0 -15 29zM319 1720v172q0 31 27 31h109q31 0 30 -31v-170q0 -33 -30 -32h-109q-27 -1 -27 30zM373 594h413l-202 684z M688 1720v172q0 31 29 31h108q31 0 31 -31v-170q0 -33 -31 -32h-108q-29 -1 -29 30z" />
<glyph unicode="&#xc5;" horiz-adv-x="1165" d="M16 29l461 1444q10 31 35 30h150q27 0 36 -30l451 -1446q10 -27 -14 -27h-152q-23 0 -29 25l-123 411h-507l-127 -411q-4 -25 -29 -25h-137q-25 0 -15 29zM373 594h413l-202 684zM416 1790q0 76 52 126t128 50q78 0 129 -49t51 -127q0 -74 -52 -124t-128 -50 q-80 0 -130 50t-50 124zM512 1790q0 -37 23.5 -60.5t60.5 -23.5q35 0 59.5 24.5t24.5 59.5q0 39 -22.5 61.5t-61.5 22.5q-37 0 -60.5 -23.5t-23.5 -60.5z" />
<glyph unicode="&#xc6;" horiz-adv-x="1703" d="M28 8q-5 8 1 21l692 1439q16 29 37 29h825q20 0 21 -27v-114q0 -25 -21 -25h-579v-485h526q23 0 22 -27v-110q0 -25 -22 -25h-526v-518h579q23 0 23 -25v-116q0 -25 -23 -25h-745q-25 0 -25 25v309h-444l-146 -309q-10 -25 -33 -25h-147q-10 0 -15 8zM444 494h369v772z " />
<glyph unicode="&#xc7;" horiz-adv-x="1198" d="M121 467v561q0 227 137 358.5t377 131.5q186 0 305 -87.5t166 -238.5q12 -39 -21 -51l-104 -37q-37 -12 -45 26q-70 219 -303 220q-150 0 -236 -86t-86 -246v-537q0 -158 79 -247t241 -89q121 0 197.5 61.5t103.5 160.5q12 37 51 24l100 -39q31 -10 17 -57 q-35 -115 -145.5 -206t-266.5 -107v-88q78 -2 125 -46.5t47 -105.5v-21q0 -66 -56 -113.5t-154.5 -47.5t-188.5 63q-16 16 -6 29l30 51q8 14 23 4q68 -49 133 -49q92 0 92 72v6q0 41 -42 61.5t-120 12.5v170q-450 26 -450 487z" />
<glyph unicode="&#xc8;" d="M162 0v1497h770q23 0 22 -27v-114q0 -25 -22 -25h-580v-485h529q23 0 22 -27v-110q0 -25 -22 -25h-529v-518h580q23 0 22 -25v-116q0 -25 -22 -25h-770zM283 1946q-18 29 14 28h119q23 0 35 -20l170 -279q12 -23 -15 -22h-86q-18 0 -24 12z" />
<glyph unicode="&#xc9;" d="M162 0v1497h770q23 0 22 -27v-114q0 -25 -22 -25h-580v-485h529q23 0 22 -27v-110q0 -25 -22 -25h-529v-518h580q23 0 22 -25v-116q0 -25 -22 -25h-770zM506 1659q-4 6 2 16l170 279q10 20 35 20h116q16 0 19.5 -10t-4.5 -18l-211 -281q-10 -12 -27 -12h-86q-10 0 -14 6z " />
<glyph unicode="&#xca;" d="M162 0v1497h770q23 0 22 -27v-114q0 -25 -22 -25h-580v-485h529q23 0 22 -27v-110q0 -25 -22 -25h-529v-518h580q23 0 22 -25v-116q0 -25 -22 -25h-770zM324 1683l163 254q14 16 37 17h90q20 0 33 -17l166 -256q14 -20 -14 -20h-90q-25 0 -33 18l-109 185l-110 -187 q-6 -16 -29 -16h-92q-26 -1 -12 22z" />
<glyph unicode="&#xcb;" d="M162 0v1497h770q23 0 22 -27v-114q0 -25 -22 -25h-580v-485h529q23 0 22 -27v-110q0 -25 -22 -25h-529v-518h580q23 0 22 -25v-116q0 -25 -22 -25h-770zM287 1720v172q0 31 26 31h109q31 0 31 -31v-170q0 -33 -31 -32h-109q-26 -1 -26 30zM655 1720v172q0 31 29 31h109 q31 0 30 -31v-170q0 -33 -30 -32h-109q-29 -1 -29 30z" />
<glyph unicode="&#xcc;" horiz-adv-x="534" d="M-29 1960q0 6 4.5 10t14.5 4h119q25 0 34 -18l170 -279q12 -25 -14 -24h-86q-16 0 -25 12l-213 283q-4 6 -4 12zM172 23v1452q0 23 25 22h141q25 0 24 -22v-1452q0 -23 -24 -23h-141q-25 0 -25 23z" />
<glyph unicode="&#xcd;" horiz-adv-x="534" d="M172 23v1452q0 23 25 22h141q25 0 24 -22v-1452q0 -23 -24 -23h-141q-25 0 -25 23zM221 1677l170 279q10 18 35 18h119q33 0 14 -26l-213 -283q-8 -12 -24 -12h-86q-27 -1 -15 24z" />
<glyph unicode="&#xce;" horiz-adv-x="534" d="M25 1675l163 252q12 18 37 19h90q20 0 33 -19l166 -254q14 -20 -14 -20h-90q-25 0 -35 18l-107 182l-110 -184q-10 -16 -29 -16h-92q-26 -1 -12 22zM172 23v1452q0 23 25 22h141q25 0 24 -22v-1452q0 -23 -24 -23h-141q-25 0 -25 23z" />
<glyph unicode="&#xcf;" horiz-adv-x="534" d="M0 1720v172q0 31 29 31h106q31 0 31 -31v-170q0 -33 -31 -32h-106q-29 -1 -29 30zM172 23v1452q0 23 25 22h141q25 0 24 -22v-1452q0 -23 -24 -23h-141q-25 0 -25 23zM369 1720v172q0 31 28 31h109q31 0 31 -31v-170q0 -33 -31 -32h-109q-28 -1 -28 30z" />
<glyph unicode="&#xd0;" horiz-adv-x="1306" d="M23 717v100q0 25 22 25h117v655h506q238 0 366.5 -135t128.5 -354v-527q0 -213 -129 -347t-366 -134h-506v690h-115q-24 0 -24 27zM352 166h281q342 0 342 340v481q0 160 -83 252t-259 92h-281v-489h314q20 0 20 -25v-100q0 -27 -22 -27h-312v-524z" />
<glyph unicode="&#xd1;" horiz-adv-x="1394" d="M162 23v1447q0 27 28 27h209q18 0 31 -22l379 -738q172 -344 250 -538h8q-16 209 -16 563v715q0 20 22 20h137q23 0 23 -20v-1452q0 -25 -27 -25h-198q-6 0 -11.5 3t-10.5 9l-10 13q-5 6 -9 15t-8.5 15t-8.5 15.5t-6 13.5l-377 725q-117 227 -231 489h-8q16 -203 16 -460 v-815q0 -23 -22 -23h-138q-22 0 -22 23zM426 1784q23 41 69 81t105 46h41q51 -6 116.5 -49t96.5 -43q41 0 66.5 28.5t37 48t23.5 7.5l61 -64q10 -10 0 -24q-74 -129 -186 -129q-61 0 -133 47t-100 47q-63 0 -107 -78q-10 -10 -20 -2l-68 61q-10 9 -2 23z" />
<glyph unicode="&#xd2;" horiz-adv-x="1363" d="M141 461v477q0 281 126 430.5t415 149.5q252 0 396.5 -132.5t144.5 -355.5v-475q0 -283 -126 -430.5t-415 -147.5q-256 0 -398.5 129.5t-142.5 354.5zM332 479q0 -156 91 -245t259 -89t260 88.5t92 243.5v537q0 156 -92 246t-260 90t-259 -89.5t-91 -244.5v-537z M397 1958q0 6 4.5 11t14.5 5h119q25 0 34 -20l170 -279q6 -10 1 -17t-15 -7h-86q-16 0 -25 12l-213 283q-4 6 -4 12z" />
<glyph unicode="&#xd3;" horiz-adv-x="1363" d="M141 461v477q0 281 126 430.5t415 149.5q252 0 396.5 -132.5t144.5 -355.5v-475q0 -283 -126 -430.5t-415 -147.5q-256 0 -398.5 129.5t-142.5 354.5zM332 479q0 -156 91 -245t259 -89t260 88.5t92 243.5v537q0 156 -92 246t-260 90t-259 -89.5t-91 -244.5v-537z M621 1677l170 279q10 18 34 18h119q33 0 14 -26l-213 -283q-8 -12 -24 -12h-86q-26 -1 -14 24z" />
<glyph unicode="&#xd4;" horiz-adv-x="1363" d="M141 461v477q0 281 126 430.5t415 149.5q252 0 396.5 -132.5t144.5 -355.5v-475q0 -283 -126 -430.5t-415 -147.5q-256 0 -398.5 129.5t-142.5 354.5zM332 479q0 -156 91 -245t259 -89t260 88.5t92 243.5v537q0 156 -92 246t-260 90t-259 -89.5t-91 -244.5v-537z M444 1675l166 252q12 18 35 19h92q20 0 33 -19l164 -254q14 -20 -12 -20h-91q-25 0 -34 18l-107 182l-110 -184q-10 -16 -29 -16h-94q-23 -1 -13 22z" />
<glyph unicode="&#xd5;" horiz-adv-x="1363" d="M141 461v477q0 281 126 430.5t415 149.5q252 0 396.5 -132.5t144.5 -355.5v-475q0 -283 -126 -430.5t-415 -147.5q-256 0 -398.5 129.5t-142.5 354.5zM332 479q0 -156 91 -245t259 -89t260 88.5t92 243.5v537q0 156 -92 246t-260 90t-259 -89.5t-91 -244.5v-537z M379 1784q23 43 69 83t105 44q23 4 41 0q51 -6 117.5 -48t95.5 -42q41 0 66.5 28.5t37 47t23.5 6.5l61 -62q8 -10 0 -24q-74 -129 -186 -129q-61 0 -133 46t-103 46q-63 0 -104 -76q-10 -12 -20 -2l-68 61q-10 9 -2 21z" />
<glyph unicode="&#xd6;" horiz-adv-x="1363" d="M141 461v477q0 281 126 430.5t415 149.5q252 0 396.5 -132.5t144.5 -355.5v-475q0 -283 -126 -430.5t-415 -147.5q-256 0 -398.5 129.5t-142.5 354.5zM332 479q0 -156 91 -245t259 -89t260 88.5t92 243.5v537q0 156 -92 246t-260 90t-259 -89.5t-91 -244.5v-537z M418 1720v172q0 31 28 31h109q31 0 31 -31v-170q0 -33 -31 -32h-109q-28 -1 -28 30zM788 1720v172q0 31 29 31h109q29 0 28 -31v-170q0 -33 -28 -32h-109q-29 -1 -29 30z" />
<glyph unicode="&#xd7;" horiz-adv-x="1101" d="M80 227q-18 18 0 39l366 365l-360 362q-18 18 -2 37l70 70q18 16 36 2l363 -365l362 365q14 14 35 -2l68 -68q20 -20 2 -39l-363 -360l365 -363q18 -18 0 -41l-66 -65q-20 -20 -41 0l-362 362l-371 -368q-16 -20 -37 2z" />
<glyph unicode="&#xd8;" horiz-adv-x="1363" d="M141 461v569q0 223 143.5 355.5t397.5 132.5q190 0 324 -82l63 112q12 20 37 21h100q27 0 15 -21l-111 -196q113 -125 113 -322v-567q0 -227 -143.5 -356.5t-397.5 -129.5q-186 0 -311 72l-68 -119q-12 -18 -35 -18h-98q-33 0 -14 29l106 186q-121 125 -121 334zM332 479 q0 -100 35 -168l551 969q-92 70 -236 70q-168 0 -259 -89.5t-91 -244.5v-537zM459 205q84 -59 223 -60q168 0 260 88.5t92 243.5v537q0 78 -33 147z" />
<glyph unicode="&#xd9;" horiz-adv-x="1320" d="M145 420v1055q0 23 23 22h145q23 0 23 -22v-1035q0 -295 321 -295q164 0 248 76t84 219v1035q0 23 21 22h141q23 0 23 -22v-1055q0 -197 -134.5 -320t-382.5 -123q-252 0 -382 122t-130 321zM389 1946q-18 29 14 28h117q25 0 37 -20l168 -279q6 -10 2 -17t-14 -7h-86 q-14 0 -27 12z" />
<glyph unicode="&#xda;" horiz-adv-x="1320" d="M145 420v1055q0 23 23 22h145q23 0 23 -22v-1035q0 -295 321 -295q164 0 248 76t84 219v1035q0 23 21 22h141q23 0 23 -22v-1055q0 -197 -134.5 -320t-382.5 -123q-252 0 -382 122t-130 321zM602 1658q-4 7 2 17l170 279q10 20 35 20h119q14 0 17 -10t-5 -18l-211 -283 q-12 -12 -27 -12h-84q-12 0 -16 7z" />
<glyph unicode="&#xdb;" horiz-adv-x="1320" d="M145 420v1055q0 23 23 22h145q23 0 23 -22v-1035q0 -295 321 -295q164 0 248 76t84 219v1035q0 23 21 22h141q23 0 23 -22v-1055q0 -197 -134.5 -320t-382.5 -123q-252 0 -382 122t-130 321zM422 1683l166 254q12 16 35 17h92q20 0 33 -17l163 -256q14 -20 -12 -20h-92 q-20 0 -33 18l-106 185l-111 -187q-10 -16 -29 -16h-94q-24 -1 -12 22z" />
<glyph unicode="&#xdc;" horiz-adv-x="1320" d="M145 420v1055q0 23 23 22h145q23 0 23 -22v-1035q0 -295 321 -295q164 0 248 76t84 219v1035q0 23 21 22h141q23 0 23 -22v-1055q0 -197 -134.5 -320t-382.5 -123q-252 0 -382 122t-130 321zM399 1720v172q0 31 29 31h109q31 0 30 -31v-170q0 -33 -30 -32h-109 q-29 -1 -29 30zM770 1720v172q0 31 29 31h108q29 0 29 -31v-170q0 -33 -29 -32h-108q-29 -1 -29 30z" />
<glyph unicode="&#xdd;" horiz-adv-x="1120" d="M0 1473q-14 25 10 24h166q16 0 27 -18l360 -693l357 693q10 18 26 18h162q12 0 16 -8t-2 -16l-467 -861v-589q0 -23 -22 -23h-146q-23 0 -22 23v587zM520 1658q-4 7 2 17l168 279q12 20 37 20h117q16 0 19 -10t-5 -18l-211 -283q-12 -12 -26 -12h-86q-11 0 -15 7z" />
<glyph unicode="&#xde;" horiz-adv-x="1150" d="M162 25v1450q0 23 24 22h140q25 0 24 -22v-230h234q238 0 362.5 -111.5t124.5 -336.5v-86q0 -213 -128 -325t-343 -112h-248v-251q0 -23 -24 -23h-142q-24 0 -24 25zM352 438h230q303 0 303 279v69q0 293 -322 293h-211v-641z" />
<glyph unicode="&#xdf;" horiz-adv-x="1200" d="M145 23v1075q0 432 426 432q207 0 309.5 -113.5t102.5 -257.5v-33q0 -211 -152 -278q119 -31 202 -129t83 -256v-72q0 -178 -90 -294.5t-295 -116.5t-307 143q-18 27 4 47l78 68q23 23 45 -9q68 -96 178 -96q205 0 205 262v62q0 154 -87 229.5t-220 75.5h-80 q-25 0 -25 22v109q0 27 25 27h63q190 0 191 223q0 104 -58.5 165.5t-175.5 61.5q-127 0 -183 -68.5t-56 -216.5v-1062q0 -23 -25 -23h-133q-25 0 -25 23z" />
<glyph unicode="&#xe0;" d="M76 303v10q0 190 150.5 273.5t508.5 62.5v70q0 139 -54 202.5t-171 63.5q-170 0 -223 -164q-12 -31 -41 -14l-92 45q-27 14 -17 39q109 248 387 248q186 0 288.5 -108.5t102.5 -307.5v-700q0 -23 -26 -23h-123q-27 0 -27 23v108q-139 -152 -333 -151q-143 0 -236.5 90 t-93.5 233zM229 1558.5q0 6.5 4.5 11.5t14.5 5h119q23 0 34 -21l170 -278q6 -10 2 -17.5t-16 -7.5h-86q-16 0 -25 13l-213 282q-4 6 -4 12.5zM258 315q0 -80 54.5 -131t140.5 -51q166 0 282 133v260q-268 8 -372.5 -37t-104.5 -163v-11z" />
<glyph unicode="&#xe1;" d="M76 303v10q0 190 150.5 273.5t508.5 62.5v70q0 139 -54 202.5t-171 63.5q-170 0 -223 -164q-12 -31 -41 -14l-92 45q-27 14 -17 39q109 248 387 248q186 0 288.5 -108.5t102.5 -307.5v-700q0 -23 -26 -23h-123q-27 0 -27 23v108q-139 -152 -333 -151q-143 0 -236.5 90 t-93.5 233zM258 315q0 -80 54.5 -131t140.5 -51q166 0 282 133v260q-268 8 -372.5 -37t-104.5 -163v-11zM470 1258.5q-5 7.5 1 17.5l170 278q12 20 35 21h119q33 0 14 -29l-213 -282q-8 -12 -25 -13h-86q-10 0 -15 7.5z" />
<glyph unicode="&#xe2;" d="M76 303v10q0 190 150.5 273.5t508.5 62.5v70q0 139 -54 202.5t-171 63.5q-170 0 -223 -164q-12 -31 -41 -14l-92 45q-27 14 -17 39q109 248 387 248q186 0 288.5 -108.5t102.5 -307.5v-700q0 -23 -26 -23h-123q-27 0 -27 23v108q-139 -152 -333 -151q-143 0 -236.5 90 t-93.5 233zM258 315q0 -80 54.5 -131t140.5 -51q166 0 282 133v260q-268 8 -372.5 -37t-104.5 -163v-11zM285 1286l166 254q12 16 34 16h93q20 0 32 -16l164 -256q14 -20 -12 -20h-92q-20 0 -33 18l-107 184l-110 -186q-10 -16 -29 -16h-94q-26 -1 -12 22z" />
<glyph unicode="&#xe3;" d="M76 303v10q0 190 150.5 273.5t508.5 62.5v70q0 139 -54 202.5t-171 63.5q-170 0 -223 -164q-12 -31 -41 -14l-92 45q-27 14 -17 39q109 248 387 248q186 0 288.5 -108.5t102.5 -307.5v-700q0 -23 -26 -23h-123q-27 0 -27 23v108q-139 -152 -333 -151q-143 0 -236.5 90 t-93.5 233zM213 1384q23 41 69 81t105 46h41q51 -6 117.5 -49t95.5 -43q41 0 66.5 29t37 48.5t23.5 6.5l61 -61q10 -14 0 -25q-76 -131 -186 -131q-61 0 -133 47t-100 47q-66 0 -107 -75q-8 -14 -20 -2l-68 61q-6 6 -2 20zM258 315q0 -80 54.5 -131t140.5 -51q166 0 282 133 v260q-268 8 -372.5 -37t-104.5 -163v-11z" />
<glyph unicode="&#xe4;" d="M76 303v10q0 190 150.5 273.5t508.5 62.5v70q0 139 -54 202.5t-171 63.5q-170 0 -223 -164q-12 -31 -41 -14l-92 45q-27 14 -17 39q109 248 387 248q186 0 288.5 -108.5t102.5 -307.5v-700q0 -23 -26 -23h-123q-27 0 -27 23v108q-139 -152 -333 -151q-143 0 -236.5 90 t-93.5 233zM248 1315v172q0 33 28 33h109q31 0 31 -33v-170q0 -33 -31 -33h-109q-28 0 -28 31zM258 315q0 -80 54.5 -131t140.5 -51q166 0 282 133v260q-268 8 -372.5 -37t-104.5 -163v-11zM618 1315v172q0 33 29 33h109q29 0 28 -33v-170q0 -33 -28 -33h-109q-29 0 -29 31z " />
<glyph unicode="&#xe5;" d="M76 303v10q0 190 150.5 273.5t508.5 62.5v70q0 139 -54 202.5t-171 63.5q-170 0 -223 -164q-12 -31 -41 -14l-92 45q-27 14 -17 39q109 248 387 248q186 0 288.5 -108.5t102.5 -307.5v-700q0 -23 -26 -23h-123q-27 0 -27 23v108q-139 -152 -333 -151q-143 0 -236.5 90 t-93.5 233zM258 315q0 -80 54.5 -131t140.5 -51q166 0 282 133v260q-268 8 -372.5 -37t-104.5 -163v-11zM332 1421q0 76 51 126t127 50q78 0 129 -49t51 -127q0 -74 -52 -124t-128 -50q-78 0 -128 50t-50 124zM426 1421q0 -37 23.5 -60.5t60.5 -23.5q35 0 60.5 24.5 t25.5 59.5q0 39 -23.5 61.5t-62.5 22.5q-37 0 -60.5 -24.5t-23.5 -59.5z" />
<glyph unicode="&#xe6;" horiz-adv-x="1693" d="M74 303v10q0 190 148.5 270.5t510.5 65.5v88q0 115 -59.5 181.5t-173.5 66.5q-166 0 -230 -158q-12 -27 -41 -12l-90 47q-25 12 -16 39q111 238 381 238q207 0 327 -152q117 152 338 152q219 0 328 -129t109 -346v-125q0 -47 -52 -47h-639v-74q0 -285 265 -285 q188 0 258 154q12 31 43 14l90 -45q31 -16 14 -47q-49 -104 -154.5 -166.5t-250.5 -62.5q-260 0 -371 174q-184 -174 -387 -174q-154 0 -251 90t-97 233zM256 315q0 -80 54.5 -131t140.5 -51t165.5 41t135.5 105q-18 57 -19 174v73q-268 8 -372.5 -37t-104.5 -163v-11z M915 629h515v84q0 123 -70 198.5t-190.5 75.5t-187.5 -75.5t-67 -211.5v-71z" />
<glyph unicode="&#xe7;" horiz-adv-x="1019" d="M109 414v293q0 207 122.5 319.5t313.5 112.5q156 0 260 -79t135 -216q6 -31 -20 -39l-109 -29q-31 -10 -39 19q-14 82 -70.5 136t-156.5 54q-115 0 -184.5 -72.5t-69.5 -222.5v-266q0 -145 67.5 -218t186.5 -73q186 0 237 164q12 35 47 16l86 -45q29 -12 21 -43 q-84 -223 -348 -243v-80q78 -2 125 -46t47 -106v-18q0 -66 -56.5 -115t-154.5 -49t-189 63q-16 16 -6 31l31 49q8 14 23 6q63 -51 133 -51q92 0 92 72v8q0 41 -42 61.5t-120 12.5v164q-166 18 -264 127.5t-98 302.5z" />
<glyph unicode="&#xe8;" horiz-adv-x="1073" d="M109 412v297q0 197 120.5 313.5t313.5 116.5q207 0 321.5 -115t114.5 -342v-141q0 -49 -51 -49h-639v-80q0 -129 65.5 -204t196.5 -75q190 0 262 154q12 29 41 14l88 -43q31 -16 16 -47q-109 -231 -407 -231q-213 0 -327.5 115.5t-114.5 316.5zM246 1546q-18 29 14 29 h119q23 0 35 -21l170 -278q6 -10 1 -17.5t-16 -7.5h-86q-16 0 -24 13zM289 629h512v80q0 129 -64.5 202.5t-193.5 73.5q-117 0 -185.5 -74.5t-68.5 -201.5v-80z" />
<glyph unicode="&#xe9;" horiz-adv-x="1073" d="M109 412v297q0 197 120.5 313.5t313.5 116.5q207 0 321.5 -115t114.5 -342v-141q0 -49 -51 -49h-639v-80q0 -129 65.5 -204t196.5 -75q190 0 262 154q12 29 41 14l88 -43q31 -16 16 -47q-109 -231 -407 -231q-213 0 -327.5 115.5t-114.5 316.5zM289 629h512v80 q0 129 -64.5 202.5t-193.5 73.5q-117 0 -185.5 -74.5t-68.5 -201.5v-80zM490.5 1258.5q-5.5 7.5 1.5 17.5l170 278q14 20 36 21h117q33 0 14 -29l-213 -282q-8 -12 -24 -13h-86q-10 0 -15.5 7.5z" />
<glyph unicode="&#xea;" horiz-adv-x="1073" d="M109 412v297q0 197 120.5 313.5t313.5 116.5q207 0 321.5 -115t114.5 -342v-141q0 -49 -51 -49h-639v-80q0 -129 65.5 -204t196.5 -75q190 0 262 154q12 29 41 14l88 -43q31 -16 16 -47q-109 -231 -407 -231q-213 0 -327.5 115.5t-114.5 316.5zM289 629h512v80 q0 129 -64.5 202.5t-193.5 73.5q-117 0 -185.5 -74.5t-68.5 -201.5v-80zM315 1284l164 252q12 18 37 18h90q20 0 33 -18l166 -254q14 -20 -14 -20h-91q-25 0 -34 18l-107 182l-110 -184q-10 -16 -29 -16h-92q-27 -1 -13 22z" />
<glyph unicode="&#xeb;" horiz-adv-x="1073" d="M113 412v297q0 197 120.5 313.5t313.5 116.5q207 0 321.5 -115t114.5 -342v-141q0 -49 -51 -49h-639v-80q0 -129 65.5 -204t198.5 -75q188 0 260 154q12 29 41 14l88 -43q33 -18 17 -47q-106 -231 -406 -231q-215 0 -329.5 115.5t-114.5 316.5zM287 1321v172q0 31 26 31 h109q31 0 31 -33v-170q0 -33 -31 -33h-109q-26 0 -26 33zM293 629h514v80q0 127 -65.5 201.5t-194.5 74.5q-117 0 -185.5 -74.5t-68.5 -201.5v-80zM655 1321v172q0 31 29 31h109q31 0 30 -33v-170q0 -33 -30 -33h-109q-29 0 -29 33z" />
<glyph unicode="&#xec;" horiz-adv-x="475" d="M-53 1558.5q0 6.5 4 11.5t14 5h119q23 0 35 -21l170 -278q6 -10 1 -17.5t-16 -7.5h-86q-16 0 -24 13l-213 282q-4 6 -4 12.5zM147 27v1060q0 31 29 31h125q29 0 29 -28v-1061q0 -29 -29 -29h-127q-27 0 -27 27z" />
<glyph unicode="&#xed;" horiz-adv-x="475" d="M147 27v1060q0 31 29 31h125q29 0 29 -28v-1061q0 -29 -29 -29h-127q-27 0 -27 27zM184 1258.5q-4 7.5 2 17.5l170 278q12 20 35 21h119q14 0 17 -9.5t-5 -19.5l-211 -282q-12 -12 -26 -13h-86q-11 0 -15 7.5z" />
<glyph unicode="&#xee;" horiz-adv-x="475" d="M-6 1286l166 254q12 16 35 16h92q20 0 32 -16l164 -256q14 -20 -12 -20h-92q-20 0 -33 18l-106 184l-111 -186q-10 -16 -29 -16h-94q-22 -1 -12 22zM147 27v1060q0 31 29 31h125q29 0 29 -28v-1061q0 -29 -29 -29h-127q-27 0 -27 27z" />
<glyph unicode="&#xef;" horiz-adv-x="552" d="M8 1315v172q0 31 29 31h108q31 0 31 -33v-170q0 -31 -31 -31h-108q-29 0 -29 31zM184 27v1060q0 31 29 31h127q27 0 27 -28v-1061q0 -29 -29 -29h-125q-29 0 -29 27zM379 1315v172q0 31 29 31h106q31 0 31 -33v-170q0 -31 -31 -31h-106q-29 0 -29 31z" />
<glyph unicode="&#xf0;" horiz-adv-x="1191" d="M113 412v217q0 197 122.5 315.5t339.5 118.5q158 0 289 -105q-43 150 -186 293l-80 -86q-18 -16 -33 2l-71 64q-16 20 0 33l77 84q-76 63 -100 77q-33 18 -10 48l78 94q23 23 49 2q70 -61 100 -92l86 92q16 16 35 0l72 -68q16 -16 2 -33l-88 -92q141 -152 204.5 -322.5 t63.5 -422.5v-182q-2 -213 -136 -343.5t-345 -130.5q-227 0 -348 118t-121 319zM295 418q0 -154 83 -221.5t204 -67.5q125 0 212 76t87 223v190q0 135 -86 213t-211 78t-207 -75.5t-82 -221.5v-194z" />
<glyph unicode="&#xf1;" horiz-adv-x="1142" d="M147 23v1073q0 23 25 22h127q27 0 27 -22v-150q145 193 362 193q158 0 239 -96.5t81 -256.5v-763q0 -23 -27 -23h-129q-27 0 -27 23v708q0 119 -43 186.5t-157 67.5q-94 0 -173 -60.5t-122 -148.5v-753q0 -23 -58 -23h-100q-25 0 -25 23zM287 1364q-8 8 0 20 q23 43 68.5 83t105.5 46q14 2 41 -2q49 -6 115.5 -48t97.5 -42q33 0 56.5 17.5t30.5 36t19.5 30t20.5 -1.5l61 -61q10 -10 0 -25q-74 -129 -186 -129q-63 0 -135 47t-101 47q-63 0 -106 -77q-6 -12 -21 -2z" />
<glyph unicode="&#xf2;" horiz-adv-x="1138" d="M113 399v312q0 203 120.5 315.5t335.5 112.5q219 0 338 -113t119 -315v-303q0 -201 -121 -314.5t-338 -113.5q-215 0 -334.5 111t-119.5 308zM295 420q0 -287 272 -287q274 0 275 291v270q0 291 -275 291q-127 0 -199.5 -71.5t-72.5 -219.5v-274zM296 1563.5 q3 9.5 17 9.5h119q25 0 35 -19l170 -280q6 -10 2 -16.5t-16 -6.5h-84q-18 0 -27 13l-211 282q-8 8 -5 17.5z" />
<glyph unicode="&#xf3;" horiz-adv-x="1138" d="M113 399v312q0 203 120.5 315.5t335.5 112.5q219 0 338 -113t119 -315v-303q0 -201 -121 -314.5t-338 -113.5q-215 0 -334.5 111t-119.5 308zM295 420q0 -287 272 -287q274 0 275 291v270q0 291 -275 291q-127 0 -199.5 -71.5t-72.5 -219.5v-274zM518 1257.5 q-4 6.5 2 16.5l170 280q10 18 66 19h88q14 0 18 -9.5t-4 -17.5l-203 -268q-23 -27 -55 -27h-65q-13 0 -17 6.5z" />
<glyph unicode="&#xf4;" horiz-adv-x="1138" d="M113 399v312q0 203 120.5 315.5t335.5 112.5q219 0 338 -113t119 -315v-303q0 -201 -121 -314.5t-338 -113.5q-215 0 -334.5 111t-119.5 308zM295 420q0 -287 272 -287q274 0 275 291v270q0 291 -275 291q-127 0 -199.5 -71.5t-72.5 -219.5v-274zM326 1286l166 254 q12 16 34 16h92q20 0 33 -16l166 -256q14 -20 -14 -20h-90q-23 0 -35 18l-107 184l-110 -186q-10 -16 -29 -16h-94q-22 -1 -12 22z" />
<glyph unicode="&#xf5;" horiz-adv-x="1138" d="M113 399v312q0 203 120.5 315.5t335.5 112.5q219 0 338 -113t119 -315v-303q0 -201 -121 -314.5t-338 -113.5q-215 0 -334.5 111t-119.5 308zM272 1364q-8 8 0 20q23 43 69 83t105 46q14 2 39 -2q51 -6 118 -48t97 -42q33 0 56.5 17.5t31 36t19.5 30t20 -1.5l60 -61 q10 -10 2 -25q-74 -129 -187 -129q-63 0 -134.5 47t-100.5 47q-63 0 -107 -77q-8 -14 -20 -2zM295 420q0 -287 272 -287q274 0 275 291v270q0 291 -275 291q-127 0 -199.5 -71.5t-72.5 -219.5v-274z" />
<glyph unicode="&#xf6;" horiz-adv-x="1138" d="M113 399v312q0 203 120.5 315.5t335.5 112.5q219 0 338 -113t119 -315v-303q0 -201 -121 -314.5t-338 -113.5q-215 0 -334.5 111t-119.5 308zM295 420q0 -287 272 -287q274 0 275 291v270q0 291 -275 291q-127 0 -199.5 -71.5t-72.5 -219.5v-274zM311 1315v174 q0 31 27 31h108q31 0 31 -33v-170q0 -33 -31 -33h-108q-27 0 -27 31zM680 1315v174q0 31 29 31h108q31 0 31 -33v-170q0 -33 -31 -33h-108q-29 0 -29 31z" />
<glyph unicode="&#xf7;" horiz-adv-x="1185" d="M70 584v102q0 25 20 25h1006q23 0 22 -27v-100q0 -27 -22 -27h-1006q-20 0 -20 27zM512 150v217q0 31 29 30h110q31 0 31 -32v-213q0 -33 -31 -33h-110q-29 0 -29 31zM512 911v217q0 31 29 31h110q31 0 31 -33v-213q0 -33 -31 -32h-110q-29 -1 -29 30z" />
<glyph unicode="&#xf8;" horiz-adv-x="1140" d="M115 399v312q0 203 119.5 315.5t336.5 112.5q137 0 236 -47l47 79q10 20 35 21l88 -2q25 0 16 -21l-84 -145q117 -113 117 -313v-303q0 -201 -121 -314.5t-336 -113.5q-129 0 -227 40l-53 -96q-12 -18 -35 -18h-88q-33 0 -14 28l84 152q-121 108 -121 313zM297 420 q0 -100 39 -162l389 690q-61 37 -154 37q-129 0 -201.5 -71.5t-72.5 -219.5v-274zM422 162q68 -29 147 -29q129 0 202 71.5t73 219.5v270q0 94 -35 154z" />
<glyph unicode="&#xf9;" horiz-adv-x="1144" d="M135 311v785q0 23 25 22h133q25 0 24 -20v-756q0 -102 47.5 -155.5t131.5 -53.5q186 0 319 174v789q0 23 25 22h133q25 0 24 -20v-1075q0 -23 -22 -23h-131q-25 0 -25 23v127q-166 -170 -370 -170q-150 0 -232 86.5t-82 244.5zM284 1565.5q3 9.5 19 9.5h117q23 0 37 -21 l168 -278q6 -10 2 -17.5t-15 -7.5h-86q-14 0 -26 13l-211 282q-8 10 -5 19.5z" />
<glyph unicode="&#xfa;" horiz-adv-x="1144" d="M135 311v785q0 23 25 22h133q25 0 24 -20v-756q0 -102 47.5 -155.5t131.5 -53.5q186 0 319 174v789q0 23 25 22h133q25 0 24 -20v-1075q0 -23 -22 -23h-131q-25 0 -25 23v127q-166 -170 -370 -170q-150 0 -232 86.5t-82 244.5zM510 1258.5q-4 7.5 2 17.5l170 278 q12 20 35 21h119q14 0 17 -9.5t-5 -19.5l-211 -282q-12 -12 -27 -13h-86q-10 0 -14 7.5z" />
<glyph unicode="&#xfb;" horiz-adv-x="1144" d="M135 311v785q0 23 25 22h133q25 0 24 -20v-756q0 -102 47.5 -155.5t131.5 -53.5q186 0 319 174v789q0 23 25 22h133q25 0 24 -20v-1075q0 -23 -22 -23h-131q-25 0 -25 23v127q-166 -170 -370 -170q-150 0 -232 86.5t-82 244.5zM330 1286l166 254q12 16 34 16h93 q20 0 32 -16l164 -256q14 -20 -12 -20h-92q-20 0 -33 18l-107 184l-110 -186q-10 -16 -29 -16h-94q-22 -1 -12 22z" />
<glyph unicode="&#xfc;" horiz-adv-x="1144" d="M135 311v785q0 23 25 22h133q25 0 24 -20v-756q0 -102 47.5 -155.5t131.5 -53.5q186 0 319 174v789q0 23 25 22h133q25 0 24 -20v-1075q0 -23 -22 -23h-131q-25 0 -25 23v127q-166 -170 -370 -170q-150 0 -232 86.5t-82 244.5zM303 1315v174q0 31 29 31h108q29 0 29 -33 v-170q0 -33 -29 -33h-108q-29 0 -29 31zM674 1315v174q0 31 26 31h109q31 0 31 -33v-170q0 -33 -31 -33h-109q-26 0 -26 31z" />
<glyph unicode="&#xfd;" horiz-adv-x="935" d="M-2 1096q-8 23 16 22h160q18 0 25 -18l278 -875l279 873q6 20 24 20h148q23 0 16 -22l-399 -1123q-98 -276 -314 -405q-27 -16 -43 4l-71 90q-23 27 4 41q174 88 258 311zM416 1274l170 280q10 18 35 19h118q16 0 19.5 -9.5t-4.5 -17.5l-213 -282q-6 -12 -25 -13h-86 q-26 0 -14 23z" />
<glyph unicode="&#xfe;" horiz-adv-x="1161" d="M147 -399v1912q0 23 25 23h129q25 0 25 -23v-575q47 76 138 138.5t210 62.5q188 0 283.5 -116t95.5 -308v-299q0 -205 -113 -320.5t-278 -115.5q-221 0 -330 155v-534q0 -23 -25 -23h-135q-25 0 -25 23zM332 406q0 -119 74.5 -196t201.5 -77q121 0 191.5 73t70.5 226v254 q0 297 -239 297q-123 0 -211 -93t-88 -237v-247z" />
<glyph unicode="&#xff;" horiz-adv-x="935" d="M-2 1096q-8 23 16 22h160q18 0 25 -18l278 -875l279 873q6 20 24 20h148q23 0 16 -22l-399 -1123q-98 -276 -314 -405q-27 -16 -43 4l-71 90q-23 27 4 41q174 88 258 311zM223 1319v172q0 31 29 31h108q29 0 29 -33v-170q0 -31 -29 -31h-108q-29 0 -29 31zM594 1319v172 q0 31 27 31h108q31 0 31 -33v-170q0 -31 -31 -31h-108q-27 0 -27 31z" />
<glyph unicode="&#x152;" horiz-adv-x="1923" d="M141 461v569q0 223 143.5 355.5t397.5 132.5q231 0 352 -148v127h768q23 0 23 -27v-114q0 -25 -23 -25h-579v-485h528q23 0 23 -27v-110q0 -25 -23 -25h-528v-518h579q23 0 23 -25v-116q0 -25 -21 -25h-770v135q-113 -158 -352 -158q-256 0 -398.5 129.5t-142.5 354.5z M332 479q0 -156 91 -245t259 -89t260 88.5t92 243.5v547q-4 152 -96 239t-256 87q-168 0 -259 -89.5t-91 -244.5v-537z" />
<glyph unicode="&#x153;" horiz-adv-x="1812" d="M113 395v316q0 193 126 310.5t332 117.5q240 0 373 -162q125 162 340 162q217 0 326.5 -128t109.5 -376v-100q0 -43 -45 -43h-643v-101q4 -119 70.5 -188.5t191.5 -69.5q197 0 258 154q10 31 43 14l95 -45q33 -14 14 -47q-49 -106 -154.5 -167.5t-255.5 -61.5 q-240 0 -352 155q-115 -156 -371 -155q-217 0 -337.5 109t-120.5 306zM295 412q0 -279 276 -279q279 0 279 289v278q-6 141 -71.5 213t-205.5 72q-135 0 -206.5 -72.5t-71.5 -216.5v-284zM1032 629h512v80q0 125 -70.5 201.5t-189.5 76.5q-115 0 -183.5 -73.5t-68.5 -196.5 v-88z" />
<glyph unicode="&#x178;" horiz-adv-x="1120" d="M0 1473q-14 25 10 24h166q16 0 27 -18l360 -693l357 693q10 18 26 18h162q12 0 16 -8t-2 -16l-467 -861v-589q0 -23 -22 -23h-146q-23 0 -22 23v587zM303 1720v172q0 31 29 31h108q31 0 31 -31v-170q0 -33 -31 -32h-108q-29 -1 -29 30zM674 1720v172q0 31 28 31h109 q29 0 29 -31v-170q0 -33 -29 -32h-109q-28 -1 -28 30z" />
<glyph unicode="&#x2c6;" horiz-adv-x="788" d="M150 1286l165 252q12 18 35 18h92q20 0 33 -18l164 -254q14 -23 -12 -22h-90q-23 0 -35 18l-107 184l-110 -184q-10 -18 -29 -18h-94q-24 -1 -12 24z" />
<glyph unicode="&#x2dc;" horiz-adv-x="927" d="M154 1382q23 41 68.5 81t105.5 46h41q51 -6 116.5 -49t96.5 -43q41 0 66.5 29t36.5 48t24 7l61 -63q10 -10 0 -25q-74 -129 -186 -129q-61 0 -133 47t-101 47q-63 0 -106 -78q-8 -12 -21 -2l-67 62q-10 8 -2 22z" />
<glyph unicode="&#x2000;" horiz-adv-x="987" />
<glyph unicode="&#x2001;" horiz-adv-x="1974" />
<glyph unicode="&#x2002;" horiz-adv-x="987" />
<glyph unicode="&#x2003;" horiz-adv-x="1974" />
<glyph unicode="&#x2004;" horiz-adv-x="657" />
<glyph unicode="&#x2005;" horiz-adv-x="493" />
<glyph unicode="&#x2006;" horiz-adv-x="327" />
<glyph unicode="&#x2007;" horiz-adv-x="327" />
<glyph unicode="&#x2008;" horiz-adv-x="245" />
<glyph unicode="&#x2009;" horiz-adv-x="393" />
<glyph unicode="&#x200a;" horiz-adv-x="108" />
<glyph unicode="&#x2010;" horiz-adv-x="935" d="M119 565v99q0 25 22 24h654q23 0 22 -24v-99q0 -25 -24 -24h-652q-22 -1 -22 24z" />
<glyph unicode="&#x2011;" horiz-adv-x="935" d="M119 565v99q0 25 22 24h654q23 0 22 -24v-99q0 -25 -24 -24h-652q-22 -1 -22 24z" />
<glyph unicode="&#x2012;" horiz-adv-x="935" d="M119 565v99q0 25 22 24h654q23 0 22 -24v-99q0 -25 -24 -24h-652q-22 -1 -22 24z" />
<glyph unicode="&#x2013;" horiz-adv-x="1097" d="M119 557v94q0 25 22 25h820q20 0 20 -25v-94q0 -25 -23 -25h-817q-22 0 -22 25z" />
<glyph unicode="&#x2014;" horiz-adv-x="2123" d="M119 557v94q0 25 22 25h1844q20 0 20 -25v-94q0 -25 -23 -25h-1841q-22 0 -22 25z" />
<glyph unicode="&#x2018;" horiz-adv-x="468" d="M125 1059q0 328 217 481q18 12 35 -2l39 -41q18 -23 -2 -39q-72 -70 -90.5 -140.5t-18.5 -258.5q0 -23 -26 -23h-127q-27 0 -27 23z" />
<glyph unicode="&#x2019;" horiz-adv-x="487" d="M72 1049q-18 23 2 38q72 70 90 140.5t18 259.5q0 23 25 22h129q27 0 26 -22q0 -328 -217 -481q-18 -12 -34 2z" />
<glyph unicode="&#x201a;" horiz-adv-x="417" d="M39 -203q-23 18 2 39q70 68 89.5 149t19.5 269q0 25 24 25h129q25 0 25 -25q0 -348 -217 -500q-18 -12 -33 2z" />
<glyph unicode="&#x201c;" horiz-adv-x="831" d="M125 1065q0 326 217 479q18 12 35 -2l39 -41q20 -20 -2 -39q-72 -68 -90.5 -139.5t-18.5 -257.5q0 -23 -26 -23h-127q-27 0 -27 23zM489 1065q0 328 218 479q18 12 32 -2l39 -41q20 -18 0 -39q-74 -68 -92 -140.5t-18 -256.5q0 -23 -25 -23h-129q-25 0 -25 23z" />
<glyph unicode="&#x201d;" horiz-adv-x="843" d="M66 1053q-23 18 0 39q72 68 90 139.5t18 257.5q0 23 27 22h127q27 0 26 -22q0 -326 -217 -479q-16 -12 -35 2zM428 1053q-23 18 2 39q72 68 90.5 140.5t18.5 256.5q0 23 24 22h129q25 0 25 -22q0 -328 -215 -479q-20 -12 -35 2z" />
<glyph unicode="&#x201e;" horiz-adv-x="782" d="M39 -225q-20 20 2 39q72 70 90.5 141.5t18.5 257.5q0 23 24 23h129q25 0 25 -23q0 -330 -217 -481q-18 -12 -33 2zM406 -186q72 70 90 140.5t18 258.5q0 23 27 23h127q27 0 26 -23q0 -328 -217 -481q-16 -12 -35 2l-36 41q-20 21 0 39z" />
<glyph unicode="&#x2022;" horiz-adv-x="802" d="M131 651q0 113 79 193t191 80q117 0 194 -78t77 -195q0 -111 -79 -190.5t-192 -79.5q-117 0 -193.5 77.5t-76.5 192.5z" />
<glyph unicode="&#x2026;" horiz-adv-x="1333" d="M123 31v215q0 33 29 33h110q31 0 31 -33v-213q0 -33 -31 -33h-110q-29 0 -29 31zM811 31v215q0 33 29 33h110q31 0 31 -33v-213q0 -33 -31 -33h-110q-29 0 -29 31zM815 31v215q0 33 27 33h110q31 0 31 -33v-213q0 -33 -31 -33h-110q-27 0 -27 31z" />
<glyph unicode="&#x202f;" horiz-adv-x="393" />
<glyph unicode="&#x2039;" horiz-adv-x="663" d="M100 602l318 457q16 29 41 10l90 -57q23 -14 6 -35l-260 -373l260 -373q16 -20 -6 -36l-90 -56q-25 -18 -41 8z" />
<glyph unicode="&#x203a;" horiz-adv-x="663" d="M125 231l260 373l-260 373q-18 23 8 35l88 57q23 18 43 -10l316 -457l-316 -455q-20 -25 -43 -8l-88 56q-24 16 -8 36z" />
<glyph unicode="&#x205f;" horiz-adv-x="493" />
<glyph unicode="&#x20ac;" horiz-adv-x="1304" d="M72 565v92q0 27 22 27h152v143h-152q-23 0 -22 27v92q0 27 22 27h152v67q0 213 134 344.5t359 131.5q201 0 328 -91.5t168 -232.5q12 -43 -25 -53l-104 -35q-29 -10 -41 20q-70 231 -326 232q-154 0 -229.5 -85t-75.5 -235v-63h395q25 0 25 -27v-92q0 -27 -25 -27h-395 v-143h397q23 0 23 -27v-92q0 -25 -25 -24h-393v-82q0 -324 303 -324q262 0 326 230q12 37 49 22l96 -37q35 -10 17 -63q-119 -309 -488 -310q-231 0 -362 127t-131 361v76h-152q-22 -1 -22 24z" />
<glyph unicode="&#x2122;" horiz-adv-x="1099" d="M31 1436v47q0 14 10 14h414q10 0 10 -14v-47q0 -18 -10 -19h-158v-493q0 -12 -14 -13h-74q-10 0 -10 13v493h-158q-10 1 -10 19zM528 922v565q0 10 11 10h108q10 0 12 -8l84 -275q39 -133 45 -163q10 45 50 163l80 275q2 8 14 8h104q12 0 13 -10v-565q0 -10 -9 -11h-79 q-8 0 -9 11v311q0 86 2 100l-127 -411q-4 -10 -12 -11h-53q-8 0 -12 11l-129 413q2 -29 2 -90v-323q0 -10 -11 -11h-75q-9 1 -9 11z" />
<glyph unicode="&#xe000;" horiz-adv-x="1120" d="M0 1120h1120v-1120h-1120v1120z" />
<glyph unicode="&#xfb01;" horiz-adv-x="1132" d="M74 952v105q0 23 18 22h121v88q0 172 98.5 270.5t270.5 98.5q242 0 356 -158q16 -23 -4 -41l-82 -67q-20 -16 -35 2q-84 111 -221 110q-102 0 -151.5 -52t-49.5 -173v-78h572q18 0 18 -22v-1028q0 -29 -27 -29h-129q-27 0 -26 27v903h-408v-907q0 -23 -24 -23h-133 q-25 0 -25 23v907h-121q-18 -1 -18 22z" />
<glyph unicode="&#xfb02;" horiz-adv-x="1132" d="M74 954v101q0 25 20 24h119v101q0 156 111.5 253t277.5 97q201 0 359 -117q25 -18 24 -49v-1337q0 -27 -27 -27h-131q-25 0 -24 27v1290q-74 70 -201 69q-104 0 -155.5 -62t-51.5 -150v-95h197q18 0 18 -22v-105q0 -23 -18 -22h-197v-912q0 -18 -22 -18h-137 q-23 0 -23 18v912h-119q-20 -1 -20 24z" />
<glyph unicode="&#xfb03;" horiz-adv-x="1921" d="M1593 27v1060q0 31 29 31h125q29 0 29 -28v-1061q0 -29 -29 -29h-127q-27 0 -27 27zM1593 1313v192q0 31 27 31h125q31 0 31 -31v-192q0 -33 -31 -33h-125q-27 0 -27 33zM797 956v99q0 25 20 24h119v113q0 168 82 256t231 88q156 0 256 -119q7 -9 8 -18q0 -11 -12 -23 l-76 -71q-18 -18 -32 4q-49 74 -142 73q-133 0 -133 -170v-133h293q23 0 23 -24v-99q0 -27 -25 -26h-291v-907q0 -23 -24 -23h-133q-25 0 -25 23v907h-119q-20 -1 -20 26zM74 956v99q0 25 20 24h119v113q0 168 82 256t231 88q156 0 256 -119q7 -9 8 -18q0 -11 -12 -23 l-76 -71q-18 -18 -32 4q-49 74 -142 73q-133 0 -133 -170v-133h293q23 0 23 -24v-99q0 -27 -25 -26h-291v-907q0 -23 -24 -23h-133q-25 0 -25 23v907h-119q-20 -1 -20 26z" />
<glyph unicode="&#xfb04;" horiz-adv-x="1925" d="M1593 27v1482q0 27 29 27h127q29 0 29 -29v-1480q0 -27 -29 -27h-127q-29 0 -29 27zM797 956v99q0 25 20 24h119v113q0 168 82 256t231 88q156 0 256 -119q7 -9 8 -18q0 -11 -12 -23l-76 -71q-18 -18 -32 4q-49 74 -142 73q-133 0 -133 -170v-133h293q23 0 23 -24v-99 q0 -27 -25 -26h-291v-907q0 -23 -24 -23h-133q-25 0 -25 23v907h-119q-20 -1 -20 26zM74 956v99q0 25 20 24h119v113q0 168 82 256t231 88q156 0 256 -119q7 -9 8 -18q0 -11 -12 -23l-76 -71q-18 -18 -32 4q-49 74 -142 73q-133 0 -133 -170v-133h293q23 0 23 -24v-99 q0 -27 -25 -26h-291v-907q0 -23 -24 -23h-133q-25 0 -25 23v907h-119q-20 -1 -20 26z" />
</font>
</defs>
</svg>
