<?xml version="1.0" standalone="no"?>
<!DOCTYPE svg PUBLIC "-//W3C//DTD SVG 1.1//EN" "http://www.w3.org/Graphics/SVG/1.1/DTD/svg11.dtd" >
<svg xmlns="http://www.w3.org/2000/svg">
<metadata>
This is a custom SVG webfont generated by Font Squirrel.
Copyright   : Copyright c 2010 Miles Newlyn All rights reserved
Designer    : Miles Newlyn
</metadata>
<defs>
<font id="FrankItalic" horiz-adv-x="1302" >
<font-face units-per-em="2048" ascent="1536" descent="-512" />
<missing-glyph horiz-adv-x="378" />
<glyph unicode=" "  horiz-adv-x="378" />
<glyph unicode="&#x09;" horiz-adv-x="378" />
<glyph unicode="&#xa0;" horiz-adv-x="378" />
<glyph unicode="!" horiz-adv-x="538" d="M100 31l29 172q2 31 31 30h110q31 0 25 -32l-27 -170q-2 -31 -32 -31h-111q-31 0 -25 31zM186 465l138 1016q4 23 24 22h131q25 0 21 -22l-183 -1016q-2 -20 -26 -21h-86q-21 1 -19 21z" />
<glyph unicode="&#x22;" horiz-adv-x="620" d="M135 958l51 515q2 23 25 22h135q20 0 16 -22l-110 -517q-2 -14 -25 -14h-71q-21 0 -21 16zM461 958l51 515q2 23 25 22h133q25 0 18 -22l-108 -517q-2 -14 -27 -14h-74q-18 0 -18 16z" />
<glyph unicode="#" horiz-adv-x="1327" d="M72 496l14 86q2 25 31 24h211l67 316h-205q-25 0 -22 24l16 86q2 25 27 25h215l94 434q4 18 25 18h117q18 0 14 -18l-94 -434h303l94 434q4 18 25 18h116q18 0 15 -16l-95 -436h193q27 0 22 -27l-14 -84q-6 -25 -29 -24h-204l-66 -316h193q29 0 22 -26l-14 -84 q-2 -25 -31 -25h-201l-96 -451q-6 -20 -27 -20h-110q-23 0 -16 20l96 451h-303l-97 -453q-6 -18 -26 -18h-115q-18 0 -14 18l94 453h-203q-28 0 -22 25zM481 606h305l68 316h-305z" />
<glyph unicode="$" horiz-adv-x="1087" d="M37 332q-12 35 16 45l111 41q29 14 41 -21q23 -86 102.5 -147.5t198.5 -61.5t194.5 61.5t75.5 168.5q0 47 -19.5 85t-71.5 79t-89 63.5t-127 73.5q-276 158 -276 373q0 143 102 247.5t293 118.5l24 152q6 27 31 26h131q31 0 25 -28l-27 -164q117 -29 198 -110t103 -187 q6 -39 -22 -45l-107 -27q-27 -6 -37 27q-23 90 -99.5 142t-180.5 52q-109 0 -177.5 -51t-68.5 -143q0 -68 57.5 -124t188.5 -134q174 -102 260 -192.5t86 -227.5q0 -170 -115 -275.5t-307 -121.5l-25 -156q-2 -27 -32 -27h-132q-25 0 -22 27l27 166q-240 51 -330 295z" />
<glyph unicode="%" horiz-adv-x="1462" d="M109 995l45 289q16 115 96 172t207 57q117 0 184.5 -59t50.5 -170l-45 -289q-37 -227 -307 -227q-117 0 -183 58t-48 169zM143 25l992 1450q16 20 39 20h112q25 0 12 -20l-993 -1457q-14 -18 -37 -18h-110q-29 0 -15 25zM256 995q-16 -104 104.5 -104t137.5 104l45 289 q16 106 -107 107q-117 0 -137 -109zM770 209l47 293q18 115 98 174t207 59q115 0 182.5 -61.5t49.5 -171.5l-45 -293q-37 -229 -308 -229q-117 0 -183 59t-48 170zM918 209q-20 -106 102.5 -106.5t138.5 106.5l45 293q8 55 -20.5 83.5t-81.5 28.5q-55 0 -92 -28.5t-45 -83.5 z" />
<glyph unicode="&#x26;" horiz-adv-x="1333" d="M53 379q0 170 107.5 303t261.5 213q-123 162 -123 297q0 137 99.5 232.5t267.5 95.5q150 0 228.5 -83t94.5 -196q4 -33 -26 -37l-97 -16q-29 -8 -35 26q-27 160 -174 160q-84 0 -137 -52t-53 -122q0 -53 42 -131t91 -139.5t132 -161.5t120 -147q84 -106 137 -185 q33 80 39 207q0 31 -2 62.5t-6 48.5l-2 14q-4 29 22 29h113q27 0 29 -27q12 -70 4 -162q-10 -178 -105 -321q100 -186 101 -320q0 -190 -152 -323q-27 -25 -49 0l-59 53q-25 25 4 51q98 88 98 215q0 86 -59 199q-186 -182 -451 -182q-207 0 -334 114.5t-127 284.5zM233 401 q0 -123 84 -195.5t215 -72.5q221 0 359 160q-49 76 -176 231l-207 262q-275 -143 -275 -385z" />
<glyph unicode="'" horiz-adv-x="294" d="M135 958l51 515q4 23 25 22h135q20 0 16 -22l-110 -517q-2 -14 -25 -14h-71q-21 0 -21 16z" />
<glyph unicode="(" horiz-adv-x="692" d="M115 412q0 301 115.5 610t326.5 508q23 23 41 6l82 -74q18 -12 0 -30q-184 -176 -286.5 -456t-102.5 -560q0 -313 125 -545q10 -18 -19 -37l-78 -49q-33 -23 -49 2q-59 98 -107 262t-48 363z" />
<glyph unicode=")" horiz-adv-x="706" d="M57 -121q184 176 288 456.5t104 559.5q0 311 -127 545q-10 18 18 37l76 51q35 23 47 -2q160 -272 160 -627q0 -301 -116 -610t-327 -508q-23 -27 -41 -8l-82 75q-16 17 0 31z" />
<glyph unicode="*" horiz-adv-x="665" d="M111 1231l41 92q10 20 30 14l195 -96l16 240q2 23 27 22h104q20 0 17 -22l-58 -240l219 92q23 10 27 -12l14 -94q4 -25 -18 -31l-227 -55l125 -180q12 -20 -9 -33l-82 -58q-27 -16 -38 7l-93 202l-153 -200q-16 -23 -37 -9l-66 62q-16 14 2 33l181 176l-209 59 q-20 6 -8 31z" />
<glyph unicode="+" horiz-adv-x="1216" d="M94 580v94q0 29 29 28h403v410q0 27 27 27h113q27 0 26 -27v-410h404q27 0 26 -28v-94q0 -29 -26 -29h-404v-418q0 -27 -26 -27h-113q-27 0 -27 27v418h-403q-29 0 -29 29z" />
<glyph unicode="," horiz-adv-x="456" d="M-51 -199q-16 20 4 35q80 66 111.5 148t60.5 268q4 25 31 24h125q25 0 18 -24q-55 -348 -289 -496q-20 -12 -33 2z" />
<glyph unicode="-" horiz-adv-x="829" d="M66 559l16 98q4 25 24 25h639q23 0 19 -25l-14 -98q-4 -25 -27 -24h-637q-26 -1 -20 24z" />
<glyph unicode="." horiz-adv-x="389" d="M25 33l32 211q2 33 31 32h121q29 0 22 -32l-32 -211q-6 -33 -33 -33h-119q-28 0 -22 33z" />
<glyph unicode="/" horiz-adv-x="892" d="M-2 29l815 1446q12 20 37 20h117q25 0 14 -20l-821 -1457q-8 -18 -35 -18h-115q-26 0 -12 29z" />
<glyph unicode="0" horiz-adv-x="1251" d="M111 348q0 57 8 113l90 571q74 471 555 471q199 0 310.5 -99t111.5 -267q0 -57 -8 -109l-93 -582q-76 -469 -557 -469q-195 0 -306 103.5t-111 267.5zM297 356q0 -94 65.5 -152.5t190.5 -58.5q301 0 348 316l88 557q6 49 6 96q0 100 -65.5 160.5t-190.5 60.5 q-297 0 -348 -317l-86 -553q-8 -52 -8 -109z" />
<glyph unicode="1" horiz-adv-x="1007" d="M66 25l18 116q4 23 25 23h266l164 1042l-310 -37q-10 -2 -16 3.5t-4 17.5l4 94q0 20 16 23q289 66 338 94q39 25 82 82h119l-207 -1319h273q20 0 16 -23l-16 -116q-4 -25 -27 -25h-723q-24 0 -18 25z" />
<glyph unicode="2" horiz-adv-x="1255" d="M59 0l23 143q33 217 141.5 344t407.5 271q92 45 140 70.5t110.5 72.5t89 101.5t26.5 121.5q0 96 -64.5 153.5t-174.5 57.5q-217 0 -324 -194q-23 -37 -53 -25l-90 41q-27 14 -12 45q74 147 201.5 224t293.5 77q188 0 298 -104.5t110 -263.5q0 -96 -33 -173t-105.5 -139.5 t-149.5 -107.5t-200 -103q-238 -111 -314.5 -191.5t-96.5 -203.5l-9 -53h752q18 0 18 -25l-18 -112q-4 -27 -25 -27h-942z" />
<glyph unicode="3" horiz-adv-x="1204" d="M63 305q-8 31 19 41l111 39q33 12 43 -20q25 -96 99.5 -158t205.5 -62t212 63.5t97 174.5l6 47q16 109 -50.5 185.5t-203.5 76.5h-92q-20 0 -16 23l16 110q4 25 25 25h98q119 0 197.5 57.5t93.5 153.5l8 51q12 100 -49.5 161.5t-175.5 61.5q-215 0 -316 -172 q-18 -31 -41 -20l-100 43q-31 10 -10 43q150 274 489 274q182 0 297 -115.5t88 -281.5l-8 -51q-18 -111 -96 -186.5t-179 -96.5q102 -29 162 -126t45 -218l-6 -51q-23 -182 -160 -291t-352 -109q-184 0 -304 97.5t-153 230.5z" />
<glyph unicode="4" horiz-adv-x="1187" d="M68 487q0 18 12 33l844 977q20 25 39 6l88 -76q18 -16 -2 -41l-736 -849h394l49 276q2 23 28 23h131q25 0 23 -23l-45 -276h172q23 0 18 -25l-18 -115q-4 -25 -27 -24h-172l-55 -361q-6 -25 -29 -24h-135q-25 0 -22 24l57 361h-590q-18 0 -18 20z" />
<glyph unicode="5" horiz-adv-x="1212" d="M78 301q-8 35 22 49l103 37q37 14 47 -22q57 -219 299 -220q139 0 222 84t108 238l6 43q16 129 -38 218t-190 89q-176 0 -297 -151q-20 -20 -45 -11l-88 50q-18 10 -12 34l168 744h723q23 0 18 -25l-16 -112q-4 -27 -27 -27h-565l-110 -477l4 -2q127 131 323 131 q186 0 274.5 -135.5t63.5 -323.5l-8 -66q-31 -219 -169 -344t-359 -125q-188 0 -305 98.5t-152 225.5z" />
<glyph unicode="6" horiz-adv-x="1257" d="M119 455l86 557q39 242 183 366.5t388 124.5q176 0 278.5 -89t127.5 -206q8 -35 -19 -43l-119 -35q-27 -8 -34 21q-16 80 -82 131t-176 51q-147 0 -244.5 -89t-124.5 -273l-27 -174q55 74 158.5 125t216.5 51q193 0 302.5 -124t74.5 -335l-12 -74q-35 -219 -179.5 -341 t-375.5 -122q-223 0 -338 136.5t-84 341.5zM303 438q-20 -129 50.5 -211t211.5 -82q135 0 231.5 85t116.5 225l7 45q23 147 -39 232t-195 85q-145 0 -248.5 -87t-126.5 -232z" />
<glyph unicode="7" horiz-adv-x="1017" d="M147 25q43 268 256 635.5t463 658.5h-645q-23 0 -18 24l16 117q4 23 29 23h831q25 0 21 -25l-10 -86q-2 -20 -25 -45q-262 -305 -475 -671.5t-254 -630.5q-2 -25 -27 -25h-139q-25 0 -23 25z" />
<glyph unicode="8" horiz-adv-x="1265" d="M98 401l6 43q23 139 113 229.5t213 121.5q-94 31 -141 115.5t-31 189.5l6 35q27 170 158 269t354 99q203 0 310.5 -104.5t84.5 -268.5l-4 -32q-18 -123 -94 -202t-174 -99q104 -33 170 -122t47 -229l-8 -53q-27 -190 -176.5 -303t-392.5 -113q-231 0 -351.5 122 t-89.5 302zM287 412q-18 -119 51.5 -194t224.5 -75q319 0 363 265l4 28q23 129 -50 201t-227 72q-319 0 -362 -269zM438 1098q-18 -109 46.5 -171.5t191.5 -62.5q129 0 213 61.5t100 174.5l2 26q12 96 -47 156.5t-192 60.5q-268 0 -308 -217z" />
<glyph unicode="9" horiz-adv-x="1228" d="M98 215q-16 35 11 45l108 53q25 12 41 -18q33 -63 103.5 -107.5t170.5 -44.5q297 0 355 351l26 161q-53 -74 -149 -116.5t-209 -42.5q-205 0 -309.5 139t-73.5 340l10 65q31 205 172.5 334t380.5 129q225 0 340 -135t80 -358l-86 -533q-39 -256 -184.5 -378t-364.5 -122 q-287 0 -422 238zM358 977q-23 -152 38 -240t202 -88q145 0 241.5 82t118.5 219l11 70q23 150 -47 232.5t-211 82.5q-139 0 -231.5 -76.5t-112.5 -224.5z" />
<glyph unicode=":" horiz-adv-x="434" d="M49 33l33 211q2 33 31 32h120q29 0 23 -32l-33 -211q-6 -33 -33 -33h-118q-29 0 -23 33zM178 866l33 211q2 31 31 31h120q29 0 23 -31l-33 -211q-6 -33 -33 -32h-118q-27 -1 -23 32z" />
<glyph unicode=";" horiz-adv-x="458" d="M-70 -199q-14 18 4 35q80 66 112 148t60 268q4 25 31 24h125q25 0 21 -24q-57 -352 -291 -496q-20 -12 -31 2zM203 866l33 211q2 31 30 31h121q29 0 23 -31l-33 -211q-2 -33 -33 -32h-119q-26 -1 -22 32z" />
<glyph unicode="&#x3c;" horiz-adv-x="1034" d="M115 571v109q0 25 22 31l713 252q31 12 31 -25v-109q0 -25 -23 -30l-541 -172l541 -172q23 -6 23 -33v-107q0 -37 -41 -22l-703 248q-22 3 -22 30z" />
<glyph unicode="=" horiz-adv-x="1048" d="M125 424v100q0 25 20 25h758q23 0 23 -25v-100q0 -25 -25 -25h-754q-22 0 -22 25zM125 731v103q0 25 20 24h758q23 0 23 -24v-103q0 -25 -25 -24h-754q-22 -1 -22 24z" />
<glyph unicode="&#x3e;" horiz-adv-x="1034" d="M156 315v107q0 27 20 33l543 172l-543 172q-20 6 -20 30v109q0 35 30 25l713 -252q23 -6 23 -31v-109q0 -27 -23 -30l-702 -248q-41 -15 -41 22z" />
<glyph unicode="?" horiz-adv-x="915" d="M172 1311q-12 14 10 43q162 166 387 166q147 0 235.5 -86t88.5 -209q0 -45 -4 -68q-12 -78 -57.5 -149.5t-102.5 -125t-113.5 -106.5t-101.5 -116.5t-57 -131.5l-11 -55q-2 -33 -34 -33h-105q-27 0 -22 31l12 66q12 80 56 151.5t99.5 125.5t109.5 104.5t96 108.5t53 118 q4 33 4 49q-4 170 -189 170q-141 0 -252 -125q-23 -29 -41 -2zM217 31l27 170q8 33 32 32h105q31 0 25 -32l-27 -168q-6 -33 -35 -33h-102q-29 0 -25 31z" />
<glyph unicode="@" horiz-adv-x="1648" d="M82 451l43 280q43 274 251 453.5t580 179.5q340 0 497 -167t118 -411l-51 -311q-51 -322 -318 -321q-98 0 -153.5 60t-59.5 138q-117 -203 -323 -202q-102 0 -163 63t-61 154q0 68 9 114l34 234q25 156 124.5 244t256.5 88q178 0 332 -101l-80 -516q-23 -154 105 -154 q63 0 105 47.5t56 133.5l50 315q35 207 -79 334t-419 127q-301 0 -468 -147.5t-200 -376.5l-37 -240q-20 -104 -1.5 -197.5t65.5 -164t150.5 -112.5t250.5 -42q231 0 443 82q20 10 26 -8l17 -80q6 -23 -19 -33q-229 -92 -485 -92q-178 0 -307 57.5t-193.5 150.5t-88 200.5 t-7.5 220.5zM590 389q0 -49 32.5 -83t88.5 -34q92 0 163.5 73t108.5 183l55 344q-68 43 -182 43q-98 0 -152.5 -54t-74.5 -181l-29 -174q-10 -68 -10 -117z" />
<glyph unicode="A" horiz-adv-x="1161" d="M-53 27l678 1439q12 31 37 31h147q27 0 33 -31l215 -1439q1 -6 1 -11q0 -16 -18 -16h-145q-23 0 -25 25l-57 401h-491l-183 -401q-10 -25 -33 -25h-147q-15 0 -15 13q0 6 3 14zM395 588h398l-86 708z" />
<glyph unicode="B" horiz-adv-x="1171" d="M86 0l229 1483h461q190 0 290 -109q82 -90 82 -212q0 -25 -3 -52l-6 -47q-14 -121 -93 -195.5t-182 -91.5q96 -23 164 -117q54 -76 54 -174q0 -24 -3 -49l-8 -55q-55 -381 -498 -381h-487zM295 164h258q147 0 228 52t104 179l8 41q5 28 5 54q0 78 -47 132q-62 71 -198 70 h-274zM401 844h267q123 0 200.5 61.5t87.5 165.5l5 35q2 18 2 34q0 74 -45 122q-55 57 -164 57h-275z" />
<glyph unicode="C" horiz-adv-x="1146" d="M96 373q0 59 8 108l89 553q35 219 181 344t376 125q178 0 295.5 -106.5t123.5 -249.5q4 -39 -28 -41l-105 -16q-37 -6 -39 26q-8 94 -77.5 156.5t-186.5 62.5q-139 0 -237.5 -87t-122.5 -242l-82 -514q-8 -61 -8 -107q0 -102 73.5 -170t190.5 -68q123 0 209 59.5 t123 155.5q10 28 29 29q9 0 20 -6l104 -37q19 -6 19 -27q0 -12 -7 -30q-53 -137 -187 -225.5t-329 -88.5q-203 0 -317.5 119t-114.5 277z" />
<glyph unicode="D" horiz-adv-x="1286" d="M86 0l229 1483h473q201 0 323 -107.5t122 -275.5q0 -49 -8 -111l-82 -524q-33 -217 -173.5 -341t-389.5 -124h-494zM295 164h274q342 0 392 325l77 492q8 49 9 96q0 242 -287 242h-283z" />
<glyph unicode="E" horiz-adv-x="1040" d="M86 0l229 1483h756q20 0 16 -27l-16 -110q-4 -27 -27 -27h-567l-76 -481h519q20 0 16 -27l-16 -109q-4 -25 -27 -24h-514l-84 -514h569q23 0 19 -25l-19 -114q-4 -25 -24 -25h-754z" />
<glyph unicode="F" horiz-adv-x="970" d="M88 23l227 1460h727q20 0 20 -16q0 -4 -1 -9l-19 -112q-4 -27 -24 -27h-543l-80 -518h496q23 0 16 -25l-16 -108q-4 -27 -25 -27h-495l-97 -618q-6 -23 -28 -23h-137q-25 0 -21 23z" />
<glyph unicode="G" horiz-adv-x="1261" d="M96 375q0 49 6 92l86 545q78 492 582 491q195 0 311 -100q129 -111 130 -261q0 -34 -29 -36l-111 -19q-20 -2 -26.5 5.5t-8.5 29.5q-8 88 -80.5 150.5t-205.5 62.5q-156 0 -254.5 -88t-124.5 -260l-82 -506q-6 -43 -6 -88q0 -117 73.5 -182.5t208.5 -65.5q147 0 254 78 t131 234l27 168h-299q-23 0 -19 24l19 107q4 23 27 22h438q37 0 31 -35l-48 -305q-31 -215 -183 -338t-404 -123q-211 0 -327 115t-116 283z" />
<glyph unicode="H" horiz-adv-x="1382" d="M88 23l223 1439q4 20 27 21h139q12 0 18.5 -4t4.5 -17l-101 -633h662l100 633q2 20 27 21h135q14 0 20.5 -4t4.5 -17l-226 -1439q-4 -23 -26 -23h-138q-25 0 -20 23l98 641h-661l-101 -641q-6 -23 -28 -23h-137q-25 0 -21 23z" />
<glyph unicode="I" horiz-adv-x="534" d="M88 23l225 1437q2 23 27 23h137q23 0 21 -23l-224 -1437q-2 -23 -28 -23h-137q-22 0 -22 15q0 4 1 8z" />
<glyph unicode="J" horiz-adv-x="915" d="M-37 141q-9 14 -9 25q0 13 11 22l74 72q27 23 47 -6q78 -109 213 -109q195 0 229 238l170 1077q2 23 27 23h137q25 0 23 -23l-170 -1077q-33 -207 -136.5 -306.5t-285.5 -99.5q-209 0 -330 164z" />
<glyph unicode="K" horiz-adv-x="1153" d="M88 23l223 1437q4 23 29 23h137q25 0 23 -23l-107 -672l635 676q18 18 37 19h166q14 0 14 -16q0 -7 -6 -13l-537 -584l328 -845q12 -25 -14 -25h-162q-18 0 -27 18l-272 721l-199 -207l-82 -509q-6 -23 -28 -23h-137q-22 0 -22 15q0 4 1 8z" />
<glyph unicode="L" horiz-adv-x="980" d="M86 0l227 1462q2 20 27 21h139q23 0 21 -21l-205 -1298h608q20 0 20 -17q0 -4 -1 -10l-17 -112q-4 -25 -24 -25h-795z" />
<glyph unicode="M" horiz-adv-x="1622" d="M88 23l229 1435q4 25 29 25h211q20 0 27 -23l123 -854q35 -254 41 -438q74 229 219 545l346 747q10 23 78 23h172q27 0 22 -27l-221 -1431q-6 -25 -27 -25h-129q-23 0 -16 25l147 938q23 166 62 323h-4l-574 -1263q-12 -23 -28 -23h-146q-18 0 -22 20l-181 1266 q-6 -37 -24.5 -184.5t-26.5 -208.5q-23 -145 -69.5 -435t-69.5 -435q-6 -23 -27 -23h-123q-10 0 -15 7.5t-3 15.5z" />
<glyph unicode="N" horiz-adv-x="1394" d="M88 23l223 1433q4 27 31 27h205q18 0 28 -23l271 -790q100 -301 145 -473h8q16 201 52 421l131 844q4 20 24 21h133q23 0 19 -21l-225 -1437q-2 -25 -29 -25h-191q-25 0 -30 25l-293 835q-82 225 -137 424h-7q-12 -164 -47 -387l-135 -874q-6 -23 -24 -23h-134 q-20 0 -19 14q0 4 1 9z" />
<glyph unicode="O" d="M96 383q0 37 8 94l86 555q72 471 603 471q213 0 334.5 -113.5t121.5 -291.5q0 -45 -6 -90l-88 -568q-72 -463 -602 -463q-219 0 -338 117t-119 289zM281 393q0 -113 75.5 -180.5t223.5 -67.5q342 0 395 336l82 510q8 66 8 92q0 115 -78 183.5t-221 68.5q-344 0 -395 -338 l-82 -508q-8 -61 -8 -96z" />
<glyph unicode="P" horiz-adv-x="1128" d="M100 23l230 1460h438q190 0 288.5 -97.5t98.5 -248.5q0 -51 -8 -99l-10 -67q-74 -416 -519 -416h-247l-84 -532q-4 -23 -25 -23h-141q-25 0 -21 23zM395 717h232q160 0 235.5 65.5t93.5 196.5l9 55q8 49 8 86q0 199 -238 199h-246z" />
<glyph unicode="Q" d="M96 383q0 37 8 94l86 555q72 471 603 471q213 0 334.5 -113.5t121.5 -291.5q0 -45 -6 -90l-88 -568q-43 -270 -246 -383l144 -329q10 -25 -19 -25h-114q-18 0 -27 18l-125 283q-92 -27 -215 -27q-219 0 -338 117t-119 289zM281 393q0 -113 75.5 -180.5t223.5 -67.5 q61 0 116 17l-116 276q-12 27 20 27h117q14 0 22 -21l99 -225q111 88 137 262l82 510q8 66 8 92q0 115 -78 183.5t-221 68.5q-344 0 -395 -338l-82 -508q-8 -61 -8 -96z" />
<glyph unicode="R" horiz-adv-x="1153" d="M88 23l227 1460h439q190 0 287.5 -93.5t97.5 -238.5q0 -51 -6 -88l-13 -86q-20 -141 -102 -242.5t-221 -136.5l213 -573q10 -25 -17 -25h-155q-20 0 -27 18l-195 562h-256l-86 -557q-2 -23 -28 -23h-137q-25 0 -21 23zM385 739h260q137 0 208 63.5t89 192.5l8 66 q6 33 6 65q0 193 -235 193h-246z" />
<glyph unicode="S" horiz-adv-x="1071" d="M33 289q-2 8 -2 14q0 19 18 27l115 45q31 10 39 -23q27 -88 107.5 -148.5t203.5 -60.5q117 0 191.5 62.5t74.5 169.5q0 82 -65.5 150.5t-200.5 166.5q-27 18 -41 29q-147 109 -220 197t-73 204q0 162 116 271.5t331 109.5q164 0 282.5 -89t147.5 -230q1 -7 1 -12 q0 -26 -24 -31l-102 -25q-29 -6 -41 25q-20 90 -92 143t-185 53q-104 0 -173.5 -52t-69.5 -142q0 -27 5 -50.5t19.5 -46t26.5 -39t41 -41t47 -38t60 -44t65 -48.5q78 -59 108.5 -84t88 -77t80 -89t43 -91.5t20.5 -113.5q0 -178 -128 -291t-345 -113q-178 0 -303 88.5 t-166 223.5z" />
<glyph unicode="T" horiz-adv-x="1042" d="M113 1346l20 112q4 25 25 25h997q23 0 19 -25l-19 -115q-4 -25 -27 -24h-407l-203 -1296q-2 -23 -24 -23h-144q-20 0 -16 23l201 1296h-402q-24 0 -20 27z" />
<glyph unicode="U" horiz-adv-x="1337" d="M129 352q0 41 8 94l160 1014q4 23 25 23h139q25 0 20 -23l-159 -1007q-6 -43 -7 -74q0 -233 287 -234q156 0 249 77t114 214l163 1024q4 23 23 23h135q23 0 21 -23l-166 -1044q-33 -207 -173.5 -323t-392.5 -116q-221 0 -333.5 109.5t-112.5 265.5z" />
<glyph unicode="V" horiz-adv-x="1138" d="M150 1458q-2 25 20 25h147q20 0 23 -19l100 -721q35 -256 60 -577h4q117 317 233 575l322 723q8 18 28 19h146q10 0 16 -9q4 -6 4 -12q0 -4 -2 -8l-659 -1429q-14 -25 -33 -25h-166q-20 0 -24 25z" />
<glyph unicode="W" horiz-adv-x="1730" d="M174 1460q-2 23 19 23h141q25 0 24 -21l41 -667q23 -386 23 -595v-34h2q90 307 215 627l252 669q8 20 35 21h139q27 0 29 -21l51 -665q33 -352 35 -631h2q111 352 215 633l248 665q6 18 26 19h139q17 0 18 -12q0 -5 -3 -13l-555 -1433q-8 -25 -33 -25h-164q-29 0 -31 25 l-55 741q-18 248 -24 455h-2q-94 -270 -164 -455l-281 -741q-12 -25 -35 -25h-164q-27 0 -28 25z" />
<glyph unicode="X" horiz-adv-x="1097" d="M-103 11q-2 4 -2 9q0 7 5 13l565 721l-313 702q-12 27 14 27h149q18 0 27 -19l252 -571l422 573q12 16 28 17h166q15 0 15 -9q0 -6 -6 -16l-543 -717l340 -716q6 -8 1 -16.5t-18 -8.5h-147q-27 0 -35 20l-268 586l-440 -583q-18 -23 -39 -23h-156q-12 0 -17 11z" />
<glyph unicode="Y" horiz-adv-x="1050" d="M109 1458q-3 8 -4 13q0 12 16 12h147q20 0 29 -23l242 -684l454 692q10 14 27 15h154q18 0 18 -13q0 -6 -4 -14l-580 -848l-94 -585q-6 -23 -29 -23h-137q-25 0 -18 23l94 585z" />
<glyph unicode="Z" horiz-adv-x="1034" d="M-59 121l913 1198h-637q-20 0 -18 24l18 117q4 23 27 23h819q23 0 24 -21l15 -96l-918 -1202h731q25 0 19 -25l-19 -114q-4 -25 -26 -25h-903q-23 0 -25 20z" />
<glyph unicode="[" horiz-adv-x="735" d="M115 -285l286 1829h406q20 0 16 -24l-14 -101q-4 -25 -27 -24h-227l-240 -1528h228q20 0 20 -27l-16 -100q-4 -25 -29 -25h-403z" />
<glyph unicode="\" horiz-adv-x="995" d="M16 1475q-10 20 13 20h118q25 0 37 -20l813 -1446q14 -29 -12 -29h-115q-25 0 -34 18z" />
<glyph unicode="]" horiz-adv-x="710" d="M-47 -260l16 100q0 27 25 27h229l240 1528h-227q-25 0 -21 24l16 101q4 25 27 24h406l-287 -1829h-404q-24 0 -20 25z" />
<glyph unicode="^" horiz-adv-x="909" d="M90 739l379 709q10 23 33 22h133q27 0 31 -24l157 -711q6 -31 -26 -30h-115q-25 0 -27 20l-110 565l-281 -565q-8 -20 -37 -20h-118q-37 -1 -19 34z" />
<glyph unicode="_" horiz-adv-x="712" d="M-90 -233l16 102h776l-16 -102h-776z" />
<glyph unicode="`" horiz-adv-x="602" d="M209 1511q-14 25 16 25h117q23 0 31 -18l123 -275q12 -25 -17 -24h-84q-14 0 -22 12z" />
<glyph unicode="a" horiz-adv-x="1132" d="M84 287q0 74 8 123l47 292q68 424 494 424q219 0 436 -122l-154 -977q-2 -27 -32 -27h-113q-31 0 -27 39l29 184q-55 -88 -156.5 -165.5t-232.5 -77.5q-143 0 -221 92t-78 215zM264 315q0 -78 47 -131t135 -53q96 0 193.5 78t153.5 184l86 533q-135 57 -258 57 q-262 0 -310 -317l-37 -238q-10 -68 -10 -113z" />
<glyph unicode="b" horiz-adv-x="1124" d="M106 311q0 53 13 119l166 1069q2 20 28 21h129q12 0 18.5 -4.5t4.5 -16.5l-94 -581q49 80 142 144t220 64q145 0 234.5 -93t89.5 -226q0 -49 -10 -117l-46 -291q-66 -420 -509 -419q-178 0 -282 94t-104 237zM287 332q0 -92 59.5 -146.5t171.5 -54.5q258 0 307 297 l39 248q10 57 10 100q0 88 -54 143.5t-156 55.5q-123 0 -215.5 -93.5t-110.5 -207.5l-41 -244q-10 -57 -10 -98z" />
<glyph unicode="c" horiz-adv-x="995" d="M84 311q0 49 10 107l49 301q31 195 158 301t313 106q150 0 250.5 -81.5t112.5 -200.5q1 -5 1 -11q0 -26 -28 -30l-106 -17q-18 -4 -26.5 3.5t-10.5 27.5q-12 68 -64.5 113t-140.5 45q-100 0 -181 -72t-104 -213l-43 -268q-8 -57 -8 -84q0 -96 56.5 -150.5t146.5 -54.5 q92 0 157.5 45t94.5 119q12 33 47 18l96 -39q31 -10 10 -47q-109 -250 -432 -249q-154 0 -256 90.5t-102 240.5z" />
<glyph unicode="d" horiz-adv-x="1157" d="M86 289q0 72 8 121l47 301q31 201 149 308t320 107q141 0 295 -59l70 432q2 20 26 21h132q23 0 20 -21l-229 -1472q-2 -27 -31 -27h-119q-12 0 -18 9t-4 24l26 190q-154 -244 -383 -243q-143 0 -226 88t-83 221zM266 315q0 -82 49.5 -133t139.5 -51q96 0 197.5 85 t148.5 179l86 531q-127 57 -266 57q-125 0 -204 -79t-104 -236l-39 -244q-8 -56 -8 -109z" />
<glyph unicode="e" horiz-adv-x="1060" d="M86 311q0 51 12 121l43 273q31 197 154 309t326 112q164 0 269 -94t105 -225q0 -80 -30 -258q-8 -41 -54 -41h-622q-23 -125 -23 -176q0 -90 55.5 -145.5t157.5 -55.5q100 0 167 46t97 118q14 33 50 20l90 -36q19 -6 19 -27q0 -12 -7 -29q-115 -244 -438 -243 q-180 0 -275.5 96t-95.5 235zM309 639h490q18 92 18 154q0 84 -53 136t-150 52q-117 0 -195.5 -73.5t-99.5 -202.5z" />
<glyph unicode="f" horiz-adv-x="700" d="M133 948l17 96q4 25 24 25h135l19 123q51 328 336 328q154 0 247 -78q15 -12 15 -26q0 -11 -8 -23l-52 -70q-18 -25 -49 0q-61 45 -151 45q-131 0 -156 -166l-23 -133h271q23 0 18 -25l-14 -94q-4 -27 -27 -26h-270l-143 -901q-2 -23 -31 -23h-127q-25 0 -23 23l146 901 h-135q-23 -1 -19 24z" />
<glyph unicode="g" horiz-adv-x="1153" d="M23 -219q-8 13 -8 22q0 14 16 23l73 61q25 20 48 -14q39 -70 120.5 -119t188.5 -49q252 0 297 309l33 230q-152 -244 -385 -244q-145 0 -226.5 88t-81.5 217q0 76 8 125l46 283q33 207 150.5 315.5t346.5 108.5q201 0 430 -117l-153 -1028q-35 -211 -158 -323.5 t-332 -112.5q-141 0 -246.5 64.5t-166.5 160.5zM279 340q0 -86 49 -137t133 -51q106 0 201.5 79.5t148.5 178.5l84 526q-111 55 -260 55q-262 0 -311 -317l-35 -225q-10 -78 -10 -109z" />
<glyph unicode="h" horiz-adv-x="1142" d="M86 23l229 1472q4 25 29 25h129q27 0 23 -25l-93 -563q156 195 357 194q133 0 210 -86t77 -200q0 -70 -13 -133l-108 -684q-2 -23 -29 -23h-129q-23 0 -20 23l104 657q12 82 12 129q0 76 -44 121t-124 45q-96 0 -179 -62.5t-136 -152.5l-117 -737q-2 -23 -28 -23h-127 q-24 0 -24 15q0 4 1 8z" />
<glyph unicode="i" horiz-adv-x="507" d="M92 27l164 1050q6 31 33 31h125q25 0 20 -29l-164 -1050q-6 -29 -32 -29h-123q-24 0 -24 18q0 4 1 9zM291 1300l28 191q6 29 33 29h123q26 0 26 -20q0 -4 -1 -9l-29 -191q-6 -33 -37 -32h-123q-22 0 -21 21q0 5 1 11z" />
<glyph unicode="j" horiz-adv-x="493" d="M-141 -342q-6 8 -7 16q0 13 17 27q96 63 151.5 148t77.5 235l156 995q4 29 31 29h125q29 0 22 -31l-153 -993q-51 -326 -312 -510q-9 -6 -18 -6q-11 0 -21 8zM287 1298l30 193q6 29 33 29h123q26 0 26 -22q0 -4 -1 -9l-29 -189q-6 -33 -37 -32h-121q-28 -1 -24 30z" />
<glyph unicode="k" horiz-adv-x="1001" d="M86 27l229 1468q6 25 31 25h127q29 0 23 -25l-134 -844l478 439q18 18 41 18h139q20 0 20 -16q0 -8 -8 -15l-414 -391l271 -655q12 -31 -19 -31h-139q-23 0 -31 18l-223 564l-145 -125l-68 -430q-2 -27 -31 -27h-127q-22 0 -21 18q0 4 1 9z" />
<glyph unicode="l" horiz-adv-x="509" d="M90 27l229 1468q6 25 31 25h127q27 0 23 -27l-232 -1468q-2 -25 -30 -25h-125q-27 0 -23 27z" />
<glyph unicode="m" horiz-adv-x="1679" d="M82 23l166 1062q2 23 28 23h125q23 0 21 -23l-23 -149q147 190 324 190q111 0 174.5 -63.5t77.5 -151.5q154 215 350 215q121 0 190.5 -75.5t69.5 -182.5q0 -61 -10 -108l-115 -737q-2 -23 -26 -23h-129q-25 0 -23 23l107 679q14 90 14 127q0 66 -37 106t-109 40 q-78 0 -155.5 -62.5t-124.5 -152.5l-117 -737q-2 -23 -29 -23h-129q-27 0 -20 25l109 686q12 104 12 116q0 70 -38 109t-110 39q-82 0 -158.5 -66.5t-119.5 -146.5l-117 -739q-2 -23 -29 -23h-127q-24 0 -23 15q0 4 1 8z" />
<glyph unicode="n" horiz-adv-x="1138" d="M82 23l166 1062q2 23 28 23h125q23 0 21 -23l-23 -155q59 78 150.5 137t200.5 59q135 0 212.5 -86t77.5 -202q0 -70 -8 -125l-110 -690q-2 -23 -27 -23h-129q-29 0 -23 23l105 657q12 78 12 131q0 72 -44 118t-128 46q-96 0 -180 -63.5t-131 -149.5l-117 -739 q-2 -23 -29 -23h-127q-24 0 -23 15q0 4 1 8z" />
<glyph unicode="o" horiz-adv-x="1105" d="M84 307q0 47 8 99l49 299q66 422 510 421q174 0 278.5 -92t104.5 -235q0 -39 -12 -117l-43 -281q-68 -422 -510 -421q-178 0 -281.5 91t-103.5 236zM266 334q2 -100 63.5 -151.5t164.5 -51.5q121 0 202.5 72.5t104.5 216.5l41 244q10 61 10 106q0 98 -58.5 151.5 t-164.5 53.5q-123 0 -206 -73t-106 -214l-43 -264q-8 -49 -8 -90z" />
<glyph unicode="p" horiz-adv-x="1157" d="M20 -408l220 1397q209 137 469 137q184 0 280 -87t96 -234q0 -47 -8 -109l-47 -293q-33 -207 -145.5 -315t-274.5 -108q-115 0 -196.5 62t-122.5 134l-92 -584q-2 -25 -29 -24h-127q-27 -1 -23 24zM322 358q23 -88 98.5 -157.5t173.5 -69.5q217 0 262 303l41 256 q8 53 8 86q0 199 -217 199q-162 0 -282 -68z" />
<glyph unicode="q" horiz-adv-x="1150" d="M86 291q0 68 8 119l47 292q68 424 490 424q221 0 450 -120l-221 -1412q-2 -27 -33 -26h-116q-31 0 -27 39l98 614q-53 -90 -151.5 -165.5t-243.5 -75.5q-141 0 -221 89t-80 222zM266 311q0 -82 48 -131t130 -49q109 0 207.5 77t153.5 183l88 537q-127 53 -270 53 q-260 0 -312 -322l-35 -233q-10 -66 -10 -115z" />
<glyph unicode="r" horiz-adv-x="731" d="M82 23l166 1062q2 23 28 23h125q23 0 21 -23l-31 -190q63 94 164.5 161.5t204.5 67.5q31 0 31 -23q0 -6 -3 -14l-34 -126q-4 -14 -7.5 -21.5t-14.5 -10.5t-17 -3h-31q-84 0 -173 -47.5t-132 -118.5l-119 -737q-2 -23 -27 -23h-131q-22 0 -21 15q0 4 1 8z" />
<glyph unicode="s" horiz-adv-x="907" d="M41 242q-4 12 -4 22q0 22 22 29l86 31q29 14 41 -19q53 -176 250 -176q92 0 144.5 46t52.5 122q0 31 -12.5 56.5t-47 51t-61.5 41t-86 48.5q-18 10 -27 14q-121 66 -187.5 135.5t-66.5 177.5q0 129 98.5 217t258.5 88q139 0 237.5 -69.5t124.5 -163.5q4 -9 4 -17 q0 -18 -22 -24l-94 -31q-25 -10 -37 19q-18 63 -76.5 103t-138.5 40q-88 0 -135.5 -44t-47.5 -108q0 -41 30 -76.5t64.5 -58t114.5 -65.5q66 -37 107 -63.5t86 -67.5t66.5 -90.5t21.5 -108.5q0 -137 -105.5 -229t-269.5 -92q-154 0 -252 74.5t-139 187.5z" />
<glyph unicode="t" horiz-adv-x="739" d="M119 946l16 98q4 25 25 25h139l39 254q6 23 31 23h127q25 0 18 -23l-39 -254h225q20 0 17 -25l-15 -98q-6 -25 -26 -24h-221l-93 -594q-8 -33 -8 -68q0 -55 29 -79.5t94 -24.5h98q27 0 23 -27l-14 -100q-4 -29 -35 -29h-133q-119 0 -182.5 58.5t-63.5 156.5q0 35 8 96 l98 611h-139q-22 -1 -18 24z" />
<glyph unicode="u" horiz-adv-x="1138" d="M106 264q0 61 11 131l110 690q2 23 27 23h131q23 0 21 -21l-107 -675q-10 -72 -10 -109q0 -78 40 -125t120 -47q90 0 184 76t147 180l113 698q2 23 27 23h131q4 0 8 -1t8 -3t5 -6t1 -11l-168 -1064q-2 -23 -26 -23h-125q-25 0 -23 23l31 200q-59 -92 -160.5 -167.5 t-220.5 -75.5q-127 0 -201 82.5t-74 201.5z" />
<glyph unicode="v" horiz-adv-x="919" d="M94 1081q-4 27 19 27h145q23 0 25 -27l75 -514q35 -223 41 -413h4q80 223 168 413l236 514q14 27 37 27h139q16 0 16 -11q0 -6 -6 -16l-506 -1056q-10 -25 -34 -25h-146q-25 0 -31 25z" />
<glyph unicode="w" horiz-adv-x="1415" d="M113 1081q-4 27 24 27h137q25 0 27 -25l43 -514q13 -162 13 -324q0 -41 -1 -81h6q55 193 138 401l202 520q8 23 31 23h141q23 0 25 -23l35 -514q20 -266 20 -405h7q59 213 133 401l196 516q8 25 33 25h135q15 0 16 -13q0 -6 -4 -14l-434 -1056q-10 -25 -30 -25h-158 q-20 0 -25 25l-43 464q-16 178 -15 307q0 38 1 72h-4q-49 -188 -125 -376l-195 -467q-8 -25 -30 -25h-160q-23 0 -25 25z" />
<glyph unicode="x" horiz-adv-x="899" d="M-51 10q-2 4 -2 8q0 6 4 11l407 542l-233 508q-12 29 16 29h135q23 0 33 -23l168 -401l291 406q12 18 33 18h147q18 0 18 -14q0 -7 -8 -15l-399 -534l234 -518q6 -10 0.5 -18.5t-19.5 -8.5h-137q-23 0 -33 25l-166 401l-291 -401q-18 -25 -38 -25h-146q-10 0 -14 10z" />
<glyph unicode="y" horiz-adv-x="962" d="M6 -330q-5 9 -5 17q0 15 17 24q188 92 299 305l-202 1069q-4 23 18 23h146q23 0 24 -23l141 -868l396 866q14 25 32 25h134q14 0 20 -8q3 -4 3 -9t-3 -10l-541 -1104q-70 -141 -176 -251.5t-209 -159.5q-13 -7 -22 -7q-12 0 -19 11z" />
<glyph unicode="z" horiz-adv-x="903" d="M-10 92l669 864h-473q-25 0 -20 25l16 104q4 23 25 23h672q23 0 24 -23l10 -67l-667 -866h536q20 0 17 -23l-15 -104q-6 -25 -24 -25h-731q-20 0 -27 23z" />
<glyph unicode="{" horiz-adv-x="745" d="M106 580l15 98q2 20 29 24q102 8 155 58.5t70 157.5l51 317q25 152 89.5 234.5t193.5 82.5h98q23 0 18 -24l-16 -101q-4 -25 -27 -24h-63q-49 0 -81 -31t-40 -84l-66 -414q-14 -98 -83.5 -165.5t-165.5 -81.5v-4q92 -18 140 -80t32 -164l-62 -402q-18 -119 86 -118h62 q23 0 18 -25l-16 -102q-4 -25 -27 -25h-98q-119 0 -163 79t-24 210l58 373q14 82 -28 129t-132 53q-31 2 -23 29z" />
<glyph unicode="|" horiz-adv-x="569" d="M35 -508l330 2103q6 27 28 27h119q29 0 23 -29l-328 -2101q-6 -25 -33 -24h-117q-28 -1 -22 24z" />
<glyph unicode="}" horiz-adv-x="720" d="M-47 -262l16 100q4 23 27 23h59q106 0 125 121l64 403q14 98 82.5 165.5t160.5 82.5l2 6q-92 14 -137 77.5t-30 164.5l63 409q20 111 -84 111h-63q-25 0 -21 24l16 99q4 25 25 24h98q233 0 185 -313l-49 -313q-14 -104 21.5 -153.5t137.5 -59.5q23 -2 23 -25l-19 -100 q-2 -23 -30 -25q-195 -18 -219 -184l-58 -377q-47 -285 -278 -285h-99q-22 0 -18 25z" />
<glyph unicode="~" horiz-adv-x="1060" d="M59 559q-10 8 0 29q96 170 252 170q82 0 230.5 -58.5t210.5 -58.5q35 0 65.5 17.5t42.5 30.5t37 44q20 23 35 10l69 -51q10 -6 0 -28q-35 -70 -99 -120t-152 -50q-94 0 -236.5 57t-204.5 57q-72 0 -143 -96q-20 -23 -33 -12z" />
<glyph unicode="&#xa1;" horiz-adv-x="696" d="M131 -354l180 1016q6 20 27 20h86q20 0 18 -20l-137 -1014q-4 -23 -24 -23h-131q-23 1 -19 21zM336 926l24 170q6 31 35 30h109q31 0 24 -30l-26 -172q-6 -29 -33 -29h-111q-28 0 -22 31z" />
<glyph unicode="&#xa2;" horiz-adv-x="997" d="M96 422l45 278q29 178 132.5 284t256.5 132l23 154q6 27 31 26h121q35 0 26 -34l-22 -146q117 -20 186.5 -97t77.5 -179q4 -37 -27 -43l-108 -17q-35 -6 -37 33q-8 78 -51 119t-140 41q-109 0 -188.5 -73t-104.5 -226l-41 -248q-47 -287 197 -287q94 0 159.5 45t96.5 115 q14 37 45 23l88 -46q29 -12 8 -51q-109 -201 -338 -233l-24 -162q-2 -29 -31 -29h-127q-27 0 -20 29l24 166q-143 27 -214 139.5t-44 286.5z" />
<glyph unicode="&#xa3;" horiz-adv-x="1189" d="M76 78q2 10 41 57q147 203 188 457q4 43 8 61h-149q-20 0 -26.5 6.5t-2.5 18.5l17 104q0 25 26 25h148v172q0 236 128 380t349 144q147 0 241.5 -77.5t120.5 -204.5q8 -45 -26 -54l-97 -24q-37 -10 -43 26q-12 88 -62 127t-155 39q-135 0 -203.5 -92t-68.5 -246 q0 -33 1 -93t1 -97h309q20 0 21 -25l-19 -104q-4 -25 -26 -25h-303q-43 -311 -175 -489h674q20 0 17 -25l-17 -112q-6 -27 -26 -27h-861q-10 10 -21 38t-9 40z" />
<glyph unicode="&#xa4;" horiz-adv-x="1308" d="M80 561l12 90q4 27 27 27h147l23 141h-146q-25 0 -20 27l16 90q4 27 25 27h149l11 67q33 211 182 341t371 130q180 0 292.5 -92t143.5 -229q8 -43 -31 -54l-106 -30q-31 -10 -37 20q-31 225 -283 225q-150 0 -238 -85t-110 -230l-8 -63h385q25 0 20 -27l-16 -90 q-4 -27 -27 -27h-387l-22 -141h389q20 0 16 -27l-12 -90q-4 -27 -27 -26h-387l-10 -60q-10 -61 -10 -102q0 -238 256 -238q258 0 354 225q16 37 45 27l92 -39q35 -16 15 -65q-145 -305 -531 -306q-203 0 -310.5 100.5t-107.5 287.5q0 61 11 112l8 58h-146q-24 -1 -18 26z " />
<glyph unicode="&#xa5;" horiz-adv-x="1050" d="M109 1458q-10 25 12 25h147q20 0 29 -23l242 -684l454 692q10 14 27 15h154q27 0 14 -27l-580 -848l-6 -37h305q20 0 17 -26l-17 -99q-4 -25 -24 -24h-305l-64 -399q-6 -23 -29 -23h-137q-25 0 -18 23l63 399h-260q-23 0 -18 24l16 101q4 25 27 24h260l6 37z" />
<glyph unicode="&#xa6;" horiz-adv-x="540" d="M14 -514l146 922q4 23 22 22h127q23 0 19 -22l-146 -922q-4 -23 -24 -23h-125q-23 0 -19 23zM201 680l145 919q6 23 25 23h125q23 0 18 -23l-145 -919q-4 -25 -25 -25h-125q-22 0 -18 25z" />
<glyph unicode="&#xa7;" horiz-adv-x="1079" d="M96 86q-6 31 23 41l104 27q31 10 35 -23q10 -74 64.5 -125t144.5 -51q86 0 140.5 51t54.5 141q0 72 -52.5 120t-167 107.5t-168 122t-53.5 156.5q0 102 68.5 186.5t179.5 112.5q-182 96 -182 244q0 139 99 233.5t278 94.5q131 0 214 -70t105 -170q6 -27 -20 -35l-103 -30 q-23 -8 -31 20q-37 147 -180 147q-88 0 -137 -44t-49 -107q0 -61 43 -104.5t174 -104.5q125 -59 182.5 -124.5t57.5 -158.5q0 -111 -74 -198.5t-180 -116.5q182 -100 182 -262q0 -158 -109.5 -254t-281.5 -96q-141 0 -238.5 75.5t-122.5 194.5zM385 672q0 -70 45 -115 t117 -45q82 0 143.5 57.5t61.5 141.5q0 74 -45 115.5t-123 41.5q-84 0 -141.5 -59t-57.5 -137z" />
<glyph unicode="&#xa8;" horiz-adv-x="929" d="M188 1292l27 170q8 33 33 33h104q33 0 27 -33l-27 -168q-6 -33 -33 -32h-108q-29 -1 -23 30zM551 1292l27 170q8 33 32 33h107q31 0 24 -33l-26 -168q-6 -33 -35 -32h-107q-28 -1 -22 30z" />
<glyph unicode="&#xa9;" horiz-adv-x="1669" d="M104 584q0 356 243 608t599 252q283 0 451 -164t168 -428q0 -215 -105.5 -408.5t-302 -318.5t-436.5 -125q-281 0 -449 157t-168 427zM229 602q0 -223 138.5 -355t371.5 -132q283 0 491 215t208 501q0 217 -139.5 356.5t-368.5 139.5q-299 0 -500 -216t-201 -509z M504 606l33 211q23 156 122 238t244 82q109 0 177.5 -64.5t76.5 -150.5q4 -27 -20 -29l-82 -19q-29 -8 -29 19q-12 125 -141 125q-176 0 -211 -221l-27 -183q-35 -211 139 -211q133 0 183 115q10 27 32 17l76 -35q20 -8 6 -35q-39 -84 -121.5 -132t-195.5 -48 q-139 0 -212 83.5t-50 237.5z" />
<glyph unicode="&#xaa;" horiz-adv-x="808" d="M115 918q0 70 12 135l27 176q23 137 111.5 206.5t215.5 69.5q152 0 328 -100l-104 -670q-4 -23 -29 -22h-92q-27 0 -23 30l25 134q-35 -68 -106.5 -123.5t-157.5 -55.5q-98 0 -152.5 63t-54.5 157zM250 938q0 -53 30.5 -86t84.5 -33q72 0 150.5 76t96.5 176l43 275 q-82 39 -172 38q-176 0 -200 -180l-21 -147q-12 -66 -12 -119z" />
<glyph unicode="&#xab;" horiz-adv-x="1077" d="M94 635l359 395q23 31 43 10l77 -75q18 -12 2 -37l-294 -312l196 -374q12 -20 -12 -35l-86 -49q-25 -18 -39 8zM535 635l358 395q23 31 43 10l78 -75q20 -14 2 -37l-295 -312l199 -374q12 -20 -15 -35l-86 -49q-25 -18 -39 8z" />
<glyph unicode="&#xac;" horiz-adv-x="1202" d="M84 594v90q0 25 20 25h990v-574q0 -20 -27 -20h-82q-25 0 -24 20v432h-857q-20 0 -20 27z" />
<glyph unicode="&#xad;" horiz-adv-x="890" d="M96 559l17 96q4 25 24 25h639q23 0 19 -25l-15 -96q-4 -27 -26 -27h-637q-27 0 -21 27z" />
<glyph unicode="&#xae;" horiz-adv-x="972" d="M94 1030q0 195 139.5 338t360.5 143q164 0 265.5 -102t101.5 -262q0 -199 -140.5 -339t-359.5 -140q-164 0 -265.5 103t-101.5 259zM180 1030q0 -131 77 -209t216 -78q176 0 288.5 118t112.5 286q0 131 -76.5 210t-215.5 79q-174 0 -288 -119t-114 -287zM350 881l66 432 h149q68 0 105 -34t37 -91q0 -47 -28 -88t-77 -60l60 -157q0 -10 -9 -11h-71q-10 0 -13 9l-47 151h-65l-25 -151q-2 -8 -10 -9h-64q-8 1 -8 9zM467 1098h61q96 0 97 88q0 61 -70 61h-66z" />
<glyph unicode="&#xaf;" horiz-adv-x="811" d="M197 1356l14 92q4 25 27 25h460q23 0 19 -25l-15 -92q-4 -27 -26 -27h-461q-18 0 -18 27z" />
<glyph unicode="&#xb0;" horiz-adv-x="774" d="M115 1145q0 162 106.5 266.5t272.5 104.5q123 0 201.5 -78t78.5 -193q0 -166 -106.5 -269.5t-274.5 -103.5q-121 0 -199.5 80t-78.5 193zM254 1165q0 -68 43 -112.5t115 -44.5q94 0 157.5 60t63.5 159q0 68 -45 111.5t-115 43.5q-92 0 -155.5 -60.5t-63.5 -156.5z" />
<glyph unicode="&#xb1;" horiz-adv-x="1218" d="M94 29v96q0 27 31 27h401v26v373h-403q-29 0 -29 29v94q0 29 29 28h403v410q0 27 27 27h113q27 0 26 -27v-410h406q27 0 26 -28v-94q0 -29 -26 -29h-406v-399h402q31 0 30 -50v-73q0 -29 -32 -29h-967q-31 0 -31 29z" />
<glyph unicode="&#xb2;" horiz-adv-x="761" d="M82 707l16 104q16 106 73.5 174t176.5 125q72 35 97.5 48t61.5 38t46 47.5t10 54.5q0 37 -29.5 61.5t-87.5 24.5q-111 0 -172 -102q-14 -27 -30 -16l-60 39q-25 14 -6 36q109 162 285 162q111 0 174 -56t63 -142q0 -96 -64.5 -155.5t-221.5 -131.5q-96 -43 -132 -85 t-46 -104h358q23 0 16 -24l-10 -72q-4 -27 -29 -26h-489z" />
<glyph unicode="&#xb3;" horiz-adv-x="720" d="M63 862q-6 25 17 37l65 25q27 12 33 -13q27 -94 141 -94q68 0 109 39t41 102q0 49 -31.5 77t-83.5 28h-67q-20 0 -15 22l11 62q2 27 24 27h70q66 0 104.5 31.5t38.5 88.5q-4 90 -119 90q-106 0 -159 -79q-20 -31 -37 -15l-49 37q-20 16 -6 37q102 139 270 139 q115 0 177 -54t62 -140q0 -74 -46 -128.5t-107 -62.5q43 -14 72.5 -59t29.5 -103q0 -113 -84 -186.5t-211 -73.5q-98 0 -164 47t-86 119z" />
<glyph unicode="&#xb4;" horiz-adv-x="659" d="M193 1243l210 275q12 18 39 18h115q14 0 16 -8t-6 -17l-252 -280q-12 -12 -28 -12h-82q-28 -1 -12 24z" />
<glyph unicode="&#xb5;" horiz-adv-x="1165" d="M20 -414l236 1497q2 25 27 25h127q23 0 20 -23l-108 -679q-16 -104 39 -176t149 -72q109 0 198 71.5t97 130.5l115 725q2 23 26 23h131q4 0 8.5 -1t8.5 -3t5 -6t1 -11l-168 -1064q-2 -23 -27 -23h-123q-23 0 -20 23l22 143q-119 -184 -301 -184q-74 0 -129 39.5t-75 95.5 l-82 -531q-2 -23 -29 -22h-127q-23 -1 -21 22z" />
<glyph unicode="&#xb6;" horiz-adv-x="1253" d="M135 868q0 264 185.5 443.5t506.5 179.5h412q23 0 23 -21l-15 -86q-2 -25 -28 -24h-119l-252 -1616q-6 -29 -37 -29h-102q-25 0 -23 27l254 1618h-127l-137 -873h-139q-182 0 -292 91t-110 290z" />
<glyph unicode="&#xb7;" horiz-adv-x="514" d="M158 516l32 215q4 31 33 31h109q27 0 24 -33l-34 -211q-6 -31 -33 -31h-109q-28 0 -22 29z" />
<glyph unicode="&#xb8;" horiz-adv-x="524" d="M18 -317l39 47q10 14 23 6q61 -49 123 -49q88 0 102 67l2 10q8 39 -31.5 60.5t-117.5 13.5l30 203h117l-18 -123q76 0 114.5 -43t28.5 -106l-4 -19q-8 -63 -70.5 -112.5t-158.5 -49.5q-102 0 -174 64q-17 13 -5 31z" />
<glyph unicode="&#xb9;" horiz-adv-x="571" d="M84 725l14 92q4 12 17 12h135l78 478l-156 -17q-18 -4 -18 15l4 67q0 16 12 19q147 35 172 51q29 18 55 53h97l-105 -666h131q16 0 12 -16l-12 -86q-4 -14 -18 -14h-406q-12 0 -12 12z" />
<glyph unicode="&#xba;" horiz-adv-x="802" d="M121 930q0 18 4 55l37 238q23 139 116 210.5t242 71.5q127 0 202 -62.5t75 -162.5q0 -39 -6 -66l-35 -229q-23 -139 -119 -212t-242 -73q-127 0 -200.5 66t-73.5 164zM258 958q0 -139 154 -139q184 0 213 180l30 207q4 29 4 43q0 135 -157 135q-178 0 -207 -178l-33 -198 q-4 -30 -4 -50z" />
<glyph unicode="&#xbb;" horiz-adv-x="1110" d="M94 233q-20 16 0 37l293 316l-197 364q-12 23 15 37l90 53q25 16 41 -8l239 -467l-362 -393q-27 -31 -43 -10zM535 233q-23 16 0 37l292 316l-196 364q-10 25 14 37l90 53q27 18 41 -8l242 -467l-365 -393q-23 -33 -43 -10z" />
<glyph unicode="&#xbc;" horiz-adv-x="1445" d="M84 684l14 88q4 12 13 12h137l76 480l-158 -17q-14 -2 -14 10q0 84 16 89q14 4 54 14t54.5 14t41 15.5t43 24.5t32.5 32h99l-103 -662h127q12 0 8 -12q0 -14 -2 -20l-12 -68q0 -12 -14 -12h-402q-10 0 -10 12zM190 29l988 1446q12 20 34 20h101q25 0 12 -20l-995 -1457 q-10 -18 -37 -18h-90q-31 0 -13 29zM750 286v17q0 12 10 25l461 571q14 18 30 6q2 -2 15 -10l53 -39q18 -14 -16 -49l-377 -465h182l25 139q2 16 47 17h67q8 0 14.5 -4.5t4.5 -12.5l-23 -139h86q18 0 14 -20q0 -4 -1 -8.5t-1 -6.5l-8 -53q-4 -23 -22 -23h-86l-25 -153 q-2 -20 -20 -21h-99q-20 0 -18 21l24 153h-317q-6 0 -11 4.5t-6 13.5t-2 17.5t-1 19.5z" />
<glyph unicode="&#xbd;" horiz-adv-x="1552" d="M84 684l14 88q4 12 13 12h137l76 480l-158 -17q-14 -2 -14 10q0 84 16 89q14 4 54 14t54.5 14t41 15.5t43 24.5t32.5 32h99l-103 -662h127q12 0 8 -12q0 -14 -2 -20l-12 -68q0 -12 -14 -12h-402q-10 0 -10 12zM190 29l988 1446q12 20 34 20h101q25 0 12 -20l-995 -1457 q-10 -18 -37 -18h-90q-31 0 -13 29zM862 106l17 105q20 109 75.5 175.5t173.5 123.5q72 35 97.5 48t61.5 38t46 47.5t10 52.5q0 39 -30.5 63.5t-85.5 24.5q-109 0 -172 -104q-16 -23 -33 -14l-57 39q-27 10 -7 36q111 160 285 160q111 0 174.5 -56.5t63.5 -139.5 q0 -96 -64.5 -156t-222.5 -131q-96 -45 -132 -86t-46 -105h356q25 0 19 -22l-11 -74q-4 -25 -28 -25h-490z" />
<glyph unicode="&#xbe;" horiz-adv-x="1476" d="M66 799q-8 29 16 37l65 26q25 8 31 -14q31 -94 144 -94q68 0 108.5 38.5t40.5 102.5q0 51 -31.5 78.5t-85.5 27.5h-65q-18 0 -17 23l13 61q2 25 24 25h70q66 0 103.5 33t37.5 88q0 90 -119 90q-106 0 -157 -80q-20 -27 -39 -14l-47 37q-23 18 -6 39q100 137 270 137 q115 0 176 -54.5t61 -140.5q0 -72 -46 -127t-105 -63q41 -14 70.5 -59.5t29.5 -102.5q0 -111 -84 -184.5t-209 -73.5q-98 0 -163.5 47t-85.5 117zM207 29l997 1446q12 20 37 20h100q20 0 13 -20l-1010 -1457q-10 -18 -37 -18h-90q-33 0 -10 29zM788 305q0 10 11 23l461 571 q14 18 30 6l62 -47q18 -14 0 -33l-389 -483h182l24 139q2 16 23 17h94q8 0 14.5 -4.5t4.5 -12.5l-23 -139h84q20 0 16 -20l-12 -76q-4 -23 -22 -23h-86l-23 -145q-2 -20 -20 -21h-99q-20 0 -18 21l22 145h-319q-10 0 -12 17z" />
<glyph unicode="&#xbf;" horiz-adv-x="856" d="M-6 -145q0 45 4 67q12 78 57 148.5t102.5 125t114 106.5t101.5 115.5t57 131.5l10 57q2 33 35 33h105q31 0 22 -33l-10 -63q-12 -80 -57.5 -153t-100.5 -127t-109.5 -104t-96.5 -107.5t-52 -117.5q-4 -37 -4 -51q4 -168 188 -168q143 0 252 125q23 25 41 2l64 -75 q12 -16 -12 -41q-164 -168 -388 -168q-147 0 -235 87t-88 210zM481 879l27 168q6 31 35 30h102q31 0 25 -30l-27 -170q-6 -31 -31 -31h-106q-31 0 -25 33z" />
<glyph unicode="&#xc0;" horiz-adv-x="1161" d="M-53 27l678 1439q12 31 37 31h147q27 0 33 -31l215 -1439q6 -27 -17 -27h-145q-23 0 -25 25l-57 401h-491l-183 -401q-10 -25 -33 -25h-147q-22 0 -12 27zM395 588h398l-86 708zM500 1958q4 8 18 8h117q20 0 31 -18l122 -275q12 -25 -16 -24h-84q-14 0 -22 12l-164 281 q-6 8 -2 16z" />
<glyph unicode="&#xc1;" horiz-adv-x="1161" d="M-53 27l678 1439q12 31 37 31h147q27 0 33 -31l215 -1439q6 -27 -17 -27h-145q-23 0 -25 25l-57 401h-491l-183 -401q-10 -25 -33 -25h-147q-22 0 -12 27zM395 588h398l-86 708zM694 1675l209 275q12 18 39 18h115q16 0 17 -8t-7 -16l-252 -281q-12 -12 -29 -12h-81 q-29 -1 -11 24z" />
<glyph unicode="&#xc2;" horiz-adv-x="1161" d="M-53 27l678 1439q12 31 37 31h147q27 0 33 -31l215 -1439q6 -27 -17 -27h-145q-23 0 -25 25l-57 401h-491l-183 -401q-10 -25 -33 -25h-147q-22 0 -12 27zM395 588h398l-86 708zM506 1673l199 250q16 16 38 16h91q18 0 28 -16l123 -252q10 -23 -16 -22h-86q-20 0 -29 20 l-78 180l-137 -182q-12 -18 -31 -18h-96q-22 -1 -6 24z" />
<glyph unicode="&#xc3;" horiz-adv-x="1161" d="M-53 27l678 1439q2 6 6 11.5t7 8.5t8 5t8 3t10.5 2t10.5 1h11h10h113q27 0 33 -31l215 -1439q6 -27 -17 -27h-145q-23 0 -25 25l-57 401h-491l-183 -401q-10 -25 -33 -25h-147q-22 0 -12 27zM395 588h398l-86 708zM442 1743q-10 12 21 48t86 67.5t104 31.5q59 0 123 -45 t90 -45q41 0 71 27.5t45 47t26 7.5l49 -61q12 -12 0 -29q-35 -49 -90.5 -85t-117 -36t-122.5 45t-90 45q-63 0 -119 -75q-8 -12 -20 -3z" />
<glyph unicode="&#xc4;" horiz-adv-x="1161" d="M-53 27l678 1439q12 31 37 31h147q27 0 33 -31l215 -1439q6 -27 -17 -27h-145q-23 0 -25 25l-57 401h-491l-183 -401q-10 -25 -33 -25h-147q-22 0 -12 27zM395 588h398l-86 708zM500 1696l24 170q6 31 35 30h105q31 0 24 -30l-26 -168q-6 -33 -33 -33h-107q-28 0 -22 31z M862 1696l27 170q6 31 33 30h104q33 0 27 -30l-27 -168q-6 -33 -35 -33h-106q-29 0 -23 31z" />
<glyph unicode="&#xc5;" horiz-adv-x="1161" d="M-53 27l678 1439q12 31 37 31h147q27 0 33 -31l215 -1439q6 -27 -17 -27h-145q-23 0 -25 25l-57 401h-491l-183 -401q-10 -25 -33 -25h-147q-22 0 -12 27zM395 588h398l-86 708zM598 1776q12 76 70.5 125t132.5 49q76 0 119 -48.5t30 -125.5q-10 -72 -69.5 -122 t-132.5 -50q-78 0 -120 49t-30 123zM690 1776q-4 -37 14.5 -59.5t55.5 -22.5q35 0 63.5 23.5t32.5 58.5q6 39 -12.5 61.5t-57.5 22.5q-37 0 -63.5 -23.5t-32.5 -60.5z" />
<glyph unicode="&#xc6;" horiz-adv-x="1669" d="M-57 8q-4 8 4 21l901 1425q18 29 41 29h807q23 0 18 -27l-16 -113q-4 -25 -25 -24h-569l-74 -481h516q18 0 19 -27l-19 -109q-4 -25 -26 -24h-516l-80 -514h567q23 0 18 -25l-18 -114q-4 -25 -25 -25h-731q-23 0 -20 25l47 305h-434l-191 -305q-14 -25 -35 -25h-145 q-10 0 -14 8zM428 489h360l119 762z" />
<glyph unicode="&#xc7;" horiz-adv-x="1146" d="M96 373q0 59 8 108l89 553q35 219 181 344t376 125q178 0 295.5 -106.5t123.5 -249.5q4 -39 -28 -41l-105 -16q-37 -6 -39 26q-8 94 -77.5 156.5t-186.5 62.5q-139 0 -237.5 -87t-122.5 -242l-82 -514q-8 -61 -8 -107q0 -102 73.5 -170t190.5 -68q123 0 209 59.5 t123 155.5q14 41 49 23l104 -37q31 -10 12 -57q-49 -125 -165.5 -211t-284.5 -98l-14 -88q74 0 113.5 -44.5t29.5 -105.5l-4 -20q-8 -63 -70.5 -111.5t-159.5 -48.5q-102 0 -174 63q-16 12 -4 29l39 49q12 14 23 4q61 -49 123 -49q88 0 102 68l2 10q8 41 -32 61.5t-117 12.5 l24 170q-178 16 -278.5 131t-100.5 260z" />
<glyph unicode="&#xc8;" horiz-adv-x="1040" d="M86 0l229 1483h756q20 0 16 -27l-16 -110q-4 -27 -27 -27h-567l-76 -481h519q20 0 16 -27l-16 -109q-4 -25 -27 -24h-514l-84 -514h569q23 0 19 -25l-19 -114q-4 -25 -24 -25h-754zM483 1955q4 9 19 9h116q18 0 31 -18l123 -277q6 -10 1 -17t-17 -7h-84q-14 0 -23 12 l-164 280q-6 9 -2 18z" />
<glyph unicode="&#xc9;" horiz-adv-x="1040" d="M86 0l229 1483h756q20 0 16 -27l-16 -110q-4 -27 -27 -27h-567l-76 -481h519q20 0 16 -27l-16 -109q-4 -25 -27 -24h-514l-84 -514h569q23 0 19 -25l-19 -114q-4 -25 -24 -25h-754zM670 1673l209 275q16 18 39 18h114q16 0 17.5 -8t-7.5 -16l-251 -281q-12 -12 -27 -12 h-84q-24 -1 -10 24z" />
<glyph unicode="&#xca;" horiz-adv-x="1040" d="M86 0l229 1483h756q20 0 16 -27l-16 -110q-4 -27 -27 -27h-567l-76 -481h519q20 0 16 -27l-16 -109q-4 -25 -27 -24h-514l-84 -514h569q23 0 19 -25l-19 -114q-4 -25 -24 -25h-754zM500 1673l200 250q14 16 39 16h88q23 0 29 -16l125 -252q10 -20 -18 -20h-84 q-23 0 -31 18l-76 180l-137 -182q-12 -16 -31 -16h-96q-26 -1 -8 22z" />
<glyph unicode="&#xcb;" horiz-adv-x="1040" d="M86 0l229 1483h756q20 0 16 -27l-16 -110q-4 -27 -27 -27h-567l-76 -481h519q20 0 16 -27l-16 -109q-4 -25 -27 -24h-514l-84 -514h569q23 0 19 -25l-19 -114q-4 -25 -24 -25h-754zM463 1704l24 170q6 31 33 31h107q31 0 24 -31l-26 -168q-6 -33 -33 -33h-107 q-28 0 -22 31zM823 1704l27 170q6 31 33 31h106q31 0 25 -31l-27 -168q-6 -33 -35 -33h-104q-31 0 -25 31z" />
<glyph unicode="&#xcc;" horiz-adv-x="534" d="M88 23l225 1437q2 23 27 23h137q23 0 21 -23l-224 -1437q-2 -23 -28 -23h-137q-27 0 -21 23zM188 1944q-14 25 17 24h117q23 0 30 -18l125 -275q10 -25 -16 -24h-84q-16 0 -25 12z" />
<glyph unicode="&#xcd;" horiz-adv-x="534" d="M88 23l225 1437q2 23 27 23h137q23 0 21 -23l-224 -1437q-2 -23 -28 -23h-137q-27 0 -21 23zM386 1652q-3 7 5 17l209 277q14 18 39 18h115q16 0 17 -9t-7 -18l-252 -280q-12 -12 -29 -12h-82q-12 0 -15 7z" />
<glyph unicode="&#xce;" horiz-adv-x="534" d="M88 23l225 1437q2 23 27 23h137q23 0 21 -23l-224 -1437q-2 -23 -28 -23h-137q-27 0 -21 23zM197 1669l198 250q16 16 39 16h90q18 0 29 -16l123 -252q4 -8 -1 -15t-16 -7h-86q-20 0 -28 18l-78 182l-137 -182q-12 -18 -31 -18h-94q-24 -1 -8 24z" />
<glyph unicode="&#xcf;" horiz-adv-x="534" d="M88 23l225 1437q2 23 27 23h137q23 0 21 -23l-224 -1437q-2 -23 -28 -23h-137q-27 0 -21 23zM182 1704l25 170q6 31 33 31h106q31 0 25 -31l-27 -168q-6 -33 -33 -33h-106q-29 0 -23 31zM543 1704l26 170q6 31 33 31h107q31 0 24 -31l-26 -168q-6 -33 -35 -33h-105 q-30 0 -24 31z" />
<glyph unicode="&#xd0;" d="M55 702l17 101q4 27 24 26h135l103 654h473q201 0 322.5 -107.5t121.5 -275.5q0 -59 -10 -111l-80 -524q-33 -217 -174 -341t-391 -124h-494l105 676h-131q-25 -1 -21 26zM313 164h275q338 0 391 325l76 492q10 61 10 96q0 242 -289 242h-282l-78 -490h289q23 0 18 -26 l-16 -101q-4 -27 -27 -26h-287z" />
<glyph unicode="&#xd1;" horiz-adv-x="1394" d="M88 23l223 1433q4 27 31 27h205q18 0 28 -23q326 -958 416 -1263h8q20 221 72 557l111 708q4 20 24 21h133q23 0 19 -21l-225 -1437q-2 -25 -29 -25h-191q-25 0 -30 25l-250 718q-100 270 -180 541h-7q-18 -184 -57 -455l-125 -806q-6 -23 -24 -23h-134q-24 0 -18 23z M590 1749q-10 12 21.5 47t88 66.5t103.5 31.5q59 0 121.5 -45t89.5 -45q41 0 71.5 28t45 46t24.5 8l51 -61q10 -12 -2 -29q-86 -121 -205 -121q-61 0 -122.5 45t-90.5 45q-63 0 -118 -73q-10 -14 -21 -4z" />
<glyph unicode="&#xd2;" d="M96 383q0 37 8 94l86 555q72 471 603 471q213 0 334.5 -113.5t121.5 -291.5q0 -45 -6 -90l-88 -568q-72 -463 -602 -463q-219 0 -338 117t-119 289zM281 393q0 -113 75.5 -180.5t223.5 -67.5q342 0 395 336l82 510q8 66 8 92q0 115 -78 183.5t-221 68.5q-344 0 -395 -338 l-82 -508q-8 -61 -8 -96zM582 1942q-12 27 16 26h117q23 0 30 -18l125 -277q4 -10 -1 -17t-15 -7h-84q-16 0 -25 12z" />
<glyph unicode="&#xd3;" d="M96 383q0 37 8 94l86 555q72 471 603 471q213 0 334.5 -113.5t121.5 -291.5q0 -45 -6 -90l-88 -568q-72 -463 -602 -463q-219 0 -338 117t-119 289zM281 393q0 -113 75.5 -180.5t223.5 -67.5q342 0 395 336l82 510q8 66 8 92q0 115 -78 183.5t-221 68.5q-344 0 -395 -338 l-82 -508q-8 -61 -8 -96zM772 1673l209 277q16 18 39 18h115q33 0 10 -26l-252 -279q-8 -12 -27 -12h-84q-26 -1 -10 22z" />
<glyph unicode="&#xd4;" d="M96 383q0 37 8 94l86 555q72 471 603 471q213 0 334.5 -113.5t121.5 -291.5q0 -45 -6 -90l-88 -568q-72 -463 -602 -463q-219 0 -338 117t-119 289zM281 393q0 -113 75.5 -180.5t223.5 -67.5q342 0 395 336l82 510q8 66 8 92q0 115 -78 183.5t-221 68.5q-344 0 -395 -338 l-82 -508q-8 -61 -8 -96zM594 1671l201 250q12 16 39 16h88q23 0 28 -16l125 -252q10 -20 -18 -20h-84q-23 0 -31 18l-76 182l-137 -184q-12 -16 -31 -16h-96q-26 -1 -8 22z" />
<glyph unicode="&#xd5;" d="M96 408q2 6 3 22t1 25l90 577q72 471 603 471q213 0 334.5 -113.5t121.5 -291.5q0 -45 -6 -90l-88 -568q-72 -463 -602 -463q-201 0 -316.5 97.5t-132.5 249.5q-8 33 -8 84zM281 393q0 -113 75.5 -180.5t223.5 -67.5q342 0 395 336l72 443l12 86q6 47 6 73 q0 115 -78 183.5t-221 68.5q-344 0 -395 -338l-84 -528q-6 -43 -6 -76zM520 1745q-10 12 21.5 47t87 66.5t102.5 31.5q61 0 124 -44t89 -44q41 0 72 26.5t45 46t24 9.5l50 -61q14 -14 0 -29q-88 -123 -205 -123q-61 0 -123 46t-90 46q-59 0 -121 -75q-8 -14 -21 -2z" />
<glyph unicode="&#xd6;" d="M96 383q0 37 8 94l86 555q72 471 603 471q213 0 334.5 -113.5t121.5 -291.5q0 -45 -6 -90l-88 -568q-72 -463 -602 -463q-219 0 -338 117t-119 289zM281 393q0 -113 75.5 -180.5t223.5 -67.5q342 0 395 336l82 510q8 66 8 92q0 115 -78 183.5t-221 68.5q-344 0 -395 -338 l-82 -508q-8 -61 -8 -96zM543 1696l26 170q6 31 33 30h105q31 0 24 -30l-24 -168q-6 -33 -35 -33h-107q-28 0 -22 31zM905 1696l27 170q6 31 33 30h104q33 0 27 -30l-27 -168q-6 -33 -35 -33h-106q-29 0 -23 31z" />
<glyph unicode="&#xd7;" horiz-adv-x="1120" d="M92 264l365 361l-357 358q-18 20 -2 37l68 70q18 16 37 2l358 -361l361 361q16 14 32 -2l68 -68q20 -20 2 -39l-358 -356l360 -359q18 -18 0 -41l-65 -65q-18 -18 -39 0l-361 360l-366 -366q-16 -20 -37 2l-64 67q-18 19 -2 39z" />
<glyph unicode="&#xd8;" d="M8 -59l154 213q-66 98 -66 229q0 37 8 94l86 555q72 471 603 471q172 0 284 -78l78 107q16 20 39 20h96q25 0 13 -20l-134 -189q80 -102 80 -245q0 -45 -6 -90l-88 -568q-72 -463 -602 -463q-188 0 -305 89l-94 -136q-18 -18 -37 -18h-99q-30 0 -10 29zM281 393 q0 -29 10 -59l682 944q-80 57 -207 57q-344 0 -395 -338l-82 -508q-8 -61 -8 -96zM356 213q78 -68 224 -68q342 0 395 336l82 510q8 66 8 92q0 49 -16 93z" />
<glyph unicode="&#xd9;" horiz-adv-x="1337" d="M129 352q0 41 8 94l160 1014q4 23 25 23h139q25 0 20 -23l-159 -1007q-6 -43 -7 -74q0 -233 287 -234q156 0 249 77t114 214l163 1024q4 23 23 23h135q23 0 21 -23l-166 -1044q-33 -207 -173.5 -323t-392.5 -116q-221 0 -333.5 109.5t-112.5 265.5zM586 1944 q-14 25 16 24h117q23 0 31 -18l124 -275q10 -25 -16 -24h-84q-16 0 -24 12z" />
<glyph unicode="&#xda;" horiz-adv-x="1337" d="M129 352q0 41 8 94l160 1014q4 23 25 23h139q25 0 20 -23l-159 -1007q-6 -43 -7 -74q0 -233 287 -234q156 0 249 77t114 214l163 1024q4 23 23 23h135q23 0 21 -23l-166 -1044q-33 -207 -173.5 -323t-392.5 -116q-221 0 -333.5 109.5t-112.5 265.5zM756 1673l211 275 q12 18 37 18h116q14 0 16.5 -8t-8.5 -16l-251 -281q-12 -12 -27 -12h-82q-26 -1 -12 24z" />
<glyph unicode="&#xdb;" horiz-adv-x="1337" d="M129 352q0 41 8 94l160 1014q4 23 25 23h139q25 0 20 -23l-159 -1007q-6 -43 -7 -74q0 -233 287 -234q156 0 249 77t114 214l163 1024q4 23 23 23h135q23 0 21 -23l-166 -1044q-33 -207 -173.5 -323t-392.5 -116q-221 0 -333.5 109.5t-112.5 265.5zM598 1671l199 250 q14 16 39 16h90q18 0 28 -16l123 -252q10 -20 -16 -20h-86q-20 0 -29 18l-78 182l-137 -184q-12 -16 -31 -16h-94q-26 -1 -8 22z" />
<glyph unicode="&#xdc;" horiz-adv-x="1327" d="M129 352q0 41 8 94l160 1014q4 23 25 23h139q25 0 20 -23l-159 -1007q-6 -43 -7 -74q0 -233 287 -234q156 0 249 77t114 214l163 1024q4 23 23 23h135q23 0 21 -23l-166 -1044q-33 -207 -173.5 -323t-392.5 -116q-221 0 -333.5 109.5t-112.5 265.5zM578 1696l24 170 q6 31 33 30h106q31 0 25 -30l-27 -168q-6 -33 -32 -33h-107q-28 0 -22 31zM938 1696l27 170q6 31 32 30h107q31 0 24 -30l-26 -168q-6 -33 -35 -33h-104q-31 0 -25 31z" />
<glyph unicode="&#xdd;" horiz-adv-x="1050" d="M109 1458q-10 25 12 25h147q20 0 29 -23l242 -684l454 692q10 14 27 15h154q27 0 14 -27l-580 -848l-94 -585q-6 -23 -29 -23h-137q-25 0 -18 23l94 585zM599 1656q-3 7 3 17l211 277q12 18 39 18h115q33 0 10 -26l-252 -281q-12 -12 -29 -12h-82q-12 0 -15 7z" />
<glyph unicode="&#xde;" horiz-adv-x="1124" d="M86 25l225 1435q2 23 27 23h137q25 0 23 -23l-37 -227h248q182 0 286.5 -91t104.5 -251q0 -27 -8 -100l-13 -89q-35 -211 -171 -304t-371 -93h-220l-45 -282q-2 -23 -28 -23h-138q-22 0 -20 25zM340 467h219q147 0 230 56.5t110 195.5l10 61q6 74 6 82q0 106 -57 156.5 t-186 50.5h-236z" />
<glyph unicode="&#xdf;" horiz-adv-x="1230" d="M86 23l166 1064q66 428 477 429q180 0 271.5 -99.5t91.5 -236.5q0 -123 -57.5 -212t-153.5 -124q127 -33 191.5 -129.5t47.5 -239.5l-16 -133q-18 -160 -124 -261t-296 -101q-205 0 -305 143q-16 25 12 45l68 63q23 16 41 -8q66 -92 184 -92q211 0 242 236l14 118 q16 135 -58.5 202t-189.5 67h-96q-23 0 -18 22l16 109q4 25 27 24h53q111 0 173 75t62 179q0 197 -200 197q-121 0 -188.5 -69.5t-90.5 -215.5l-162 -1052q-6 -23 -28 -23h-134q-24 0 -20 23z" />
<glyph unicode="&#xe0;" horiz-adv-x="1132" d="M84 287q0 74 8 123l47 292q68 424 494 424q219 0 436 -122l-154 -977q-2 -27 -32 -27h-113q-31 0 -27 39l29 184q-55 -88 -156.5 -165.5t-232.5 -77.5q-143 0 -221 92t-78 215zM264 315q0 -78 47 -131t135 -53q96 0 193.5 78t153.5 184l86 533q-135 57 -258 57 q-262 0 -310 -317l-37 -238q-10 -68 -10 -113zM414 1540q-14 25 18 25h115q23 0 31 -19l124 -276q10 -23 -16 -23h-84q-18 0 -24 13z" />
<glyph unicode="&#xe1;" horiz-adv-x="1132" d="M84 287q0 74 8 123l47 292q68 424 494 424q219 0 436 -122l-154 -977q-2 -27 -32 -27h-113q-31 0 -27 39l29 184q-55 -88 -156.5 -165.5t-232.5 -77.5q-143 0 -221 92t-78 215zM264 315q0 -78 47 -131t135 -53q96 0 193.5 78t153.5 184l86 533q-135 57 -258 57 q-262 0 -310 -317l-37 -238q-10 -68 -10 -113zM625 1272l209 276q14 18 38 19h115q16 0 17.5 -9.5t-7.5 -17.5l-252 -280q-12 -12 -28 -13h-82q-28 0 -10 25z" />
<glyph unicode="&#xe2;" horiz-adv-x="1132" d="M84 287q0 74 8 123l47 292q68 424 494 424q219 0 436 -122l-154 -977q-2 -27 -32 -27h-113q-31 0 -27 39l29 184q-55 -88 -156.5 -165.5t-232.5 -77.5q-143 0 -221 92t-78 215zM264 315q0 -78 47 -131t135 -53q96 0 193.5 78t153.5 184l86 533q-135 57 -258 57 q-262 0 -310 -317l-37 -238q-10 -68 -10 -113zM459 1274l198 250q14 16 39 16h90q18 0 29 -16l123 -252q10 -20 -16 -21h-86q-20 0 -29 19l-78 182l-137 -184q-12 -16 -31 -17h-94q-26 0 -8 23z" />
<glyph unicode="&#xe3;" horiz-adv-x="1132" d="M84 287q0 74 8 123l47 292q68 424 494 424q219 0 436 -122l-154 -977q-2 -27 -32 -27h-113q-31 0 -27 39l29 184q-55 -88 -156.5 -165.5t-232.5 -77.5q-143 0 -221 92t-78 215zM264 315q0 -80 47 -132t135 -52q96 0 193.5 78t153.5 184l86 533q-135 57 -258 57 q-262 0 -310 -317l-37 -238q-10 -68 -10 -113zM397 1350q-10 12 21 47t87 66.5t103 31.5q59 0 123 -45t90 -45q41 0 72 27.5t45 46t25 8.5l49 -60q12 -16 0 -28q-88 -123 -205 -123q-61 0 -123.5 45t-91.5 45q-59 0 -119 -74q-8 -14 -20 -2z" />
<glyph unicode="&#xe4;" horiz-adv-x="1132" d="M84 287q0 74 8 123l47 292q68 424 494 424q219 0 436 -122l-154 -977q-2 -27 -32 -27h-113q-31 0 -27 39l29 184q-55 -88 -156.5 -165.5t-232.5 -77.5q-143 0 -221 92t-78 215zM264 315q0 -78 47 -131t135 -53q96 0 193.5 78t153.5 184l86 533q-135 57 -258 57 q-262 0 -310 -317l-37 -238q-10 -68 -10 -113zM432 1303l27 170q8 33 33 32h104q31 0 25 -32l-25 -168q-6 -33 -35 -33h-106q-29 0 -23 31zM795 1303l26 170q8 33 33 32h104q33 0 27 -32l-27 -168q-6 -33 -34 -33h-107q-28 0 -22 31z" />
<glyph unicode="&#xe5;" horiz-adv-x="1132" d="M84 287q0 74 8 123l47 292q68 424 494 424q219 0 436 -122l-154 -977q-2 -27 -32 -27h-113q-31 0 -27 39l29 184q-55 -88 -156.5 -165.5t-232.5 -77.5q-143 0 -221 92t-78 215zM264 315q0 -78 47 -131t135 -53q96 0 193.5 78t153.5 184l86 533q-135 57 -258 57 q-262 0 -310 -317l-37 -238q-10 -68 -10 -113zM520 1407q12 74 70.5 124t132.5 50q76 0 120 -48t29 -126q-10 -72 -69.5 -122t-132.5 -50q-78 0 -119 49t-31 123zM614 1407q-6 -37 13.5 -59.5t56.5 -22.5q35 0 63.5 23.5t32.5 58.5q4 39 -14 61.5t-57 22.5q-35 0 -62 -24.5 t-33 -59.5z" />
<glyph unicode="&#xe6;" horiz-adv-x="1699" d="M63 244q0 92 29 160.5t83 111.5t116.5 69.5t149.5 38t160 14.5t167 1l14 82q0 8 4.5 31.5t4.5 35.5q0 88 -54.5 138.5t-150.5 50.5q-164 0 -252 -158q-12 -27 -39 -12l-84 47q-20 14 -8 39q141 233 411 233q205 0 297 -141q125 141 359 141q158 0 261 -94t103 -225 q0 -80 -30 -258q-8 -41 -54 -41h-622q-23 -125 -23 -176q0 -90 55.5 -145.5t157.5 -55.5q100 0 167 46t97 118q10 33 48 20l92 -36q29 -12 12 -56q-115 -244 -440 -243q-236 0 -328 167q-221 -168 -408 -167q-135 0 -215 71.5t-80 192.5zM244 285q0 -70 44 -112t122 -42 q172 0 315 139q-2 12 -2 41q0 35 4 68t11 73t10 56q-279 10 -388.5 -33t-115.5 -190zM948 639h498q16 82 16 147q0 82 -56 138.5t-153 56.5q-117 0 -195.5 -73.5t-99.5 -202.5z" />
<glyph unicode="&#xe7;" horiz-adv-x="995" d="M84 311q0 49 10 107l49 301q31 195 158 301t313 106q150 0 250.5 -81.5t112.5 -200.5q6 -35 -27 -41l-106 -17q-18 -4 -26.5 3.5t-10.5 27.5q-12 68 -64.5 113t-140.5 45q-100 0 -181 -72t-104 -213l-43 -268q-8 -57 -8 -84q0 -96 56.5 -150.5t146.5 -54.5q92 0 157.5 45 t94.5 119q12 33 47 18l96 -39q31 -10 10 -47q-98 -223 -366 -245l-12 -84q74 0 113.5 -44t29.5 -106l-4 -20q-8 -63 -70.5 -111.5t-158.5 -48.5q-102 0 -175 63q-16 12 -4 29l39 49q12 14 23 4q61 -49 123 -49q88 0 102 68l2 10q8 41 -32 61.5t-117 12.5l24 166 q-135 14 -221 102t-86 225z" />
<glyph unicode="&#xe8;" horiz-adv-x="1060" d="M86 311q0 51 12 121l43 273q31 197 154 309t326 112q164 0 269 -94t105 -225q0 -80 -30 -258q-8 -41 -54 -41h-622q-23 -125 -23 -176q0 -90 55.5 -145.5t157.5 -55.5q100 0 167 46t97 118q14 33 50 20l90 -36q31 -10 12 -56q-115 -244 -438 -243q-180 0 -275.5 96 t-95.5 235zM309 639h490q18 92 18 154q0 84 -53 136t-150 52q-117 0 -195.5 -73.5t-99.5 -202.5zM403 1540q-14 25 19 25h115q23 0 30 -19l125 -276q10 -23 -16 -23h-84q-18 0 -25 13z" />
<glyph unicode="&#xe9;" horiz-adv-x="1060" d="M86 311q0 51 12 121l43 273q31 197 154 309t326 112q164 0 269 -94t105 -225q0 -80 -30 -258q-8 -41 -54 -41h-622q-23 -125 -23 -176q0 -90 55.5 -145.5t157.5 -55.5q100 0 167 46t97 118q14 33 50 20l90 -36q31 -10 12 -56q-115 -244 -438 -243q-180 0 -275.5 96 t-95.5 235zM309 639h490q18 92 18 154q0 84 -53 136t-150 52q-117 0 -195.5 -73.5t-99.5 -202.5zM590 1270l209 276q12 18 39 19h114q16 0 17.5 -8.5t-6.5 -16.5l-252 -280q-10 -12 -29 -13h-82q-28 0 -10 23z" />
<glyph unicode="&#xea;" horiz-adv-x="1060" d="M86 311q0 51 12 121l43 273q31 197 154 309t326 112q164 0 269 -94t105 -225q0 -80 -30 -258q-8 -41 -54 -41h-622q-23 -125 -23 -176q0 -90 55.5 -145.5t157.5 -55.5q100 0 167 46t97 118q14 33 50 20l90 -36q31 -10 12 -56q-115 -244 -438 -243q-180 0 -275.5 96 t-95.5 235zM309 639h490q18 92 18 154q0 84 -53 136t-150 52q-117 0 -195.5 -73.5t-99.5 -202.5zM420 1274l201 250q12 16 36 16h91q18 0 28 -16l123 -252q10 -20 -16 -21h-86q-18 0 -29 19l-78 182l-137 -184q-12 -16 -31 -17h-94q-26 0 -8 23z" />
<glyph unicode="&#xeb;" horiz-adv-x="1060" d="M86 311q0 51 12 121l43 273q31 197 154 309t326 112q164 0 269 -94t105 -225q0 -80 -30 -258q-8 -41 -54 -41h-622q-23 -125 -23 -176q0 -90 55.5 -145.5t157.5 -55.5q100 0 167 46t97 118q14 33 50 20l90 -36q31 -10 12 -56q-115 -244 -438 -243q-180 0 -275.5 96 t-95.5 235zM309 639h490q18 92 18 154q0 84 -53 136t-150 52q-117 0 -195.5 -73.5t-99.5 -202.5zM391 1309l25 170q6 31 35 30h104q31 0 25 -32l-27 -168q-6 -33 -33 -33h-106q-29 0 -23 33zM754 1309l26 170q6 31 33 30h105q31 0 24 -32l-24 -168q-6 -33 -37 -33h-105 q-28 0 -22 33z" />
<glyph unicode="&#xec;" horiz-adv-x="507" d="M92 27l164 1050q6 31 33 31h125q25 0 20 -29l-164 -1050q-6 -29 -32 -29h-123q-29 0 -23 27zM135 1556.5q4 8.5 19 8.5h116q20 0 31 -19l123 -276q12 -23 -16 -23h-84q-16 0 -23 13l-164 280q-6 8 -2 16.5z" />
<glyph unicode="&#xed;" horiz-adv-x="507" d="M92 27l164 1050q6 31 33 31h125q25 0 20 -29l-164 -1050q-6 -29 -32 -29h-123q-29 0 -23 27zM330 1272l211 276q16 18 37 19h116q14 0 16.5 -9.5t-8.5 -17.5l-251 -280q-12 -12 -27 -13h-82q-26 0 -12 25z" />
<glyph unicode="&#xee;" horiz-adv-x="507" d="M92 27l164 1050q6 31 33 31h125q25 0 20 -29l-164 -1050q-6 -29 -32 -29h-123q-29 0 -23 27zM135 1274l199 250q14 16 39 16h90q18 0 29 -16l122 -252q10 -20 -16 -21h-86q-20 0 -29 19l-77 182l-138 -184q-12 -16 -30 -17h-97q-24 0 -6 23z" />
<glyph unicode="&#xef;" horiz-adv-x="505" d="M92 27l164 1050q6 31 33 31h125q25 0 20 -29l-164 -1050q-6 -29 -32 -29h-123q-29 0 -23 27zM121 1303l24 170q6 31 33 30h107q31 0 24 -33l-26 -167q-6 -31 -33 -31h-107q-28 0 -22 31zM483 1303l25 170q6 31 35 30h104q31 0 25 -33l-25 -167q-6 -31 -37 -31h-104 q-29 0 -23 31z" />
<glyph unicode="&#xf0;" horiz-adv-x="1153" d="M84 317q0 37 8 91l37 215q31 195 169 312.5t349 117.5q72 0 137.5 -29t95 -55.5t40.5 -42.5q-10 80 -47 169t-91 148l-92 -82q-23 -18 -37 0l-59 64q-12 16 4 32l92 78q-35 41 -84 82q-27 27 0 49l84 84q27 23 51 -2q25 -23 80 -86l101 90q23 16 34 0l62 -65 q14 -18 -6 -35l-101 -92q111 -147 148 -322.5t0 -421.5l-35 -217q-33 -207 -159 -313t-373 -106q-203 0 -305.5 93.5t-102.5 243.5zM266 348q2 -217 248 -217q287 0 336 293l29 188q23 133 -50 211t-190 78q-127 0 -219 -75.5t-115 -219.5l-33 -192q0 -6 -3 -30t-3 -36z" />
<glyph unicode="&#xf1;" horiz-adv-x="1138" d="M82 23l166 1062q2 23 28 23h125q23 0 21 -23l-23 -155q59 78 150.5 137t200.5 59q127 0 202.5 -74.5t85.5 -183.5q2 -20 2 -67q0 -10 -1 -29.5t-3 -28.5l-10 -75l-104 -645q-2 -23 -27 -23h-129q-29 0 -23 23l105 657q12 78 12 131q0 72 -44 118t-128 46 q-96 0 -180 -63.5t-131 -149.5l-117 -739q-6 -23 -59 -23h-97q-28 0 -22 23zM397 1350q-10 12 22 48t87 67.5t104 31.5q59 0 122 -45t89 -45q41 0 72 27.5t45 46t25 8.5l51 -62q10 -12 0 -28q-35 -49 -90.5 -85t-117 -36t-122.5 45t-90 45q-63 0 -119 -76q-10 -12 -20 -2z " />
<glyph unicode="&#xf2;" horiz-adv-x="1105" d="M84 307q0 47 8 99l49 299q66 422 510 421q174 0 278.5 -92t104.5 -235q0 -39 -12 -117l-43 -281q-68 -422 -510 -421q-178 0 -281.5 91t-103.5 236zM266 334q2 -100 63.5 -151.5t164.5 -51.5q121 0 202.5 72.5t104.5 216.5l41 244q10 61 10 106q0 98 -58.5 151.5 t-164.5 53.5q-123 0 -206 -73t-106 -214l-43 -264q-8 -49 -8 -90zM430 1557.5q4 9.5 21 9.5h114q20 0 31 -19l125 -276q8 -25 -16 -25h-84q-16 0 -25 13l-164 280q-6 8 -2 17.5z" />
<glyph unicode="&#xf3;" horiz-adv-x="1105" d="M84 307q0 47 8 99l49 299q66 422 510 421q174 0 278.5 -92t104.5 -235q0 -39 -12 -117l-43 -281q-68 -422 -510 -421q-178 0 -281.5 91t-103.5 236zM266 334q2 -100 63.5 -151.5t164.5 -51.5q121 0 202.5 72.5t104.5 216.5l41 244q10 61 10 106q0 98 -58.5 151.5 t-164.5 53.5q-123 0 -206 -73t-106 -214l-43 -264q-8 -49 -8 -90zM615 1254.5q-3 7.5 6 17.5l208 276q14 18 39 19h115q16 0 17 -9.5t-7 -17.5l-252 -280q-12 -12 -28 -13h-82q-13 0 -16 7.5z" />
<glyph unicode="&#xf4;" horiz-adv-x="1105" d="M84 307q0 47 8 99l49 299q66 422 510 421q174 0 278.5 -92t104.5 -235q0 -39 -12 -117l-43 -281q-68 -422 -510 -421q-178 0 -281.5 91t-103.5 236zM266 334q2 -100 63.5 -151.5t164.5 -51.5q121 0 202.5 72.5t104.5 216.5l41 244q10 61 10 106q0 98 -58.5 151.5 t-164.5 53.5q-123 0 -206 -73t-106 -214l-43 -264q-8 -49 -8 -90zM442 1274l199 250q14 16 39 16h90q18 0 29 -16l123 -252q10 -20 -17 -21h-86q-20 0 -28 19l-78 182l-138 -184q-12 -16 -30 -17h-96q-25 0 -7 23z" />
<glyph unicode="&#xf5;" horiz-adv-x="1105" d="M84 307q0 47 8 99l49 299q66 422 510 421q174 0 278.5 -92t104.5 -235q0 -39 -12 -117l-43 -281q-68 -422 -510 -421q-178 0 -281.5 91t-103.5 236zM266 334q0 -100 62.5 -151.5t165.5 -51.5q121 0 201.5 72.5t105.5 216.5l41 244q10 61 10 106q0 98 -58.5 151.5 t-164.5 53.5q-123 0 -206 -73t-106 -214l-43 -264q-8 -49 -8 -90zM365 1350q-10 12 20.5 48t85.5 67.5t104 31.5q59 0 123 -45t90 -45q41 0 71 27.5t44.5 46t24.5 8.5l51 -62q10 -12 0 -28q-35 -49 -90 -85t-116.5 -36t-123 45t-90.5 45q-63 0 -119 -76q-10 -12 -20 -2z" />
<glyph unicode="&#xf6;" horiz-adv-x="1105" d="M84 307q0 47 8 99l49 299q66 422 510 421q174 0 278.5 -92t104.5 -235q0 -39 -12 -117l-43 -281q-68 -422 -510 -421q-178 0 -281.5 91t-103.5 236zM266 334q2 -100 63.5 -151.5t164.5 -51.5q121 0 202.5 72.5t104.5 216.5l41 244q10 61 10 106q0 98 -58.5 151.5 t-164.5 53.5q-123 0 -206 -73t-106 -214l-43 -264q-8 -49 -8 -90zM424 1303l25 172q6 31 32 30h107q31 0 24 -32l-26 -168q-6 -33 -33 -33h-109q-26 0 -20 31zM784 1303l27 172q6 31 33 30h106q31 0 25 -32l-27 -168q-6 -33 -35 -33h-104q-31 0 -25 31z" />
<glyph unicode="&#xf7;" horiz-adv-x="1224" d="M92 578v100q0 25 23 24h995q20 0 20 -24v-100q0 -27 -20 -27h-995q-23 0 -23 27zM532 147v215q0 31 27 31h111q31 0 30 -33v-210q0 -31 -30 -31h-111q-27 -1 -27 28zM532 903v213q0 31 27 31h111q31 0 30 -31v-211q0 -33 -30 -33h-111q-27 0 -27 31z" />
<glyph unicode="&#xf8;" horiz-adv-x="1105" d="M55 -66l113 156q-84 88 -84 217q0 47 8 99l43 268q31 211 145.5 325.5t333.5 124.5q31 4 66 0q113 -2 194 -53l64 88q16 20 37 21h86q29 0 14 -23l-112 -156q72 -88 71 -202q0 -39 -12 -117l-43 -281q-68 -422 -510 -421q-123 0 -209 43l-70 -99q-14 -18 -36 -18h-86 q-31 -1 -13 28zM266 334q0 -47 17 -84l493 686q-59 39 -147 39q-123 0 -206 -73t-106 -214l-43 -264q-8 -49 -8 -90zM360 162q55 -31 134 -31q121 0 202.5 72.5t104.5 216.5l35 211q8 43 12 96q0 57 -12 100z" />
<glyph unicode="&#xf9;" horiz-adv-x="1138" d="M106 264q0 61 11 131l110 690q2 23 27 23h131q23 0 21 -21l-107 -675q-10 -72 -10 -109q0 -78 40 -125t120 -47q90 0 184 76t147 180l113 698q2 23 27 23h131q4 0 8 -1t8 -3t5 -6t1 -11l-168 -1064q-2 -23 -26 -23h-125q-25 0 -23 23l31 200q-59 -92 -160.5 -167.5 t-220.5 -75.5q-127 0 -201 82.5t-74 201.5zM426 1556.5q4 8.5 18 8.5h117q20 0 31 -19l123 -276q12 -23 -17 -23h-84q-16 0 -22 13l-164 280q-6 8 -2 16.5z" />
<glyph unicode="&#xfa;" horiz-adv-x="1138" d="M106 264q0 61 11 131l110 690q2 23 27 23h131q23 0 21 -21l-107 -675q-10 -72 -10 -109q0 -78 40 -125t120 -47q90 0 184 76t147 180l113 698q2 23 27 23h131q4 0 8 -1t8 -3t5 -6t1 -11l-168 -1064q-2 -23 -26 -23h-125q-25 0 -23 23l31 200q-59 -92 -160.5 -167.5 t-220.5 -75.5q-127 0 -201 82.5t-74 201.5zM592 1272l209 276q14 18 39 19h114q16 0 17.5 -9.5t-6.5 -17.5l-252 -280q-12 -12 -29 -13h-82q-28 0 -10 25z" />
<glyph unicode="&#xfb;" horiz-adv-x="1138" d="M106 264q0 61 11 131l110 690q2 23 27 23h131q23 0 21 -21l-107 -675q-10 -72 -10 -109q0 -78 40 -125t120 -47q90 0 184 76t147 180l113 698q2 23 27 23h131q4 0 8 -1t8 -3t5 -6t1 -11l-168 -1064q-2 -23 -26 -23h-125q-25 0 -23 23l31 200q-59 -92 -160.5 -167.5 t-220.5 -75.5q-127 0 -201 82.5t-74 201.5zM438 1274l201 250q12 16 37 16h90q18 0 29 -16l123 -252q10 -20 -17 -21h-86q-20 0 -29 19l-77 182l-138 -184q-12 -16 -30 -17h-95q-26 0 -8 23z" />
<glyph unicode="&#xfc;" horiz-adv-x="1138" d="M106 264q0 61 11 131l110 690q2 23 27 23h131q23 0 21 -21l-107 -675q-10 -72 -10 -109q0 -78 40 -125t120 -47q90 0 184 76t147 180l113 698q2 23 27 23h131q4 0 8 -1t8 -3t5 -6t1 -11l-168 -1064q-2 -23 -26 -23h-125q-25 0 -23 23l31 200q-59 -92 -160.5 -167.5 t-220.5 -75.5q-127 0 -201 82.5t-74 201.5zM416 1303l24 172q6 31 33 30h107q31 0 24 -32l-26 -168q-6 -33 -33 -33h-107q-28 0 -22 31zM778 1303l25 172q6 31 35 30h104q31 0 25 -32l-25 -168q-6 -33 -37 -33h-104q-29 0 -23 31z" />
<glyph unicode="&#xfd;" horiz-adv-x="962" d="M6 -330q-14 27 12 41q188 92 299 305l-202 1069q-4 23 18 23h146q23 0 24 -23l141 -868l396 866q14 25 32 25h134q14 0 20 -8t0 -19l-541 -1104q-70 -141 -176 -251.5t-209 -159.5q-29 -16 -41 4zM524 1272l211 276q14 18 37 19h117q14 0 16 -9.5t-8 -17.5l-252 -280 q-12 -12 -27 -13h-81q-29 0 -13 25z" />
<glyph unicode="&#xfe;" horiz-adv-x="1167" d="M27 -395l297 1894q2 20 26 21h125q12 0 18.5 -4.5t4.5 -16.5l-88 -569q53 76 148 136t212 60q156 0 240 -91t84 -240q0 -41 -7 -88l-49 -304q-33 -207 -148.5 -315t-283.5 -108q-115 0 -195.5 54t-119.5 124l-84 -553q-6 -23 -27 -23h-133q-26 0 -20 23zM330 393 q-4 -100 69.5 -181t182.5 -81q233 0 280 297l39 252q10 47 10 88q0 100 -51 153.5t-149 53.5q-121 0 -219.5 -93.5t-120.5 -234.5z" />
<glyph unicode="&#xff;" horiz-adv-x="962" d="M6 -330q-14 27 12 41q188 92 299 305l-202 1069q-4 23 18 23h146q23 0 24 -23l141 -868l396 866q14 25 32 25h134q14 0 20 -8t0 -19l-541 -1104q-70 -141 -176 -251.5t-209 -159.5q-29 -16 -41 4zM352 1307l25 170q6 31 33 30h104q33 0 27 -32l-27 -168q-6 -31 -33 -31 h-108q-27 0 -21 31zM713 1307l26 170q6 31 33 30h107q31 0 24 -32l-26 -168q-6 -31 -35 -31h-107q-28 0 -22 31z" />
<glyph unicode="&#x152;" horiz-adv-x="1861" d="M104 461l89 559q35 223 192.5 353t409.5 130q221 0 323 -143l19 123h753q23 0 19 -27l-19 -113q-4 -27 -26 -26h-568l-73 -479h518q16 0 16 -27l-16 -111q-4 -25 -27 -24h-518l-80 -512h567q25 0 21 -25l-18 -114q-6 -25 -25 -25h-756l19 123q-145 -145 -367 -146 q-244 0 -365 139.5t-88 344.5zM291 473q-25 -156 50 -242t241 -86q168 0 271 86t126 240l86 543q23 152 -55 236.5t-242 84.5q-168 0 -267.5 -88t-123.5 -248z" />
<glyph unicode="&#x153;" horiz-adv-x="1765" d="M84 307q0 47 8 99l49 299q66 422 510 421q223 0 320 -147q125 147 356 147q164 0 268.5 -94t104.5 -225q0 -111 -31 -258q-6 -41 -53 -41h-621q-23 -125 -22 -176q0 -90 55 -145.5t158 -55.5q100 0 166.5 46t97.5 118q14 33 47 20l92 -36q31 -10 10 -56 q-113 -244 -438 -243q-217 0 -307 147q-131 -147 -385 -147q-178 0 -281.5 91t-103.5 236zM266 334q2 -100 63.5 -151.5t164.5 -51.5q121 0 202.5 72.5t104.5 216.5l41 244q10 61 10 106q0 98 -58.5 151.5t-164.5 53.5q-123 0 -206 -73t-106 -214l-43 -264q-8 -49 -8 -90z M1016 639h497q16 82 17 154q0 84 -56.5 136t-152.5 52q-117 0 -197 -73.5t-98 -202.5z" />
<glyph unicode="&#x178;" horiz-adv-x="1050" d="M109 1458q-10 25 12 25h147q20 0 29 -23l242 -684l454 692q10 14 27 15h154q27 0 14 -27l-580 -848l-94 -585q-6 -23 -29 -23h-137q-25 0 -18 23l94 585zM424 1704l25 170q6 31 32 31h107q31 0 24 -31l-26 -168q-6 -33 -33 -33h-107q-28 0 -22 31zM786 1704l25 170 q6 31 35 31h104q31 0 25 -31l-25 -168q-6 -33 -37 -33h-104q-29 0 -23 31z" />
<glyph unicode="&#x2c6;" horiz-adv-x="778" d="M203 1274l198 250q16 16 39 16h90q18 0 29 -16l123 -252q10 -23 -16 -23h-86q-18 0 -29 19l-78 182l-137 -182q-12 -18 -31 -19h-96q-22 0 -6 25z" />
<glyph unicode="&#x2dc;" horiz-adv-x="915" d="M201 1346q-10 12 20.5 48t85.5 67.5t105 31.5q59 0 122.5 -45t90.5 -45q41 0 70.5 27.5t45 47t25.5 7.5l49 -62q10 -14 0 -28q-35 -49 -90 -85t-116.5 -36t-123 45t-90.5 45q-63 0 -119 -76q-8 -12 -20 -2z" />
<glyph unicode="&#x2000;" horiz-adv-x="983" />
<glyph unicode="&#x2001;" horiz-adv-x="1968" />
<glyph unicode="&#x2002;" horiz-adv-x="983" />
<glyph unicode="&#x2003;" horiz-adv-x="1968" />
<glyph unicode="&#x2004;" horiz-adv-x="655" />
<glyph unicode="&#x2005;" horiz-adv-x="491" />
<glyph unicode="&#x2006;" horiz-adv-x="327" />
<glyph unicode="&#x2007;" horiz-adv-x="327" />
<glyph unicode="&#x2008;" horiz-adv-x="245" />
<glyph unicode="&#x2009;" horiz-adv-x="393" />
<glyph unicode="&#x200a;" horiz-adv-x="108" />
<glyph unicode="&#x2010;" horiz-adv-x="829" d="M66 559l16 98q4 25 24 25h639q23 0 19 -25l-14 -98q-4 -25 -27 -24h-637q-26 -1 -20 24z" />
<glyph unicode="&#x2011;" horiz-adv-x="829" d="M66 559l16 98q4 25 24 25h639q23 0 19 -25l-14 -98q-4 -25 -27 -24h-637q-26 -1 -20 24z" />
<glyph unicode="&#x2012;" horiz-adv-x="829" d="M66 559l16 98q4 25 24 25h639q23 0 19 -25l-14 -98q-4 -25 -27 -24h-637q-26 -1 -20 24z" />
<glyph unicode="&#x2013;" horiz-adv-x="1048" d="M96 551l15 94q4 25 24 25h803q20 0 16 -25l-14 -94q-4 -25 -25 -25h-802q-21 0 -17 25z" />
<glyph unicode="&#x2014;" horiz-adv-x="2052" d="M96 551l15 94q4 25 24 25h1807q20 0 16 -25l-14 -94q-4 -25 -25 -25h-1806q-21 0 -17 25z" />
<glyph unicode="&#x2018;" horiz-adv-x="364" d="M117 1049q49 326 284 475q20 12 35 -2l31 -39q16 -20 -6 -39q-82 -70 -112 -141.5t-56 -253.5q-6 -23 -29 -23h-127q-26 0 -20 23z" />
<glyph unicode="&#x2019;" horiz-adv-x="362" d="M111 1040q-16 20 8 39q80 68 108.5 138.5t59.5 257.5q4 23 26 22h127q25 0 21 -22q-51 -330 -287 -476q-18 -14 -31 2z" />
<glyph unicode="&#x201a;" horiz-adv-x="456" d="M-51 -199q-16 20 4 35q80 66 111.5 148t60.5 268q4 25 31 24h125q25 0 18 -24q-55 -348 -289 -496q-20 -12 -33 2z" />
<glyph unicode="&#x201c;" horiz-adv-x="718" d="M117 1055q51 326 284 473q20 12 35 -2l31 -39q18 -18 -6 -39q-82 -70 -112 -140.5t-56 -252.5q-6 -23 -29 -23h-127q-26 0 -20 23zM473 1055q47 326 287 473q18 14 33 -2l30 -39q18 -18 -8 -39q-80 -70 -109.5 -140.5t-58.5 -252.5q-4 -23 -26 -23h-127q-27 0 -21 23z " />
<glyph unicode="&#x201d;" horiz-adv-x="718" d="M113 1042q-23 18 6 39q82 68 110.5 138.5t57.5 255.5q6 23 28 22h127q25 0 19 -22q-51 -326 -285 -476q-20 -12 -33 2zM467 1042q-18 18 8 39q82 68 110.5 138.5t57.5 255.5q4 23 29 22h127q25 0 20 -22q-53 -326 -287 -476q-20 -14 -32 2z" />
<glyph unicode="&#x201e;" horiz-adv-x="811" d="M-53 -223q-16 20 6 39q82 68 110.5 137.5t57.5 257.5q4 23 31 22h124q25 0 21 -22q-53 -330 -287 -475q-20 -12 -35 2zM305 -223q-16 20 6 39q82 68 111 138.5t57 256.5q4 23 29 22h127q25 0 20 -22q-51 -328 -286 -475q-20 -12 -35 2z" />
<glyph unicode="&#x2022;" horiz-adv-x="745" d="M104 598q0 125 85 220t225 95q100 0 164.5 -60t64.5 -157q0 -125 -87 -222t-226 -97q-100 0 -163 61.5t-63 159.5z" />
<glyph unicode="&#x2026;" horiz-adv-x="1280" d="M25 31l32 213q4 33 33 32h107q31 0 24 -32l-33 -211q-6 -33 -32 -33h-111q-26 0 -20 31zM698 31l33 213q4 33 35 32h106q31 0 25 -32l-33 -211q-2 -33 -33 -33h-110q-25 0 -23 31zM700 31l33 213q4 33 35 32h106q31 0 25 -32l-33 -211q-2 -33 -32 -33h-111q-27 0 -23 31z " />
<glyph unicode="&#x202f;" horiz-adv-x="393" />
<glyph unicode="&#x2039;" horiz-adv-x="636" d="M94 635l359 395q23 31 43 10l77 -75q16 -14 2 -37l-294 -312l196 -374q12 -20 -12 -35l-86 -49q-25 -18 -39 8z" />
<glyph unicode="&#x203a;" horiz-adv-x="669" d="M94 233q-20 16 0 37l293 316l-197 364q-12 23 15 37l90 53q25 16 41 -8l239 -467l-362 -393q-27 -31 -43 -10z" />
<glyph unicode="&#x205f;" horiz-adv-x="491" />
<glyph unicode="&#x20ac;" horiz-adv-x="1308" d="M80 561l12 90q4 27 27 27h147l23 141h-146q-25 0 -20 27l16 90q4 27 25 27h149l11 67q33 211 182 341t371 130q180 0 292.5 -92t143.5 -229q8 -43 -31 -54l-106 -30q-31 -10 -37 20q-31 225 -283 225q-150 0 -238 -85t-110 -230l-8 -63h385q25 0 20 -27l-16 -90 q-4 -27 -27 -27h-387l-22 -141h389q20 0 16 -27l-12 -90q-4 -27 -27 -26h-387l-10 -60q-10 -61 -10 -102q0 -238 256 -238q258 0 354 225q16 37 45 27l92 -39q35 -16 15 -65q-145 -305 -531 -306q-203 0 -310.5 100.5t-107.5 287.5q0 61 11 112l8 58h-146q-24 -1 -18 26z " />
<glyph unicode="&#x2122;" horiz-adv-x="1171" d="M94 1421l8 47q2 14 13 15h405q10 0 8 -15l-8 -47q0 -18 -12 -18h-154l-78 -490q-4 -10 -14 -10h-74q-10 0 -10 10l80 490h-156q-8 0 -8 18zM504 913l86 560q4 10 14 10h105q6 0 12 -8l39 -273q16 -119 18 -162q12 29 35 86.5t31 75.5l125 273q2 8 12 8h106q12 0 13 -10 l-88 -560q-2 -10 -11 -10h-73q-10 0 -10 10l55 324l18 98l-196 -422q-4 -10 -13 -10h-51q-10 0 -10 10l-64 424q-4 -61 -10 -90l-51 -334q-2 -10 -12 -10h-74q-6 0 -6 10z" />
<glyph unicode="&#xe000;" horiz-adv-x="1110" d="M0 1110h1110v-1110h-1110v1110z" />
<glyph unicode="&#xfb01;" horiz-adv-x="1130" d="M137 23l139 901h-116q-18 0 -15 22l15 101q4 23 20 22h119l18 96q31 164 137.5 257.5t278.5 93.5q213 0 320 -146q23 -31 -4 -49l-78 -59q-20 -18 -43 8q-74 96 -193 96q-92 0 -157.5 -50t-83.5 -159l-15 -88h543q37 0 31 -39l-158 -1001q-6 -29 -31 -29h-127 q-27 0 -20 27l139 897h-399l-142 -901q-2 -23 -26 -23h-131q-23 0 -21 23z" />
<glyph unicode="&#xfb02;" horiz-adv-x="1134" d="M137 18l137 906h-112q-23 0 -19 24l17 96q4 25 24 25h115l18 98q29 154 149 250t286 96q186 0 329 -116q27 -20 21 -54l-207 -1316q-2 -27 -31 -27h-127q-27 0 -20 27l198 1271q-74 74 -184 74q-106 0 -164.5 -60.5t-72.5 -150.5l-15 -92h193q18 0 14 -22l-16 -101 q-4 -23 -23 -22h-192l-140 -906q-2 -18 -24 -18h-133q-6 0 -11.5 1t-7.5 5t-2 12z" />
<glyph unicode="&#xfb03;" horiz-adv-x="1908" d="M1493 27l164 1050q6 31 33 31h125q25 0 20 -29l-164 -1050q-6 -29 -32 -29h-123q-24 0 -24 18q0 4 1 9zM1692 1300l28 191q6 29 33 29h123q26 0 26 -20q0 -4 -1 -9l-29 -191q-6 -33 -37 -32h-123q-22 0 -21 21q0 5 1 11zM833 948l17 96q4 25 24 25h135l19 123 q51 328 336 328q154 0 247 -78q15 -12 15 -26q0 -11 -8 -23l-52 -70q-18 -25 -49 0q-61 45 -151 45q-131 0 -156 -166l-23 -133h271q23 0 18 -25l-14 -94q-4 -27 -27 -26h-270l-143 -901q-2 -23 -31 -23h-127q-25 0 -23 23l146 901h-135q-23 -1 -19 24zM133 948l17 96 q4 25 24 25h135l19 123q51 328 336 328q154 0 247 -78q15 -12 15 -26q0 -11 -8 -23l-52 -70q-18 -25 -49 0q-61 45 -151 45q-131 0 -156 -166l-23 -133h271q23 0 18 -25l-14 -94q-4 -27 -27 -26h-270l-143 -901q-2 -23 -31 -23h-127q-25 0 -23 23l146 901h-135 q-23 -1 -19 24z" />
<glyph unicode="&#xfb04;" horiz-adv-x="1910" d="M1491 27l229 1468q6 25 31 25h127q27 0 23 -27l-232 -1468q-2 -25 -30 -25h-125q-27 0 -23 27zM833 948l17 96q4 25 24 25h135l19 123q51 328 336 328q154 0 247 -78q15 -12 15 -26q0 -11 -8 -23l-52 -70q-18 -25 -49 0q-61 45 -151 45q-131 0 -156 -166l-23 -133h271 q23 0 18 -25l-14 -94q-4 -27 -27 -26h-270l-143 -901q-2 -23 -31 -23h-127q-25 0 -23 23l146 901h-135q-23 -1 -19 24zM133 948l17 96q4 25 24 25h135l19 123q51 328 336 328q154 0 247 -78q15 -12 15 -26q0 -11 -8 -23l-52 -70q-18 -25 -49 0q-61 45 -151 45 q-131 0 -156 -166l-23 -133h271q23 0 18 -25l-14 -94q-4 -27 -27 -26h-270l-143 -901q-2 -23 -31 -23h-127q-25 0 -23 23l146 901h-135q-23 -1 -19 24z" />
</font>
</defs>
</svg>
