<?xml version="1.0" standalone="no"?>
<!DOCTYPE svg PUBLIC "-//W3C//DTD SVG 1.1//EN" "http://www.w3.org/Graphics/SVG/1.1/DTD/svg11.dtd" >
<svg xmlns="http://www.w3.org/2000/svg">
<metadata>
This is a custom SVG webfont generated by Font Squirrel.
Copyright   : Copyright c 2010 Miles Newlyn All rights reserved
Designer    : Miles Newlyn
</metadata>
<defs>
<font id="FrankThin" horiz-adv-x="1337" >
<font-face units-per-em="2048" ascent="1536" descent="-512" />
<missing-glyph horiz-adv-x="466" />
<glyph unicode=" "  horiz-adv-x="466" />
<glyph unicode="&#x09;" horiz-adv-x="466" />
<glyph unicode="&#xa0;" horiz-adv-x="466" />
<glyph unicode="!" horiz-adv-x="452" d="M184 1489q0 20 23 20h41q20 0 20 -18l-8 -1026q0 -16 -16 -16h-35q-16 0 -16 16zM188 25v151q0 25 23 25h35q25 0 24 -29v-145q0 -27 -24 -27h-35q-23 0 -23 25z" />
<glyph unicode="&#x22;" horiz-adv-x="485" d="M76 1493q0 16 16 16h64q18 0 18 -16l-18 -485q0 -18 -15 -19h-30q-16 0 -17 19zM311 1493q0 16 17 16h63q18 0 19 -16l-19 -485q0 -18 -14 -19h-31q-16 0 -16 19z" />
<glyph unicode="#" horiz-adv-x="1249" d="M68 526v39q0 16 16 17h242l77 370h-225q-16 0 -16 19v35q0 16 16 16h240l98 471q4 16 19 16h40q18 0 15 -18l-98 -469h385l96 469q2 18 18 18h43q18 0 17 -18l-97 -469h211q16 0 17 -18v-35q0 -16 -17 -17h-227l-76 -370h207q18 0 18 -19v-37q0 -16 -18 -16h-221 l-103 -494q-2 -16 -20 -16h-45q-16 0 -12 18l102 492h-383l-100 -492q-4 -18 -23 -18h-41q-18 0 -14 18l102 492h-227q-16 0 -16 16zM401 582h383l76 370h-383z" />
<glyph unicode="$" horiz-adv-x="1024" d="M80 360q-4 29 12 31l45 10q23 4 27 -18q18 -117 112.5 -190.5t245.5 -73.5q164 0 255 77.5t91 213.5q0 117 -77.5 181t-253.5 130q-88 33 -137.5 53.5t-111 56t-92 72.5t-53 94.5t-22.5 128.5q0 133 99 228.5t259 105.5v166q0 27 25 27h37q25 0 24 -27v-168 q154 -12 247 -90t118 -178q6 -31 -15 -37l-41 -12q-20 -4 -24 16q-12 90 -99 156.5t-229 66.5q-145 0 -232 -73.5t-87 -184.5q0 -119 73.5 -177t260.5 -130q109 -43 167 -70.5t125.5 -75.5t96 -111.5t28.5 -149.5q0 -170 -108.5 -262.5t-280.5 -104.5v-176q0 -23 -22 -23 h-37q-23 0 -23 23v174q-168 10 -272 99t-131 222z" />
<glyph unicode="%" horiz-adv-x="1425" d="M111 1001v299q0 109 61 165.5t174 56.5t177.5 -57.5t64.5 -164.5v-299q0 -106 -64.5 -163.5t-177.5 -57.5t-174 56t-61 165zM186 995q0 -145 160 -145q72 0 118 35t46 110v312q0 76 -46 110.5t-118 34.5q-160 0 -160 -145v-312zM301 23l758 1472q8 14 26 14h39 q23 0 13 -22l-752 -1469q-10 -18 -31 -18h-41q-22 0 -12 23zM838 207v299q0 109 61.5 165t174 56t177 -57.5t64.5 -163.5v-299q0 -106 -64.5 -163.5t-177 -57.5t-174 56t-61.5 165zM913 201q0 -145 160 -146q72 0 118 35t46 111v311q0 76 -46 110.5t-118 34.5 q-160 0 -160 -145v-311z" />
<glyph unicode="&#x26;" horiz-adv-x="1351" d="M127 432q0 305 311 471q-8 10 -39.5 47t-42 49.5t-34 43t-31.5 49t-21.5 46t-17.5 53.5t-4 54q0 129 83 217t236 88q238 0 320 -235q8 -25 -19 -31l-26 -8q-10 -6 -19.5 -4t-15.5 20q-61 178 -238 185q-111 2 -175 -64.5t-64 -167.5q0 -68 36.5 -128t143.5 -179l520 -590 q25 82 25 238v205q0 29 24 28h31q27 0 27 -28v-170q0 -229 -45 -340l227 -252q10 -14 5 -21.5t-19 -7.5h-48q-16 0 -36 20l-166 189q-74 -109 -193 -167t-260 -58q-221 0 -348 123.5t-127 324.5zM211 430q0 -127 62.5 -215t148.5 -124t182 -36q264 0 395 215l-512 574 q-276 -129 -276 -414z" />
<glyph unicode="'" horiz-adv-x="258" d="M76 1493q0 16 16 16h64q18 0 18 -16l-18 -485q0 -18 -15 -19h-30q-16 0 -17 19z" />
<glyph unicode="(" horiz-adv-x="675" d="M164 662q0 162 32.5 314t84 266t91.5 181.5t79 118.5q10 12 24 2l29 -16q14 -10 4 -27q-92 -115 -172 -341t-80 -501q0 -260 79 -476t177 -353q10 -16 -4 -27l-33 -16q-14 -10 -24 2q-287 404 -287 873z" />
<glyph unicode=")" horiz-adv-x="675" d="M164 -170q98 137 177 353t79 476q0 274 -80 500.5t-172 341.5q-10 16 4 27l29 16q14 10 24 -2q39 -51 79 -118.5t91 -181.5t84 -266.5t33 -313.5q0 -469 -287 -873q-10 -12 -24 -2l-33 16q-14 11 -4 27z" />
<glyph unicode="*" horiz-adv-x="696" d="M90 1298l12 39q6 20 23 13l201 -84l-17 225q-2 10 4 14t17 4h41q18 0 16 -18l-16 -225l198 82q18 8 25 -9l12 -43q8 -18 -12 -22l-207 -51l139 -172q10 -14 -2 -23l-37 -27q-12 -10 -22 7l-115 186l-119 -188q-12 -18 -26 -7l-33 25q-14 10 -4 25l143 174l-211 53 q-18 4 -10 22z" />
<glyph unicode="+" horiz-adv-x="1208" d="M88 612v41q0 18 16 19h461v463q0 16 15 16h47q14 0 14 -16v-463h463q16 0 16 -19v-41q0 -18 -16 -18h-463v-463q0 -16 -14 -16h-47q-14 0 -15 16v463h-461q-16 0 -16 18z" />
<glyph unicode="," horiz-adv-x="337" d="M66 -170q-10 8 2 20q53 68 67.5 140.5t14.5 249.5q0 12 16 12h51q12 0 12 -12q0 -156 -20.5 -248t-89.5 -172q-16 -16 -29 -6z" />
<glyph unicode="-" horiz-adv-x="851" d="M125 592v33q0 20 16 20h570q16 0 16 -20v-33q0 -20 -16 -21h-570q-16 1 -16 21z" />
<glyph unicode="." horiz-adv-x="329" d="M123 25v202q0 25 22 25h37q25 0 25 -27v-198q0 -27 -25 -27h-37q-22 0 -22 25z" />
<glyph unicode="/" horiz-adv-x="733" d="M2 20l649 1475q6 14 21 14h49q20 0 12 -20l-649 -1475q-6 -14 -21 -14h-49q-20 0 -12 20z" />
<glyph unicode="0" horiz-adv-x="1204" d="M160 397v690q0 209 115.5 315.5t326.5 106.5q213 0 327.5 -104.5t114.5 -312.5v-691q0 -209 -115.5 -315t-326.5 -106q-213 0 -327.5 104t-114.5 313zM242 395q0 -164 92 -251t268 -87q360 0 361 338v699q0 164 -92.5 251t-268.5 87q-360 0 -360 -338v-699z" />
<glyph unicode="1" horiz-adv-x="1060" d="M137 1292q-4 18 17 25q252 57 317 100q33 23 76 80h53v-1419h318q16 0 16 -21v-37q0 -20 -16 -20h-711q-18 0 -19 20v37q0 20 19 21h311v1235l-350 -68q-25 -4 -27 17z" />
<glyph unicode="2" horiz-adv-x="1202" d="M162 0v145q0 193 98 314t371 258q215 109 277.5 188.5t62.5 214.5q0 141 -96.5 226.5t-237.5 85.5q-143 0 -225 -58.5t-140 -185.5q-10 -20 -32 -10l-29 12q-25 12 -10 43q59 133 159.5 204.5t274.5 71.5q186 0 302 -112.5t116 -282.5q0 -166 -80 -261t-309 -212 q-254 -131 -337 -230.5t-83 -265.5v-67h782q20 0 21 -23v-30q0 -25 -21 -25h-864z" />
<glyph unicode="3" horiz-adv-x="1163" d="M111 274q-12 39 14 50l25 10q31 12 34 -15q29 -115 125.5 -188.5t256 -73.5t263 87t103.5 245v27q0 154 -99.5 241.5t-261.5 87.5h-79q-20 0 -21 23v29q0 25 21 24h79q133 0 221.5 81t88.5 206v25q0 145 -87 222t-225 77q-246 0 -333 -242q-12 -29 -31 -21l-33 17 q-23 10 -12 37q51 129 153.5 207.5t251.5 78.5q186 0 292 -102t106 -279v-20q0 -117 -66 -201t-174 -119q133 -29 212 -126t79 -244v-23q0 -184 -124 -299.5t-323 -115.5q-190 0 -301.5 86.5t-154.5 207.5z" />
<glyph unicode="4" horiz-adv-x="1196" d="M96 473q-4 14 8 33l705 991q16 25 37 6l26 -20q23 -16 7 -37l-658 -926h529v332q0 18 22 18h39q20 0 20 -18v-332h216q20 0 20 -22v-37q0 -20 -20 -21h-216v-446q0 -18 -20 -19h-39q-23 0 -22 19v446h-627q-18 0 -23 15z" />
<glyph unicode="5" horiz-adv-x="1173" d="M156 272q-14 39 6 47l33 17q31 12 34 -17q27 -111 121 -186.5t246 -75.5q170 0 263 101.5t93 287.5v54q0 381 -323 381q-221 0 -328 -183q-14 -25 -39 -10l-29 14q-23 12 -20 31l55 764h650q20 0 20 -24v-33q0 -23 -20 -23h-570l-45 -602h2q119 145 324 146 q195 0 302 -120t107 -345v-45q0 -213 -117.5 -342t-322.5 -129q-184 0 -292.5 85.5t-149.5 206.5z" />
<glyph unicode="6" horiz-adv-x="1218" d="M160 432v512q0 279 124 422t345 143q168 0 274.5 -81.5t145.5 -202.5q10 -27 -13 -37l-30 -17q-23 -10 -33 17q-86 244 -344 244q-381 0 -387 -488v-209l2 -2q45 100 149.5 165t245.5 65q193 0 311.5 -119t118.5 -328v-86q0 -207 -129 -328.5t-303 -121.5 q-223 0 -350 125.5t-127 326.5zM246 436q0 -170 100 -274.5t291 -104.5q152 0 251 105.5t99 273.5v68q0 180 -90 279.5t-256 99.5q-176 0 -285.5 -104.5t-109.5 -276.5v-66z" />
<glyph unicode="7" horiz-adv-x="1036" d="M127 1440v33q0 25 18 24h793q25 0 25 -24v-31q0 -23 -17 -45q-219 -322 -394 -723.5t-175 -655.5q0 -18 -23 -18h-39q-25 0 -24 18q0 252 174 655.5t403 743.5h-723q-18 0 -18 23z" />
<glyph unicode="8" horiz-adv-x="1212" d="M150 379v57q0 145 77.5 238.5t208.5 128.5q-236 84 -235 315v41q0 164 111.5 257t293.5 93t294 -93t112 -257v-41q0 -233 -236 -317q131 -35 209 -128t78 -237v-57q0 -180 -123 -289.5t-334 -109.5t-333.5 108.5t-122.5 290.5zM231 381q0 -154 100.5 -239t274.5 -85 t274.5 85t100.5 239v49q0 156 -101.5 241t-273.5 85t-273.5 -85t-101.5 -241v-49zM283 1108q0 -119 92 -192.5t231 -73.5q137 0 230.5 73.5t93.5 192.5v53q0 133 -91 202t-232.5 69t-232.5 -69t-91 -202v-53z" />
<glyph unicode="9" horiz-adv-x="1181" d="M125 997v66q0 201 123 323.5t330 122.5q213 0 328.5 -126t115.5 -345v-559q0 -233 -126 -366t-327 -133q-262 0 -389 180q-23 29 -2 45l27 20q20 16 37 -8q98 -160 327 -160q166 0 268.5 108.5t102.5 315.5v246q-51 -96 -149.5 -149.5t-225.5 -53.5q-205 0 -322.5 128 t-117.5 345zM207 997q0 -176 92 -285.5t266 -109.5q162 0 268.5 102.5t106.5 253.5v86q0 186 -97.5 287t-264.5 101q-162 0 -266.5 -95.5t-104.5 -269.5v-70z" />
<glyph unicode=":" horiz-adv-x="385" d="M152 25v202q0 25 22 25h37q25 0 25 -27v-198q0 -27 -25 -27h-37q-22 0 -22 25zM152 891v203q0 25 22 24h37q25 0 25 -26v-199q0 -27 -25 -27h-37q-22 0 -22 25z" />
<glyph unicode=";" horiz-adv-x="385" d="M72 -170q-10 8 2 20q53 68 67.5 140.5t14.5 249.5q0 12 14 12h51q12 0 12 -12q0 -158 -20 -249t-88 -171q-16 -16 -29 -6zM156 891v203q0 25 22 24h37q25 0 25 -26v-199q0 -27 -25 -27h-37q-22 0 -22 25z" />
<glyph unicode="&#x3c;" horiz-adv-x="989" d="M141 608v47q0 20 17 27l645 248q27 10 26 -17v-36q0 -16 -14 -25l-584 -217l582 -215q16 -6 16 -27v-37q0 -12 -8 -16t-16 0l-647 244q-17 6 -17 24z" />
<glyph unicode="=" horiz-adv-x="1003" d="M133 477v35q0 23 17 23h704q16 0 16 -23v-35q0 -20 -16 -20h-704q-17 0 -17 20zM133 760v35q0 23 17 22h704q16 0 16 -22v-35q0 -20 -16 -21h-704q-17 1 -17 21z" />
<glyph unicode="&#x3e;" horiz-adv-x="989" d="M160 352v37q0 16 14 25l584 217l-582 215q-16 6 -16 26v37q0 12 8 16.5t16 0.5l647 -244q16 -6 17 -25v-47q0 -20 -17 -26l-645 -248q-26 -11 -26 16z" />
<glyph unicode="?" horiz-adv-x="837" d="M66 1356q-16 12 2 33q135 147 331 147q170 0 259.5 -100.5t89.5 -253.5q0 -78 -37 -151t-90.5 -129t-106.5 -111.5t-90 -123t-37 -139.5v-51q0 -27 -27 -26h-36q-23 0 -23 24v53q0 76 37 149t90 130t106.5 113.5t90.5 124t37 137.5q0 129 -67 202.5t-198 73.5 q-170 0 -270 -127q-16 -18 -33 -2zM301 25v151q0 25 23 25h36q27 0 27 -29v-145q0 -27 -27 -27h-36q-23 0 -23 25z" />
<glyph unicode="@" horiz-adv-x="1769" d="M170 453v305q0 297 198.5 452.5t524.5 155.5q340 0 530.5 -145.5t190.5 -444.5v-321q0 -137 -73 -223.5t-204 -86.5q-145 0 -207 113l-8 16q-106 -135 -282 -135q-111 0 -191 75t-80 196v18q0 139 120 203.5t411 52.5v51q0 240 -213 240q-170 0 -217 -141q-8 -23 -29 -13 l-31 15q-16 10 -8 30q27 76 98.5 128.5t184.5 52.5q154 0 225.5 -81t71.5 -245v-338q0 -84 46 -127t107 -43q197 0 197 242v319q0 516 -639 516q-313 0 -477 -144.5t-164 -389.5v-301q0 -119 31.5 -216.5t98.5 -176t186.5 -122.5t283.5 -44q106 0 203.5 18t135.5 31.5 t114 44.5q16 6 22 -10l12 -37q6 -18 -10 -25q-211 -98 -475 -98q-188 0 -325.5 52t-213 145.5t-110.5 201t-35 234.5zM651 408q0 -88 55.5 -141.5t147.5 -53.5q152 0 246 133v268q-258 8 -353.5 -37t-95.5 -157v-12z" />
<glyph unicode="A" horiz-adv-x="1071" d="M35 25l452 1452q6 18 23 18h55q16 0 23 -18l444 -1452q2 -7 2 -12q0 -13 -16 -13h-45q-18 0 -23 16l-147 476h-541l-149 -476q-4 -16 -23 -16h-41q-17 0 -16 13q0 5 2 12zM287 567h491l-241 817z" />
<glyph unicode="B" horiz-adv-x="1142" d="M195 0v1497h393q199 0 300 -94t101 -260v-53q0 -123 -63.5 -209t-165.5 -109q119 -25 190.5 -115t71.5 -231v-61q0 -178 -108.5 -271.5t-284.5 -93.5h-434zM276 78h334q160 0 245 69.5t85 231.5v33q0 315 -332 315h-332v-649zM276 807h336q123 0 209 70.5t86 216.5v36 q0 289 -311 289h-320v-612z" />
<glyph unicode="C" horiz-adv-x="1157" d="M174 430v623q0 233 134 344.5t345 111.5q319 0 428 -297q2 -8 3 -13q0 -15 -15 -21l-35 -15q-23 -12 -30 15q-82 254 -351 254q-397 0 -397 -394v-587q0 -393 387 -394q133 0 228.5 71t123.5 179q6 29 33 17l29 -11q23 -8 14 -37q-37 -123 -156.5 -209.5t-273.5 -86.5 q-205 0 -336 108.5t-131 341.5z" />
<glyph unicode="D" horiz-adv-x="1280" d="M195 0v1497h417q223 0 358.5 -120t135.5 -357v-543q0 -238 -135 -357.5t-359 -119.5h-417zM276 78h336q412 0 412 420v501q0 420 -412 420h-336v-1341z" />
<glyph unicode="E" horiz-adv-x="1015" d="M195 0v1497h700q18 0 18 -20v-35q0 -23 -18 -23h-619v-612h566q16 0 16 -23v-34q0 -20 -16 -21h-566v-651h617q18 0 18 -21v-37q0 -20 -18 -20h-698z" />
<glyph unicode="F" horiz-adv-x="946" d="M195 18v1479h671q16 0 17 -22v-33q0 -23 -17 -23h-590v-643h549q18 0 19 -20v-35q0 -23 -19 -23h-549v-680q0 -18 -22 -18h-37q-22 0 -22 18z" />
<glyph unicode="G" horiz-adv-x="1259" d="M174 457v575q0 240 130 358.5t351 118.5q188 0 299 -71.5t172 -220.5q5 -11 5 -19q0 -14 -13 -20l-35 -15q-25 -10 -32 13q-47 135 -138.5 195.5t-257.5 60.5q-399 0 -399 -420v-535q0 -420 399 -420q174 0 281.5 85t107.5 251v264h-344q-18 0 -18 23v31q0 25 18 24h400 q29 0 28 -28v-312q0 -195 -130 -305t-343 -110q-221 0 -351 118.5t-130 358.5z" />
<glyph unicode="H" horiz-adv-x="1333" d="M195 18v1461q0 18 22 18h37q23 0 22 -18v-680h781v680q0 18 22 18h37q23 0 23 -18v-1461q0 -18 -23 -18h-37q-23 0 -22 18v703h-781v-703q0 -18 -22 -18h-37q-22 0 -22 18z" />
<glyph unicode="I" horiz-adv-x="471" d="M195 18v1461q0 18 22 18h37q23 0 22 -18v-1461q0 -18 -22 -18h-37q-22 0 -22 18z" />
<glyph unicode="J" horiz-adv-x="827" d="M31 164l22 20q25 25 45 -4q90 -119 242 -119q256 0 256 310v1108q0 18 22 18h37q23 0 23 -18v-1106q0 -197 -89 -295t-251 -98q-186 0 -303 143q-11 14 -12 25q1 9 8 16z" />
<glyph unicode="K" horiz-adv-x="1062" d="M195 18v1461q0 18 22 18h37q23 0 22 -18v-783l617 785q12 16 31 16h55q8 0 11 -6t-3 -14l-485 -613l516 -837q5 -9 5 -15q0 -12 -19 -12h-43q-23 0 -33 16l-482 789l-170 -211v-576q0 -18 -22 -18h-37q-22 0 -22 18z" />
<glyph unicode="L" horiz-adv-x="956" d="M195 0v1481q0 16 22 16h39q20 0 20 -16v-1403h652q18 0 18 -21v-37q0 -20 -18 -20h-733z" />
<glyph unicode="M" horiz-adv-x="1558" d="M197 18v1452q0 27 28 27h80q23 0 31 -22l448 -1354l439 1354q8 23 30 22h84q29 0 29 -27v-1450q0 -20 -18 -20h-50q-14 0 -14 20v1369h-2l-451 -1371q-6 -18 -26 -18h-43q-23 0 -27 18l-456 1377h-3v-1377q0 -18 -20 -18h-43q-16 0 -16 18z" />
<glyph unicode="N" horiz-adv-x="1357" d="M195 16v1461q0 20 22 20h82q16 0 29 -22l757 -1371h2q-4 127 -4 375v1002q0 16 17 16h45q18 0 18 -16v-1461q0 -12 -4 -16t-18 -4h-76q-16 0 -27 18l-766 1389h-2q4 -129 4 -371v-1020q0 -16 -18 -16h-45q-16 0 -16 16z" />
<glyph unicode="O" horiz-adv-x="1335" d="M174 457v575q0 238 135 357.5t358.5 119.5t358.5 -119.5t135 -357.5v-575q0 -238 -135 -357.5t-358.5 -119.5t-358.5 119.5t-135 357.5zM256 477q0 -420 411.5 -420t411.5 420v535q0 420 -411.5 420t-411.5 -420v-535z" />
<glyph unicode="P" horiz-adv-x="1099" d="M195 18v1479h383q227 0 326.5 -104.5t99.5 -302.5v-41q0 -420 -426 -420h-302v-611q0 -18 -22 -18h-37q-22 0 -22 18zM276 707h295q190 0 270.5 85t80.5 252v52q0 166 -79 244.5t-272 78.5h-295v-712z" />
<glyph unicode="Q" d="M174 457v575q0 238 135 357.5t358.5 119.5t358.5 -119.5t135 -357.5v-575q0 -238 -135 -357.5t-358.5 -119.5t-358.5 119.5t-135 357.5zM256 477q0 -420 411.5 -420t411.5 420v535q0 420 -411.5 420t-411.5 -420v-535zM645 426q-4 8 -4 14q0 11 16 11h48q16 0 28 -21 l391 -719q5 -8 5 -13q0 -11 -21 -11h-45q-12 0 -25 20z" />
<glyph unicode="R" horiz-adv-x="1130" d="M195 18v1479h360q227 0 326.5 -102.5t99.5 -300.5v-39q0 -166 -66.5 -265.5t-226.5 -140.5l336 -624q4 -7 4 -13q0 -12 -20 -12h-47q-18 0 -27 16l-328 623h-330v-621q0 -18 -22 -18h-37q-22 0 -22 18zM276 717h275q195 0 271.5 83t76.5 251v51q0 162 -79 239.5 t-269 77.5h-275v-702z" />
<glyph unicode="S" horiz-adv-x="1003" d="M66 283q-2 7 -2 13q0 19 20 26l31 12q27 10 30 -15q23 -119 120 -190.5t245 -71.5q145 0 237.5 78t92.5 221q0 131 -76 207t-270 168q-203 96 -295.5 188.5t-92.5 231.5q0 160 106.5 259t295.5 99q154 0 256 -77.5t149 -206.5q10 -27 -10 -35l-35 -16q-25 -10 -30 12 q-80 246 -340 246q-147 0 -228.5 -77t-81.5 -202q0 -100 67 -174t271 -170q207 -96 301.5 -189.5t94.5 -252.5q0 -178 -114 -282.5t-294 -104.5q-182 0 -294.5 81t-153.5 222z" />
<glyph unicode="T" horiz-adv-x="964" d="M-10 1442v33q0 23 16 22h952q16 0 17 -22v-33q0 -23 -17 -23h-438v-1401q0 -18 -22 -18h-37q-23 0 -23 18v1401h-432q-16 0 -16 23z" />
<glyph unicode="U" horiz-adv-x="1267" d="M174 455v1024q0 18 23 18h34q23 0 23 -18v-1002q0 -420 379 -420q381 0 381 420v1002q0 18 22 18h37q23 0 23 -18v-1024q0 -238 -126 -356.5t-337 -118.5q-209 0 -334 118.5t-125 356.5z" />
<glyph unicode="V" horiz-adv-x="1099" d="M51 1477q-1 5 -1 8q0 12 16 12h55q16 0 20 -18l226 -772q29 -96 91 -299t91 -302h2q29 98 90 299t90 300l232 774q4 18 20 18h49q20 0 20 -14q0 -4 -1 -8l-445 -1455q-4 -20 -28 -20h-60q-20 0 -29 20z" />
<glyph unicode="W" horiz-adv-x="1640" d="M53 1475q-1 5 -1 8q0 14 18 14h47q20 0 24 -18l297 -1370h2l314 1368q4 20 28 20h72q23 0 29 -20l319 -1368h2l293 1370q4 18 25 18h47q22 0 21 -15q0 -3 -1 -7l-323 -1457q-4 -18 -31 -18h-64q-25 0 -28 18l-324 1360h-2l-319 -1358q-4 -20 -29 -20h-66q-23 0 -28 20z " />
<glyph unicode="X" horiz-adv-x="1081" d="M41 23l442 733l-436 712q-8 12 -3 20.5t17 8.5h54q14 0 26 -18l391 -654l388 654q10 18 28 18h51q12 0 16.5 -7t-1.5 -15l-434 -721l446 -729q3 -8 3 -14q0 -11 -13 -11h-60q-14 0 -26 18l-398 662l-397 -662q-12 -18 -33 -18h-49q-16 0 -16 10q0 5 4 13z" />
<glyph unicode="Y" horiz-adv-x="1009" d="M10 1477q-3 6 -3 10q0 10 18 10h51q18 0 26 -14l402 -760l405 756q10 18 29 18h49q17 0 17 -11q0 -5 -3 -11l-456 -840v-619q0 -16 -21 -16h-45q-18 0 -18 16v617z" />
<glyph unicode="Z" horiz-adv-x="1062" d="M63 70l832 1349h-774q-16 0 -17 23v33q0 23 17 22h844q20 0 26 -20l10 -45l-837 -1354h823q18 0 19 -21v-34q0 -23 -19 -23h-887q-25 0 -26 20z" />
<glyph unicode="[" horiz-adv-x="587" d="M174 -272v1833h297q16 0 16 -21v-31q0 -23 -18 -22h-213v-1686h215q16 0 16 -22v-29q0 -23 -20 -22h-293z" />
<glyph unicode="\" horiz-adv-x="739" d="M-4 1501q2 8 16 8h43q14 0 21 -14l649 -1470q10 -25 -14 -25h-37q-18 0 -27 18l-649 1471q-4 4 -2 12z" />
<glyph unicode="]" horiz-adv-x="587" d="M100 -221q0 23 17 22h215v1686h-213q-18 0 -19 22v31q0 20 17 21h297v-1833h-293q-20 0 -21 22v29z" />
<glyph unicode="^" horiz-adv-x="1017" d="M203 809l243 641q6 16 25 16h55q18 0 27 -18l258 -643q8 -25 -18 -25h-41q-20 0 -29 23l-223 577l-211 -577q-8 -23 -29 -23h-37q-32 0 -20 29z" />
<glyph unicode="_" horiz-adv-x="796" d="M0 -133h797v-82h-797v82z" />
<glyph unicode="`" horiz-adv-x="688" d="M206 1536q3 8 13 8h55q16 0 33 -20l174 -271q6 -8 2 -15t-16 -7h-31q-14 0 -24 12l-205 281q-4 4 -1 12z" />
<glyph unicode="a" horiz-adv-x="985" d="M94 307v6q0 188 157 269q127 65 389 65q60 0 128 -4v88q0 172 -67.5 251t-202.5 79q-205 0 -273 -195q-8 -25 -37 -14l-26 10q-23 8 -10 35q94 236 342 236q186 0 269 -105.5t83 -304.5v-707q0 -16 -21 -16h-34q-20 0 -21 16v109q-166 -141 -352 -141q-133 0 -228.5 85.5 t-95.5 237.5zM172 301q0 -106 73.5 -176t186.5 -70q180 0 336 152v364q-61 3 -116 3q-227 0 -340 -48q-140 -59 -140 -209v-16z" />
<glyph unicode="b" horiz-adv-x="1071" d="M166 16v1504q0 16 16 16h43q18 0 19 -16v-615q47 98 136 163t218 65q358 0 358 -422v-283q0 -209 -104 -326.5t-287 -117.5q-123 0 -207 51t-114 117v-136q0 -16 -21 -16h-37q-20 0 -20 16zM244 340q0 -127 89 -206t230 -79q150 0 234 94.5t84 286.5v269q0 356 -283 356 q-145 0 -249.5 -110.5t-104.5 -260.5v-350z" />
<glyph unicode="c" horiz-adv-x="933" d="M115 401v299q0 203 102 318t295 115q137 0 231.5 -64.5t122.5 -171.5q3 -9 3 -16q0 -15 -13 -21l-31 -10q-27 -8 -30 14q-18 86 -93 141.5t-190 55.5q-319 0 -319 -365v-288q0 -352 319 -353q111 0 184.5 49.5t98.5 133.5q8 25 30 14l33 -16q9 -4 9 -17q0 -7 -3 -16 q-35 -100 -126 -159.5t-226 -59.5q-188 0 -292.5 109t-104.5 308z" />
<glyph unicode="d" horiz-adv-x="1075" d="M115 391v318q0 195 104.5 310.5t272.5 115.5q127 0 216 -53.5t126 -129.5v568q0 16 22 16h33q23 0 22 -16v-1504q0 -16 -22 -16h-35q-20 0 -20 16v146q-41 -74 -129.5 -126t-204.5 -52q-176 0 -280.5 107t-104.5 300zM193 408q0 -178 87 -265.5t234 -87.5q131 0 225.5 88 t94.5 203v402q0 143 -94.5 229t-241.5 86q-139 0 -222 -97.5t-83 -273.5v-284z" />
<glyph unicode="e" horiz-adv-x="1007" d="M115 399v336q0 178 112.5 288t282.5 110q184 0 293.5 -110t109.5 -308v-142q0 -47 -49 -47h-671v-114q0 -166 86 -261.5t245 -95.5q129 0 200 46t107 130q10 23 33 11l25 -13q16 -8 8 -30q-84 -215 -373 -215q-195 0 -302 112.5t-107 302.5zM193 602h643v100 q0 178 -87 268.5t-239 90.5q-133 0 -225 -85t-92 -249v-125z" />
<glyph unicode="f" horiz-adv-x="612" d="M86 1034v27q0 20 16 20h105v168q0 139 70.5 214t175.5 75q129 0 206 -90q10 -13 11 -23q0 -8 -6 -14l-21 -20q-20 -20 -35 4q-55 72 -159 71q-164 0 -164 -227v-158h313q16 0 16 -20v-27q0 -20 -16 -20h-313v-998q0 -16 -19 -16h-37q-23 0 -22 16v998h-105q-16 0 -16 20z " />
<glyph unicode="g" horiz-adv-x="1032" d="M74 -106q0 256 223 335q-106 47 -107 129q0 90 99 129q-80 41 -127 115t-47 170v16q0 164 106.5 254.5t278.5 90.5q166 0 262 -70q111 66 196 65q25 0 25 -24v-37q0 -25 -31 -25q-102 0 -153 -16q86 -96 86 -235v-15q0 -160 -103.5 -247t-277.5 -87q-90 0 -158 21 q-86 -31 -86 -92q0 -43 41 -63.5t125 -35.5l209 -36q186 -33 262 -104t76 -228q0 -154 -115 -246t-334 -92t-334.5 86t-115.5 242zM152 -92q0 -133 95 -204t279 -71q369 0 369 273q0 115 -52 171t-214 85l-258 45q-219 -72 -219 -299zM193 780q0 -137 81.5 -202.5 t225.5 -65.5q307 0 307 268q0 143 -82 213t-225.5 70t-225 -71t-81.5 -212z" />
<glyph unicode="h" horiz-adv-x="1064" d="M166 16v1504q0 16 20 16h37q20 0 21 -16v-590q139 203 362 203q311 0 312 -361v-756q0 -16 -23 -16h-35q-20 0 -20 16v721q0 172 -57.5 248t-184.5 76q-102 0 -200.5 -70.5t-153.5 -175.5v-799q0 -16 -21 -16h-37q-20 0 -20 16z" />
<glyph unicode="i" horiz-adv-x="409" d="M166 27v1063q0 29 24 28h29q25 0 25 -24v-1065q0 -29 -27 -29h-29q-22 0 -22 27zM166 1323v188q0 25 22 25h29q27 0 27 -25v-186q0 -27 -27 -27h-29q-22 0 -22 25z" />
<glyph unicode="j" horiz-adv-x="428" d="M-10 -401q-5 8 -6 14q0 12 16 22q92 61 138 146.5t46 267.5v1045q0 25 23 24h31q25 0 24 -24v-1045q0 -109 -16.5 -190.5t-52 -136t-66.5 -85t-82 -67.5q-10 -9 -18 -9q-9 0 -17 11zM184 1323v188q0 25 23 25h33q23 0 22 -27v-186q0 -25 -22 -25h-33q-23 0 -23 25z" />
<glyph unicode="k" horiz-adv-x="849" d="M166 18v1500q0 18 22 18h33q23 0 23 -18v-934l477 516q16 18 37 18h45q12 0 15 -8t-5 -18l-387 -416l403 -647q6 -10 7 -17q0 -12 -23 -12h-39q-23 0 -33 18l-370 600l-127 -137v-463q0 -18 -23 -18h-33q-22 0 -22 18z" />
<glyph unicode="l" horiz-adv-x="407" d="M166 18v1500q0 18 22 18h33q23 0 23 -18v-1500q0 -18 -23 -18h-33q-22 0 -22 18z" />
<glyph unicode="m" horiz-adv-x="1589" d="M166 18v1082q0 18 22 18h33q23 0 23 -18v-168q47 84 131 142.5t186 58.5q113 0 179.5 -59.5t88.5 -145.5q57 94 143.5 149.5t182.5 55.5q129 0 208 -82t79 -222v-811q0 -18 -23 -18h-33q-23 0 -22 18v787q0 256 -209 256q-90 0 -172 -59.5t-139 -172.5v-811 q0 -18 -23 -18h-33q-23 0 -22 18v787q0 256 -209 256q-98 0 -182 -66.5t-131 -171.5v-805q0 -18 -23 -18h-33q-22 0 -22 18z" />
<glyph unicode="n" horiz-adv-x="1064" d="M166 18v1082q0 18 22 18h33q23 0 23 -18v-168q141 201 360 201q313 0 314 -365v-750q0 -18 -23 -18h-33q-23 0 -22 18v719q0 160 -53.5 242t-188.5 82q-104 0 -201.5 -66.5t-152.5 -179.5v-797q0 -18 -23 -18h-33q-22 0 -22 18z" />
<glyph unicode="o" horiz-adv-x="1058" d="M115 401v299q0 201 109.5 317t306 116t306 -116t109.5 -317v-284q0 -201 -109.5 -316.5t-306.5 -115.5q-195 0 -305 110t-110 307zM193 408q0 -178 89 -265.5t248.5 -87.5t248.5 91.5t89 273.5v276q0 182 -89 273.5t-248.5 91.5t-248.5 -91t-89 -274v-288z" />
<glyph unicode="p" horiz-adv-x="1073" d="M166 -408v1510q0 18 22 18h33q23 0 23 -18v-193q41 88 133 156t215 68q367 0 366 -422v-283q0 -211 -103 -327.5t-290 -116.5q-123 0 -206 52t-115 116v-560q0 -18 -23 -18h-33q-22 0 -22 18zM244 367q0 -143 91 -227.5t230 -84.5q150 0 233 95.5t83 285.5v269 q0 356 -289 356q-135 0 -241.5 -112.5t-106.5 -266.5v-315z" />
<glyph unicode="q" horiz-adv-x="1075" d="M111 403v308q0 197 107.5 309.5t287.5 112.5q117 0 201 -50.5t127 -126.5v144q0 18 22 18h33q23 0 22 -18v-1508q0 -18 -22 -18h-33q-23 0 -22 18v564q-43 -70 -131.5 -121t-208.5 -51q-176 0 -279.5 111t-103.5 308zM188 414q0 -182 86 -270.5t226 -88.5q145 0 239.5 82 t94.5 228v405q0 115 -92.5 203t-231.5 88q-141 0 -231.5 -87t-90.5 -267v-293z" />
<glyph unicode="r" horiz-adv-x="622" d="M166 16v1086q0 16 20 16h35q20 0 21 -16v-223q45 106 145 181t209 75q25 0 25 -27v-27q0 -23 -21 -22q-131 0 -228.5 -93.5t-127.5 -209.5v-740q0 -16 -23 -16h-33q-22 0 -22 16z" />
<glyph unicode="s" horiz-adv-x="858" d="M82 231q-3 8 -3 15q0 14 13 18l35 8q27 6 31 -16q20 -88 87.5 -144.5t188.5 -56.5t194.5 61.5t73.5 159.5q0 82 -44 137.5t-109.5 81t-141 56.5t-141 59.5t-109.5 92t-44 153.5q0 123 92 200t237 77q133 0 219.5 -62.5t114.5 -169.5q6 -23 -14 -29l-31 -8q-23 -6 -29 13 q-31 92 -91 138t-169 46q-115 0 -182 -55.5t-67 -151.5q0 -86 60 -139t147 -82t174.5 -63.5t147.5 -107.5t60 -188q0 -123 -96 -206.5t-252 -83.5q-131 0 -227 64t-125 183z" />
<glyph unicode="t" horiz-adv-x="649" d="M31 1036v23q0 23 18 22h154v260q0 18 22 19h33q23 0 23 -19v-260h235q18 0 19 -22v-23q0 -23 -19 -22h-235v-750q0 -104 48 -150t144 -46h74q23 0 22 -21v-24q0 -23 -22 -23h-80q-264 0 -264 266v748h-154q-18 -1 -18 22z" />
<glyph unicode="u" horiz-adv-x="1069" d="M147 307v795q0 16 21 16h35q23 0 22 -16v-805q0 -113 61.5 -177.5t172.5 -64.5q186 0 366 217v830q0 16 21 16h37q20 0 20 -16v-1086q0 -16 -20 -16h-35q-23 0 -23 16v170q-158 -203 -368 -202q-147 0 -228.5 82.5t-81.5 240.5z" />
<glyph unicode="v" horiz-adv-x="821" d="M8 1098q-2 5 -2 9q0 12 19 11h41q20 0 24 -16l191 -600q113 -346 129 -406h2q10 37 129 408l192 596q4 18 27 18h39q18 0 17 -12q0 -3 -1 -8l-356 -1080q-6 -18 -25 -18h-53q-18 0 -25 18z" />
<glyph unicode="w" horiz-adv-x="1343" d="M35 1096q-1 5 -1 8q0 14 19 14h45q16 0 23 -18l147 -586q76 -297 97 -414h2q57 236 104 416l154 582q6 20 22 20h51q20 0 27 -20l154 -580q70 -272 96 -416h4q14 74 98 418l146 582q4 16 24 16h47q16 0 13 -20l-285 -1080q-6 -18 -23 -18h-55q-18 0 -22 18l-246 981h-2 l-260 -981q-6 -18 -23 -18h-53q-20 0 -25 18z" />
<glyph unicode="x" horiz-adv-x="811" d="M35 1098q-4 6 -4 11q0 10 18 9h45q16 0 29 -18l285 -475l268 475q10 18 24 18h45q25 0 13 -20l-305 -537l325 -541q3 -7 4 -11q0 -9 -14 -9h-47q-16 0 -27 16l-286 482l-275 -482q-10 -16 -27 -16h-40q-27 0 -15 20l311 543z" />
<glyph unicode="y" horiz-adv-x="825" d="M-6 1096q-2 6 -2 10q0 13 18 12h45q18 0 25 -18l338 -985l330 983q6 20 24 20h47q17 0 17 -12q0 -4 -2 -10l-412 -1180q-43 -125 -114.5 -216t-147.5 -132q-11 -5 -19 -5t-12 5l-20 33q-12 18 4 28q176 94 264 379z" />
<glyph unicode="z" horiz-adv-x="931" d="M76 68l612 979h-569q-18 0 -19 22v27q0 23 19 22h635q20 0 22 -20l6 -47l-612 -979h641q18 0 18 -21v-31q0 -20 -18 -20h-705q-20 0 -22 20z" />
<glyph unicode="{" horiz-adv-x="681" d="M61 623v34q0 23 21 25q104 16 165.5 69.5t61.5 137.5v442q0 98 50.5 168t166.5 70h47q18 0 19 -23v-28q0 -23 -19 -23h-47q-135 0 -135 -141v-457q0 -96 -53 -161.5t-148 -92.5v-2q201 -53 201 -258v-444q0 -141 135 -142h47q18 0 19 -22v-29q0 -23 -19 -22h-47 q-117 0 -167 69.5t-50 167.5v430q0 88 -60.5 143.5t-164.5 63.5q-23 2 -23 25z" />
<glyph unicode="|" horiz-adv-x="407" d="M166 -512v2124q0 27 22 26h29q27 0 27 -28v-2122q0 -27 -27 -27h-29q-22 0 -22 27z" />
<glyph unicode="}" horiz-adv-x="679" d="M90 -225q0 23 16 22h50q135 0 135 142v444q0 205 201 258v2q-94 27 -147.5 92.5t-53.5 161.5v457q0 141 -135 141h-50q-16 0 -16 23v28q0 23 16 23h50q117 0 167 -69.5t50 -168.5v-442q0 -84 61.5 -137.5t165.5 -69.5q20 -2 21 -25v-34q0 -23 -23 -25 q-104 -8 -164.5 -63.5t-60.5 -143.5v-430q0 -98 -50.5 -167.5t-166.5 -69.5h-50q-16 0 -16 22v29z" />
<glyph unicode="~" horiz-adv-x="1097" d="M92 553q55 172 209 172q88 0 258 -69.5t242 -69.5q92 0 135 123q8 25 31 14l26 -10q18 -8 13 -29q-20 -70 -71.5 -121t-133.5 -51q-84 0 -260 69.5t-240 69.5q-98 0 -139 -123q-6 -25 -29 -14l-37 12q-12 7 -4 27z" />
<glyph unicode="&#xa1;" horiz-adv-x="452" d="M184 -350l11 1020q0 16 16 16h33q16 0 16 -16l8 -1022q0 -23 -20 -23h-41q-23 0 -23 25zM188 961v149q0 25 23 25h35q25 0 24 -27v-145q0 -27 -24 -27h-35q-23 0 -23 25z" />
<glyph unicode="&#xa2;" horiz-adv-x="925" d="M115 401v308q0 186 87 296.5t253 124.5v140q0 27 22 26h31q23 0 22 -26v-137q129 -4 216.5 -69t115.5 -169q8 -29 -10 -37l-31 -10q-27 -8 -30 14q-20 86 -93 142.5t-186 56.5q-319 0 -319 -356v-297q0 -352 319 -353q111 0 184.5 49.5t98.5 133.5q6 23 30 16l27 -12 q18 -8 10 -35q-72 -215 -332 -223v-144q0 -27 -26 -26h-27q-23 0 -22 26v146q-162 16 -251 124.5t-89 290.5z" />
<glyph unicode="&#xa3;" horiz-adv-x="1091" d="M143 731v33q0 20 17 20h149q-6 35 -19.5 100.5t-21.5 122t-8 111.5q0 188 104.5 289.5t262.5 101.5q272 0 366 -254q8 -27 -10 -34l-29 -15q-23 -10 -30 15q-74 213 -293 213q-123 0 -206 -79t-83 -237q0 -55 6 -104t19.5 -120t19.5 -110h332q20 0 20 -20v-33 q0 -20 -20 -20h-322q39 -340 -121 -633h756q18 0 19 -23v-35q0 -20 -17 -20h-821l-23 41q-12 18 0 37q166 274 125 633h-155q-17 0 -17 20z" />
<glyph unicode="&#xa4;" horiz-adv-x="1220" d="M86 623v28q0 20 18 21h152v182h-154q-16 0 -16 20v29q0 23 18 23h152v127q0 213 120 334.5t326 121.5q334 0 441 -290q10 -25 -10 -37l-35 -15q-25 -8 -31 11q-84 254 -365 254q-365 0 -364 -396v-110h453q16 0 16 -23v-29q0 -20 -16 -20h-453v-182h450q18 0 19 -21v-28 q0 -23 -16 -23h-453v-111q0 -217 85 -323.5t279 -106.5q287 0 365 252q6 23 31 15l39 -15q23 -8 10 -35q-111 -297 -445 -296q-211 0 -328.5 120.5t-117.5 364.5v135h-154q-16 0 -16 23z" />
<glyph unicode="&#xa5;" horiz-adv-x="1077" d="M43 1477q-10 20 14 20h54q18 0 26 -14l402 -760l407 756q10 18 29 18h47q27 0 14 -22l-456 -840v-45h313q18 0 18 -21v-32q0 -20 -18 -21h-313v-500q0 -16 -21 -16h-45q-18 0 -18 16v500h-306q-16 0 -16 21v30q0 23 16 23h306v43z" />
<glyph unicode="&#xa6;" horiz-adv-x="391" d="M156 418q0 16 14 16h49q18 0 19 -16v-944q0 -16 -19 -17h-49q-14 0 -14 17v944zM156 678v944q0 16 14 16h49q18 0 19 -16v-944q0 -16 -19 -16h-49q-14 0 -14 16z" />
<glyph unicode="&#xa7;" horiz-adv-x="960" d="M143 72q-8 31 9 34l38 11q20 4 23 -19q8 -78 85 -145.5t198 -67.5q238 0 237 211q0 109 -58.5 168.5t-207.5 120.5q-129 53 -194.5 129t-65.5 193q0 98 57.5 181t169.5 99q-133 57 -192.5 124t-59.5 169q0 117 86 191.5t219 74.5q139 0 221.5 -65.5t112.5 -161.5 q6 -20 -14 -29l-37 -14q-20 -8 -27 12q-47 184 -256 185q-104 0 -166.5 -56.5t-62.5 -136.5q0 -78 52 -134t194 -108q154 -55 220.5 -135t66.5 -196q0 -119 -70 -195t-180 -86q268 -106 268 -326q0 -135 -85 -210.5t-226 -75.5q-139 0 -235.5 76t-119.5 182zM283 707 q0 -100 62.5 -165t158.5 -65t153.5 64.5t57.5 165.5q0 96 -60.5 159.5t-159 63.5t-155.5 -66.5t-57 -156.5z" />
<glyph unicode="&#xa8;" horiz-adv-x="804" d="M199 1311v155q0 25 22 25h43q25 0 25 -27v-151q0 -27 -25 -27h-43q-22 0 -22 25zM516 1311v155q0 25 23 25h43q25 0 24 -27v-151q0 -27 -24 -27h-43q-23 0 -23 25z" />
<glyph unicode="&#xa9;" horiz-adv-x="1566" d="M53 731q0 303 209 518t522.5 215t521 -207.5t207.5 -525.5q0 -303 -213 -517t-516 -214q-324 0 -527.5 196.5t-203.5 534.5zM127 731q0 -303 188.5 -482t468.5 -179q272 0 464 193.5t192 467.5q0 283 -188.5 473.5t-467.5 190.5q-270 0 -463.5 -196t-193.5 -468zM485 598 q0 -156 85 -239t223 -83q111 0 183.5 52.5t94.5 142.5q4 27 -16 31l-39 8q-23 6 -27 -16q-10 -59 -62.5 -100.5t-133.5 -41.5q-227 0 -228 258v205q0 258 228 258q82 0 134 -41t62 -100q4 -23 27 -17l39 9q20 4 16 30q-23 90 -95.5 142.5t-182.5 52.5q-137 0 -222.5 -83 t-85.5 -239v-229z" />
<glyph unicode="&#xaa;" horiz-adv-x="735" d="M88 950v11q0 145 109.5 199t361.5 32v53q0 102 -41 149.5t-141 47.5q-55 0 -94 -17.5t-53.5 -35t-34.5 -52.5q-8 -14 -25 -4l-25 15q-16 8 -8 26q76 135 240 135q254 0 254 -270v-487q0 -16 -19 -17h-32q-20 0 -21 17v71q-104 -94 -217 -94q-106 0 -180 59.5t-74 161.5z M164 956q0 -74 51 -116.5t131 -42.5q119 0 213 98v238q-225 14 -310 -24t-85 -144v-9z" />
<glyph unicode="&#xab;" horiz-adv-x="1015" d="M94 594l309 444q12 18 31 6l27 -20q16 -12 4 -29l-283 -403l279 -393q14 -18 -4 -33l-21 -19q-16 -14 -30 5zM481 594l310 444q12 18 30 6l27 -20q16 -12 4 -29l-283 -403l279 -393q14 -18 -4 -33l-21 -19q-16 -14 -30 5z" />
<glyph unicode="&#xac;" horiz-adv-x="1124" d="M82 614v33q0 23 20 23h918v-650q0 -20 -23 -20h-28q-23 0 -23 20v570h-844q-20 -1 -20 24z" />
<glyph unicode="&#xad;" horiz-adv-x="847" d="M119 590v33q0 20 16 20h570q16 0 16 -20v-33q0 -20 -16 -21h-572q-14 1 -14 21z" />
<glyph unicode="&#xae;" horiz-adv-x="1099" d="M113 1091.5q0 180.5 128 307.5t308 127q182 0 309 -128t127 -306q0 -180 -128 -307.5t-308 -127.5t-308 127t-128 307.5zM178 1091.5q0 -153.5 108.5 -263t262 -109.5t262.5 109.5t109 263.5q0 152 -109 262t-262.5 110t-262 -109.5t-108.5 -263zM412 881v452h151 q68 0 105 -36.5t37 -92.5v-30q0 -90 -84 -117l94 -172q8 -12 -6 -13h-54q-8 0 -10 7l-88 165h-82v-163q0 -8 -6 -9h-51q-6 1 -6 9zM475 1112h88q78 0 78 70v12q0 74 -78 74h-88v-156z" />
<glyph unicode="&#xaf;" horiz-adv-x="1101" d="M322 1399v33q0 23 16 22h426q16 0 16 -20v-35q0 -23 -16 -23h-426q-16 0 -16 23z" />
<glyph unicode="&#xb0;" horiz-adv-x="800" d="M86 1208q0 131 92 223.5t223 92.5q137 0 226.5 -91.5t89.5 -224.5q0 -131 -92.5 -223t-223.5 -92q-137 0 -226 91t-89 224zM180 1208q0 -92 64.5 -157.5t157 -65.5t157 65.5t64.5 157.5t-64.5 158t-157 66t-157 -66t-64.5 -158z" />
<glyph unicode="&#xb1;" horiz-adv-x="1208" d="M88 18v41q0 18 16 19h1000q16 0 16 -19v-41q0 -18 -16 -18h-1000q-16 0 -16 18zM88 612v41q0 18 16 19h461v463q0 16 15 16h47q14 0 14 -16v-463h463q16 0 16 -19v-41q0 -18 -16 -18h-463v-463q0 -16 -14 -16h-47q-14 0 -15 16v463h-461q-16 0 -16 18z" />
<glyph unicode="&#xb2;" horiz-adv-x="606" d="M66 1360q27 63 87 106t154 43q102 0 172 -60t70 -151q0 -84 -41 -130t-176 -119q-115 -61 -153 -113.5t-38 -142.5h387q18 0 19 -23v-27q0 -23 -19 -22h-456v80q0 106 52 178t167 129t150.5 92t35.5 96.5t-46 102.5t-124 41q-125 0 -180 -111q-12 -25 -31 -12l-26 16 q-14 9 -4 27z" />
<glyph unicode="&#xb3;" horiz-adv-x="616" d="M59 864q-6 18 9 27l26 14q16 8 27 -16q49 -115 192 -115q78 0 126 40t48 116v20q0 63 -47 106.5t-125 43.5h-77q-18 0 -19 16v29q0 20 17 20h79q68 0 115 37t47 98v9q0 61 -43 97t-121 36q-127 0 -182 -111q-10 -20 -31 -10l-22 12q-16 10 -6 31q66 145 241 145 q111 0 171.5 -55t60.5 -141v-15q0 -113 -127 -163q59 -18 99 -68.5t40 -124.5v-14q0 -102 -67.5 -161.5t-178.5 -59.5q-96 0 -161.5 44.5t-90.5 112.5z" />
<glyph unicode="&#xb4;" horiz-adv-x="688" d="M207 1238q-4 7 2 15l174 271q16 20 33 20h55q10 0 13 -8t-1 -12l-204 -281q-8 -12 -25 -12h-31q-12 0 -16 7z" />
<glyph unicode="&#xb5;" horiz-adv-x="1060" d="M164 -418v1520q0 16 20 16h35q23 0 23 -16v-696q0 -170 74.5 -257.5t187.5 -87.5q109 0 181.5 51.5t156.5 159.5v830q0 16 20 16h37q20 0 21 -16v-1086q0 -16 -21 -16h-35q-23 0 -22 16v170q-51 -66 -85 -100.5t-101.5 -68t-151.5 -33.5q-88 0 -158 47t-102 129v-578 q0 -16 -21 -16h-39q-20 0 -20 16z" />
<glyph unicode="&#xb6;" horiz-adv-x="1064" d="M53 1024q0 231 141.5 359t430.5 128h344q23 0 22 -18v-27q0 -25 -24 -24h-125v-1704q0 -25 -25 -25h-37q-20 0 -20 27v1702h-135v-891h-56q-231 0 -373.5 117.5t-142.5 355.5z" />
<glyph unicode="&#xb7;" horiz-adv-x="475" d="M193 522v203q0 25 22 25h45q23 0 23 -25v-203q0 -25 -23 -24h-45q-22 -1 -22 24z" />
<glyph unicode="&#xb8;" horiz-adv-x="780" d="M227 -322l25 23q10 6 16 0q39 -49 109 -49q55 0 86 25.5t31 70.5v12q0 100 -162 90v201h59v-145q78 -4 122 -42t44 -97v-27q0 -57 -46 -100t-132 -43q-94 0 -150 59q-12 12 -2 22z" />
<glyph unicode="&#xb9;" horiz-adv-x="552" d="M78 1384q-4 16 12 21q133 29 158 43q29 14 51 45h49v-702h146q16 0 16 -23v-27q0 -20 -16 -20h-373q-16 0 -17 20v27q0 23 17 23h151v571l-163 -25q-25 -2 -27 15z" />
<glyph unicode="&#xba;" horiz-adv-x="751" d="M84 995v248q0 123 78 194.5t211 71.5q137 0 213 -69.5t76 -196.5v-248q0 -125 -76 -195.5t-213 -70.5q-133 0 -211 69.5t-78 196.5zM162 1018q0 -215 211 -215t211 215v205q0 213 -211 213t-211 -213v-205z" />
<glyph unicode="&#xbb;" horiz-adv-x="1011" d="M162 995q-12 16 4 29l27 20q18 12 30 -6l309 -444l-311 -442q-14 -18 -31 -5l-20 19q-18 14 -4 33l278 393zM549 995q-12 16 4 29l27 20q18 12 30 -6l310 -444l-312 -442q-14 -18 -30 -5l-21 19q-18 14 -4 33l278 393z" />
<glyph unicode="&#xbc;" horiz-adv-x="1529" d="M129 1401q-4 16 12 20q133 29 158 43q29 14 51 45h49v-702h146q16 0 16 -23v-26q0 -20 -16 -21h-373q-16 0 -16 21v26q0 23 16 23h152v571l-164 -24q-25 -2 -27 14zM372 6q-3 6 1 17l757 1472q8 14 27 14h39q25 0 12 -22l-751 -1469q-10 -18 -31 -18h-41q-10 0 -13 6z M850 219q-4 16 6 33l383 571q12 16 31 4l20 -14q16 -12 6 -31l-354 -530h283v176q0 16 20 16h33q16 0 16 -16v-176h92q20 0 21 -23v-24q0 -23 -21 -23h-92v-162q0 -20 -16 -20h-31q-8 0 -11 1t-6 5t-3 14v162h-348q-18 0 -23 17z" />
<glyph unicode="&#xbd;" horiz-adv-x="1628" d="M129 1384q-4 16 12 21q133 29 158 43q29 14 51 45h49v-702h146q16 0 16 -23v-27q0 -20 -16 -20h-373q-16 0 -16 20v27q0 23 16 23h152v571l-164 -25q-25 -2 -27 15zM372 6q-3 6 1 17l757 1472q8 14 27 14h39q25 0 12 -22l-751 -1469q-10 -18 -31 -18h-41q-10 0 -13 6z M1024 639q27 63 87 106t155 43q102 0 171.5 -60t69.5 -150q0 -84 -41 -130.5t-176 -119.5q-115 -61 -152.5 -113.5t-37.5 -142.5h387q18 0 18 -23v-26q0 -23 -18 -23h-457v80q0 106 52.5 178t167 129t150.5 92t36 96.5t-46.5 102.5t-123.5 41q-125 0 -181 -111 q-12 -25 -30 -12l-27 16q-14 9 -4 27z" />
<glyph unicode="&#xbe;" horiz-adv-x="1552" d="M119 864q-6 18 8 27l27 14q16 8 26 -16q49 -115 193 -115q78 0 126 40t48 116v20q0 63 -47 106.5t-125 43.5h-78q-18 0 -18 16v29q0 20 16 20h80q68 0 115 37t47 98v9q0 61 -43 97t-121 36q-127 0 -183 -111q-10 -20 -30 -10l-23 12q-16 10 -6 31q66 145 242 145 q111 0 171 -55t60 -141v-15q0 -113 -127 -163q59 -18 99 -68.5t40 -124.5v-14q0 -102 -67.5 -161.5t-177.5 -59.5q-96 0 -161.5 44.5t-90.5 112.5zM384 6q-3 6 1 17l758 1472q8 14 26 14h39q25 0 13 -22l-752 -1469q-10 -18 -31 -18h-41q-10 0 -13 6zM877 219q-4 16 6 33 l383 571q12 16 30 4l21 -14q16 -12 6 -31l-354 -530h282v176q0 16 21 16h33q16 0 16 -16v-176h92q20 0 21 -23v-24q0 -23 -21 -23h-92v-162q0 -20 -16 -20h-31q-8 0 -11 1t-6.5 5t-3.5 14v162h-348q-18 0 -22 17z" />
<glyph unicode="&#xbf;" horiz-adv-x="862" d="M98 -90q0 78 37 149.5t90.5 128t106.5 111.5t90 122.5t37 139.5v51q0 27 26 27h37q23 0 23 -25v-53q0 -76 -37 -148.5t-90 -130t-106.5 -113.5t-90.5 -124t-37 -137q0 -129 67.5 -202t203.5 -73q166 0 264 125q18 20 35 0l26 -28q14 -16 -2 -33q-133 -143 -332 -143 q-170 0 -259 100t-89 256zM459 915v146q0 27 24 26h37q25 0 25 -24v-152q0 -25 -25 -24h-37q-24 -1 -24 28z" />
<glyph unicode="&#xc0;" horiz-adv-x="1050" d="M35 25l452 1452q6 18 23 18h55q16 0 23 -18l444 -1452q8 -25 -14 -25h-45q-18 0 -23 16l-147 476h-541l-149 -476q-4 -16 -23 -16h-41q-22 0 -14 25zM259 1968q3 8 13 8h56q16 0 32 -20l175 -270q6 -8 1.5 -15.5t-16.5 -7.5h-31q-14 0 -24 12l-205 281q-4 4 -1 12z M287 567h491l-241 817z" />
<glyph unicode="&#xc1;" horiz-adv-x="1050" d="M35 25l452 1452q6 18 23 18h55q16 0 23 -18l444 -1452q8 -25 -14 -25h-45q-18 0 -23 16l-147 476h-541l-149 -476q-4 -16 -23 -16h-41q-22 0 -14 25zM287 567h491l-241 817zM506 1668q-4 7 2 15l174 271q16 20 33 20h55q10 0 13 -8t-1 -12l-204 -281q-8 -12 -25 -12h-31 q-12 0 -16 7z" />
<glyph unicode="&#xc2;" horiz-adv-x="1050" d="M35 25l452 1452q6 18 23 18h55q16 0 23 -18l444 -1452q8 -25 -14 -25h-45q-18 0 -23 16l-147 476h-541l-149 -476q-4 -16 -23 -16h-41q-22 0 -14 25zM287 567h491l-241 817zM324 1686l155 231q10 16 31 16h43q23 0 37 -20l149 -227q14 -23 -10 -23h-41q-18 0 -24 12 l-129 205l-136 -205q-6 -12 -24 -12h-41q-24 0 -10 23z" />
<glyph unicode="&#xc3;" horiz-adv-x="1050" d="M35 25l452 1452q6 18 23 18h55q16 0 23 -18l444 -1452q8 -25 -14 -25h-45q-18 0 -23 16l-147 476h-541l-149 -476q-4 -16 -23 -16h-41q-22 0 -14 25zM270 1772q14 35 59.5 67.5t104.5 32.5q55 0 132 -52.5t110 -52.5q66 0 102 74q8 14 27 2l26 -18q10 -6 0 -27 q-14 -35 -56 -67.5t-101 -32.5q-55 0 -129 52t-107 52q-78 0 -114 -73q-8 -14 -27 -3l-23 17q-14 11 -4 29zM287 567h491l-241 817z" />
<glyph unicode="&#xc4;" horiz-adv-x="1050" d="M35 25l452 1452q6 18 23 18h55q16 0 23 -18l444 -1452q8 -25 -14 -25h-45q-18 0 -23 16l-147 476h-541l-149 -476q-4 -16 -23 -16h-41q-22 0 -14 25zM287 567h491l-241 817zM328 1722v156q0 25 22 25h43q25 0 25 -27v-152q0 -27 -25 -26h-43q-22 -1 -22 24zM645 1722v156 q0 25 23 25h43q25 0 24 -27v-152q0 -27 -24 -26h-43q-23 -1 -23 24z" />
<glyph unicode="&#xc5;" horiz-adv-x="1050" d="M35 25l452 1452q6 18 23 18h55q16 0 23 -18l444 -1452q8 -25 -14 -25h-45q-18 0 -23 16l-147 476h-541l-149 -476q-4 -16 -23 -16h-41q-22 0 -14 25zM287 567h491l-241 817zM393 1804.5q0 61.5 44 105.5t105.5 44t105.5 -44t44 -105.5t-44 -105.5t-105.5 -44t-105.5 44 t-44 105.5zM453 1804q0 -37 26.5 -63.5t63.5 -26.5t63.5 26.5t26.5 63.5t-26.5 63.5t-63.5 26.5t-63.5 -26.5t-26.5 -63.5z" />
<glyph unicode="&#xc6;" horiz-adv-x="1640" d="M-12 20l780 1459q10 18 29 18h723q18 0 18 -20v-35q0 -23 -18 -23h-619v-610h565q16 0 17 -23v-36q0 -20 -17 -21h-565v-651h619q16 0 16 -21v-37q0 -20 -16 -20h-682q-18 0 -19 20v457h-493l-246 -461q-8 -16 -27 -16h-51q-22 0 -14 20zM367 557h452v848z" />
<glyph unicode="&#xc7;" horiz-adv-x="1157" d="M174 430v623q0 233 134 344.5t345 111.5q319 0 428 -297q8 -27 -12 -34l-35 -15q-23 -12 -30 15q-82 254 -351 254q-397 0 -397 -394v-587q0 -393 387 -394q133 0 228.5 71t123.5 179q6 29 33 17l29 -11q23 -8 14 -37q-37 -121 -153.5 -207.5t-266.5 -88.5v-107 q78 -4 122 -42t44 -97v-27q0 -57 -46 -100t-132 -43q-94 0 -150 59q-12 12 -2 23l25 22q10 6 16 0q39 -49 109 -49q55 0 86 25.5t31 70.5v13q0 100 -162 90v164q-186 14 -302 122.5t-116 325.5z" />
<glyph unicode="&#xc8;" horiz-adv-x="1015" d="M195 0v1497h700q18 0 18 -20v-35q0 -23 -18 -23h-619v-612h566q16 0 16 -23v-34q0 -20 -16 -21h-566v-651h617q18 0 18 -21v-37q0 -20 -18 -20h-698zM296 1966q3 8 13 8h56q16 0 32 -20l174 -271q6 -8 2 -15t-16 -7h-31q-14 0 -24 12l-205 281q-4 4 -1 12z" />
<glyph unicode="&#xc9;" horiz-adv-x="1015" d="M195 0v1497h700q18 0 18 -20v-35q0 -23 -18 -23h-619v-612h566q16 0 16 -23v-34q0 -20 -16 -21h-566v-651h617q18 0 18 -21v-37q0 -20 -18 -20h-698zM539 1668q-4 7 2 15l174 271q16 20 33 20h55q10 0 13 -8t-1 -12l-205 -281q-8 -12 -24 -12h-31q-12 0 -16 7z" />
<glyph unicode="&#xca;" horiz-adv-x="1015" d="M195 0v1497h700q18 0 18 -20v-35q0 -23 -18 -23h-619v-612h566q16 0 16 -23v-34q0 -20 -16 -21h-566v-651h617q18 0 18 -21v-37q0 -20 -18 -20h-698zM365 1679l155 232q10 16 31 16h43q23 0 37 -20l149 -228q14 -23 -10 -22h-41q-18 0 -24 12l-130 205l-135 -205 q-6 -12 -24 -12h-41q-24 -1 -10 22z" />
<glyph unicode="&#xcb;" horiz-adv-x="1015" d="M195 0v1497h700q18 0 18 -20v-35q0 -23 -18 -23h-619v-612h566q16 0 16 -23v-34q0 -20 -16 -21h-566v-651h617q18 0 18 -21v-37q0 -20 -18 -20h-698zM344 1720v156q0 25 23 25h43q25 0 24 -27v-152q0 -27 -24 -26h-43q-23 -1 -23 24zM662 1720v156q0 25 22 25h43 q25 0 25 -27v-152q0 -27 -25 -26h-43q-22 -1 -22 24z" />
<glyph unicode="&#xcc;" horiz-adv-x="471" d="M-11 1968q3 8 13 8h55q16 0 33 -20l174 -270q6 -8 2 -15.5t-16 -7.5h-31q-14 0 -24 12l-205 281q-4 4 -1 12zM195 18v1461q0 18 22 18h37q23 0 22 -18v-1461q0 -18 -22 -18h-37q-22 0 -22 18z" />
<glyph unicode="&#xcd;" horiz-adv-x="471" d="M195 18v1461q0 18 22 18h37q23 0 22 -18v-1461q0 -18 -22 -18h-37q-22 0 -22 18zM223 1668q-4 7 2 15l174 271q16 20 33 20h55q10 0 13.5 -8t-0.5 -12l-205 -281q-8 -12 -25 -12h-30q-13 0 -17 7z" />
<glyph unicode="&#xce;" horiz-adv-x="471" d="M33 1683l155 232q10 16 31 16h43q23 0 37 -20l150 -228q14 -23 -11 -22h-41q-18 0 -24 12l-129 205l-135 -205q-6 -12 -25 -12h-41q-24 -1 -10 22zM195 18v1461q0 18 22 18h37q23 0 22 -18v-1461q0 -18 -22 -18h-37q-22 0 -22 18z" />
<glyph unicode="&#xcf;" horiz-adv-x="471" d="M45 1720v156q0 25 23 25h43q25 0 24 -27v-152q0 -27 -24 -26h-43q-23 -1 -23 24zM195 18v1461q0 18 22 18h37q23 0 22 -18v-1461q0 -18 -22 -18h-37q-22 0 -22 18zM362 1720v156q0 25 23 25h43q25 0 25 -27v-152q0 -27 -25 -26h-43q-23 -1 -23 24z" />
<glyph unicode="&#xd0;" horiz-adv-x="1275" d="M25 754v30q0 20 18 21h152v692h417q223 0 358.5 -120t135.5 -357v-543q0 -238 -135 -357.5t-359 -119.5h-417v733h-154q-16 1 -16 21zM276 78h336q412 0 412 420v501q0 420 -412 420h-336v-614h338q16 0 17 -21v-30q0 -20 -15 -21h-340v-655z" />
<glyph unicode="&#xd1;" horiz-adv-x="1357" d="M195 16v1461q0 20 22 20h82q16 0 29 -22l757 -1371h2q-4 127 -4 375v1002q0 16 17 16h45q18 0 18 -16v-1461q0 -12 -4 -16t-18 -4h-76q-16 0 -27 18l-766 1389h-2q4 -129 4 -371v-1020q0 -16 -18 -16h-45q-16 0 -16 16zM449 1772q14 35 59 67.5t104 32.5q55 0 132 -52.5 t110 -52.5q66 0 102 74q8 14 27 2l27 -18q10 -6 0 -27q-14 -35 -56.5 -67.5t-101.5 -32.5q-55 0 -129 52t-107 52q-78 0 -114 -73q-8 -14 -27 -3l-22 17q-14 11 -4 29z" />
<glyph unicode="&#xd2;" d="M174 457v575q0 238 135 357.5t358.5 119.5t358.5 -119.5t135 -357.5v-575q0 -238 -135 -357.5t-358.5 -119.5t-358.5 119.5t-135 357.5zM256 477q0 -420 411.5 -420t411.5 420v535q0 420 -411.5 420t-411.5 -420v-535zM417 1966q3 8 13 8h55q16 0 33 -20l174 -271 q6 -8 2 -15t-16 -7h-31q-16 0 -24 12l-205 281q-4 4 -1 12z" />
<glyph unicode="&#xd3;" d="M174 457v575q0 238 135 357.5t358.5 119.5t358.5 -119.5t135 -357.5v-575q0 -238 -135 -357.5t-358.5 -119.5t-358.5 119.5t-135 357.5zM256 477q0 -420 411.5 -420t411.5 420v535q0 420 -411.5 420t-411.5 -420v-535zM635 1668q-4 7 2 15l174 271q16 20 33 20h55 q10 0 13 -8t-1 -12l-204 -281q-10 -12 -25 -12h-31q-12 0 -16 7z" />
<glyph unicode="&#xd4;" d="M174 457v575q0 238 135 357.5t358.5 119.5t358.5 -119.5t135 -357.5v-575q0 -238 -135 -357.5t-358.5 -119.5t-358.5 119.5t-135 357.5zM256 477q0 -420 411.5 -420t411.5 420v535q0 420 -411.5 420t-411.5 -420v-535zM469 1686l156 231q10 16 30 16h43q23 0 37 -20 l150 -227q14 -23 -11 -23h-40q-18 0 -25 12l-129 205l-135 -205q-6 -12 -25 -12h-41q-24 0 -10 23z" />
<glyph unicode="&#xd5;" d="M174 457v575q0 238 135 357.5t358.5 119.5t358.5 -119.5t135 -357.5v-575q0 -238 -135 -357.5t-358.5 -119.5t-358.5 119.5t-135 357.5zM256 477q0 -420 411.5 -420t411.5 420v535q0 420 -411.5 420t-411.5 -420v-535zM389 1774q14 35 59.5 67.5t104.5 32.5 q55 0 132 -52.5t110 -52.5q66 0 102 74q8 14 27 2l26 -18q10 -6 0 -27q-14 -35 -56 -67.5t-101 -32.5q-55 0 -129 52t-107 52q-78 0 -115 -73q-8 -14 -26 -2l-23 16q-14 9 -4 29z" />
<glyph unicode="&#xd6;" d="M174 457v575q0 238 135 357.5t358.5 119.5t358.5 -119.5t135 -357.5v-575q0 -238 -135 -357.5t-358.5 -119.5t-358.5 119.5t-135 357.5zM256 477q0 -420 411.5 -420t411.5 420v535q0 420 -411.5 420t-411.5 -420v-535zM469 1722v156q0 25 23 25h43q25 0 24 -27v-152 q0 -27 -24 -26h-43q-23 -1 -23 24zM786 1722v156q0 25 23 25h43q25 0 25 -27v-152q0 -27 -25 -26h-43q-23 -1 -23 24z" />
<glyph unicode="&#xd7;" horiz-adv-x="1107" d="M92 197q-12 12 0 28l408 408l-400 399q-12 12 2 23l31 30q12 12 25 0l399 -399l395 397q16 16 29 2l29 -28q12 -16 0 -29l-400 -395l402 -400q16 -16 2 -28l-27 -29q-16 -16 -31 0l-399 402l-407 -410q-14 -14 -29 0z" />
<glyph unicode="&#xd8;" d="M156 -72l118 207q-100 119 -100 322v575q0 238 135 357.5t359 119.5q211 0 338 -102l86 147q8 14 24 15h49q20 0 11 -17l-115 -198q100 -123 100 -322v-575q0 -238 -135 -357.5t-358 -119.5q-213 0 -340 102l-92 -158q-10 -12 -27 -12h-39q-26 0 -14 16zM256 477 q0 -162 63 -264l646 1122q-102 96 -297 97q-412 0 -412 -420v-535zM369 154q102 -96 299 -97q412 0 411 420v535q0 166 -63 264z" />
<glyph unicode="&#xd9;" horiz-adv-x="1267" d="M174 455v1024q0 18 23 18h34q23 0 23 -18v-1002q0 -420 379 -420q381 0 381 420v1002q0 18 22 18h37q23 0 23 -18v-1024q0 -238 -126 -356.5t-337 -118.5q-209 0 -334 118.5t-125 356.5zM398 1964q3 8 14 8h55q16 0 33 -20l174 -271q6 -8 2 -15t-17 -7h-30q-14 0 -25 12 l-205 281q-4 4 -1 12z" />
<glyph unicode="&#xda;" horiz-adv-x="1267" d="M174 455v1024q0 18 23 18h34q23 0 23 -18v-1002q0 -420 379 -420q381 0 381 420v1002q0 18 22 18h37q23 0 23 -18v-1024q0 -238 -126 -356.5t-337 -118.5q-209 0 -334 118.5t-125 356.5zM600 1666q-4 7 2 15l174 271q16 20 33 20h55q10 0 13.5 -8t-0.5 -12l-205 -281 q-8 -12 -25 -12h-31q-12 0 -16 7z" />
<glyph unicode="&#xdb;" horiz-adv-x="1267" d="M174 455v1024q0 18 23 18h34q23 0 23 -18v-1002q0 -420 379 -420q381 0 381 420v1002q0 18 22 18h37q23 0 23 -18v-1024q0 -238 -126 -356.5t-337 -118.5q-209 0 -334 118.5t-125 356.5zM434 1679l156 232q10 16 31 16h43q23 0 36 -20l150 -228q14 -23 -10 -22h-41 q-18 0 -25 12l-129 205l-135 -205q-6 -12 -25 -12h-41q-24 -1 -10 22z" />
<glyph unicode="&#xdc;" horiz-adv-x="1267" d="M174 455v1024q0 18 23 18h34q23 0 23 -18v-1002q0 -420 379 -420q381 0 381 420v1002q0 18 22 18h37q23 0 23 -18v-1024q0 -238 -126 -356.5t-337 -118.5q-209 0 -334 118.5t-125 356.5zM444 1722v156q0 25 23 25h43q25 0 25 -27v-152q0 -27 -25 -26h-43q-23 -1 -23 24z M762 1722v156q0 25 22 25h43q25 0 25 -27v-152q0 -27 -25 -26h-43q-22 -1 -22 24z" />
<glyph unicode="&#xdd;" horiz-adv-x="1009" d="M10 1477q-10 20 15 20h51q18 0 26 -14l402 -760l405 756q10 18 29 18h49q25 0 14 -22l-456 -840v-619q0 -16 -21 -16h-45q-18 0 -18 16v617zM493.5 1666q-4.5 7 2.5 15l174 271q16 20 32 20h56q10 0 13 -8t-1 -12l-205 -281q-8 -12 -24 -12h-31q-12 0 -16.5 7z" />
<glyph unicode="&#xde;" horiz-adv-x="1132" d="M195 18v1461q0 18 22 18h37q20 0 20 -18v-254h279q229 0 348 -115t119 -328v-53q0 -203 -120 -310.5t-308 -107.5h-316v-295q0 -16 -20 -16h-39q-22 0 -22 18zM276 383h304q162 0 260 82t98 266v43q0 377 -395 377h-267v-768z" />
<glyph unicode="&#xdf;" horiz-adv-x="1128" d="M166 18v1115q0 178 100.5 282.5t290.5 104.5q166 0 258 -96.5t92 -252.5v-24q0 -115 -55 -190.5t-127 -98.5q297 -55 297 -383v-108q0 -164 -86 -273.5t-270 -109.5q-180 0 -299 125q-23 23 -2 34l24 25q16 16 33 -2q92 -111 244 -111q135 0 207.5 83t72.5 239v80 q0 170 -86 262t-262 92h-96q-18 0 -19 23v34q0 20 17 21h73q256 0 256 280q0 129 -67.5 204t-204.5 75q-162 0 -237.5 -85t-75.5 -259v-1088q0 -16 -21 -16h-35q-22 0 -22 18z" />
<glyph unicode="&#xe0;" horiz-adv-x="983" d="M94 307v6q0 188 157 268.5t517 61.5v88q0 172 -67.5 251t-202.5 79q-205 0 -273 -195q-8 -25 -37 -14l-26 10q-23 8 -10 35q94 236 342 236q186 0 269 -105.5t83 -304.5v-707q0 -16 -21 -16h-34q-20 0 -21 16v109q-166 -141 -352 -141q-133 0 -228.5 85.5t-95.5 237.5z M172 301q0 -106 73.5 -176t186.5 -70q180 0 336 152v364q-315 14 -455.5 -45t-140.5 -209v-16zM222 1579q3 8 14 8h55q16 0 33 -20l174 -271q6 -8 2 -15t-17 -7h-30q-14 0 -25 12l-205 281q-4 4 -1 12z" />
<glyph unicode="&#xe1;" horiz-adv-x="983" d="M94 307v6q0 188 157 268.5t517 61.5v88q0 172 -67.5 251t-202.5 79q-205 0 -273 -195q-8 -25 -37 -14l-26 10q-23 8 -10 35q94 236 342 236q186 0 269 -105.5t83 -304.5v-707q0 -16 -21 -16h-34q-20 0 -21 16v109q-166 -141 -352 -141q-133 0 -228.5 85.5t-95.5 237.5z M172 301q0 -106 73.5 -176t186.5 -70q180 0 336 152v364q-315 14 -455.5 -45t-140.5 -209v-16zM467 1281q-4 7 2 15l174 271q16 20 33 20h55q10 0 13.5 -8t-1.5 -12l-204 -281q-10 -12 -25 -12h-31q-12 0 -16 7z" />
<glyph unicode="&#xe2;" horiz-adv-x="983" d="M94 307v6q0 188 157 268.5t517 61.5v88q0 172 -67.5 251t-202.5 79q-205 0 -273 -195q-8 -25 -37 -14l-26 10q-23 8 -10 35q94 236 342 236q186 0 269 -105.5t83 -304.5v-707q0 -16 -21 -16h-34q-20 0 -21 16v109q-166 -141 -352 -141q-133 0 -228.5 85.5t-95.5 237.5z M172 301q0 -106 73.5 -176t186.5 -70q180 0 336 152v364q-315 14 -455.5 -45t-140.5 -209v-16zM276 1290l156 232q10 16 31 16h43q23 0 37 -20l149 -228q14 -23 -10 -22h-41q-18 0 -25 12l-129 205l-135 -205q-6 -12 -24 -12h-41q-25 -1 -11 22z" />
<glyph unicode="&#xe3;" horiz-adv-x="983" d="M94 307v6q0 188 157 268.5t517 61.5v88q0 172 -67.5 251t-202.5 79q-205 0 -273 -195q-8 -25 -37 -14l-26 10q-23 8 -10 35q94 236 342 236q186 0 269 -105.5t83 -304.5v-707q0 -16 -21 -16h-34q-20 0 -21 16v109q-166 -141 -352 -141q-133 0 -228.5 85.5t-95.5 237.5z M172 301q0 -106 73.5 -176t186.5 -70q180 0 336 152v364q-315 14 -455.5 -45t-140.5 -209v-16zM213 1378q14 35 59 68t105 33q55 0 132 -52.5t109 -52.5q66 0 103 74q8 14 27 2l26 -18q10 -6 0 -27q-14 -35 -56 -67.5t-102 -32.5q-55 0 -128.5 52t-106.5 52q-78 0 -115 -74 q-8 -14 -26 -2l-23 17q-14 10 -4 28z" />
<glyph unicode="&#xe4;" horiz-adv-x="983" d="M94 307v6q0 188 157 268.5t517 61.5v88q0 172 -67.5 251t-202.5 79q-205 0 -273 -195q-8 -25 -37 -14l-26 10q-23 8 -10 35q94 236 342 236q186 0 269 -105.5t83 -304.5v-707q0 -16 -21 -16h-34q-20 0 -21 16v109q-166 -141 -352 -141q-133 0 -228.5 85.5t-95.5 237.5z M172 301q0 -106 73.5 -176t186.5 -70q180 0 336 152v364q-315 14 -455.5 -45t-140.5 -209v-16zM266 1329v156q0 25 23 24h43q25 0 24 -26v-152q0 -27 -24 -26h-43q-23 -1 -23 24zM584 1329v156q0 25 22 24h43q25 0 25 -26v-152q0 -27 -25 -26h-43q-22 -1 -22 24z" />
<glyph unicode="&#xe5;" horiz-adv-x="983" d="M94 307v6q0 188 157 268.5t517 61.5v88q0 172 -67.5 251t-202.5 79q-205 0 -273 -195q-8 -25 -37 -14l-26 10q-23 8 -10 35q94 236 342 236q186 0 269 -105.5t83 -304.5v-707q0 -16 -21 -16h-34q-20 0 -21 16v109q-166 -141 -352 -141q-133 0 -228.5 85.5t-95.5 237.5z M172 301q0 -106 73.5 -176t186.5 -70q180 0 336 152v364q-315 14 -455.5 -45t-140.5 -209v-16zM352 1427.5q0 61.5 44 105.5t105.5 44t105.5 -44t44 -105.5t-44 -105.5t-105.5 -44t-105.5 44t-44 105.5zM412 1427.5q0 -36.5 26.5 -63.5t63.5 -27t63.5 27t26.5 63.5 t-26.5 63.5t-63.5 27t-63.5 -27t-26.5 -63.5z" />
<glyph unicode="&#xe6;" horiz-adv-x="1660" d="M94 307v6q0 188 157 268.5t517 61.5v88q0 172 -67.5 251t-202.5 79q-213 0 -281 -195q-8 -25 -37 -14l-26 10q-23 8 -11 35q94 236 351 236q240 0 319 -209q106 209 350 209q184 0 294 -110t110 -308v-142q0 -47 -49 -47h-672v-114q0 -166 85 -261.5t247 -95.5 q129 0 199.5 46t107.5 130q10 23 33 11l24 -13q18 -10 8 -30q-86 -215 -372 -215q-256 0 -357 186q-94 -88 -186 -137t-217 -49q-133 0 -228.5 85.5t-95.5 237.5zM172 301q0 -106 73.5 -176t186.5 -70q78 0 149.5 31t113.5 64.5t96 87.5q-23 68 -23 161v172 q-315 14 -455.5 -45t-140.5 -209v-16zM846 602h643v100q0 178 -87 268.5t-239 90.5q-133 0 -225 -85t-92 -249v-125z" />
<glyph unicode="&#xe7;" horiz-adv-x="933" d="M115 401v299q0 203 102 318t295 115q137 0 231.5 -64.5t122.5 -171.5q8 -29 -10 -37l-31 -10q-27 -8 -30 14q-18 86 -93 141.5t-190 55.5q-319 0 -319 -365v-288q0 -352 319 -353q111 0 184.5 49.5t98.5 133.5q8 25 30 14l33 -16q14 -6 6 -33q-35 -96 -120 -155.5 t-214 -63.5v-113q78 -4 122 -42t44 -97v-27q0 -57 -46 -100t-132 -43q-94 0 -149 59q-12 12 -2 23l24 22q10 6 17 0q39 -49 108 -49q55 0 86 25.5t31 70.5v13q0 100 -162 90v170q-170 10 -263 119.5t-93 295.5z" />
<glyph unicode="&#xe8;" horiz-adv-x="1007" d="M115 399v336q0 178 112.5 288t282.5 110q184 0 293.5 -110t109.5 -308v-142q0 -47 -49 -47h-671v-114q0 -166 86 -261.5t245 -95.5q129 0 200 46t107 130q10 23 33 11l25 -13q16 -8 8 -30q-84 -215 -373 -215q-195 0 -302 112.5t-107 302.5zM193 602h643v100 q0 178 -87 268.5t-239 90.5q-133 0 -225 -85t-92 -249v-125zM241 1581q3 8 13 8h55q16 0 33 -20l174 -271q6 -8 2 -15t-16 -7h-31q-16 0 -25 12l-204 281q-4 4 -1 12z" />
<glyph unicode="&#xe9;" horiz-adv-x="1007" d="M115 399v336q0 178 112.5 288t282.5 110q184 0 293.5 -110t109.5 -308v-142q0 -47 -49 -47h-671v-114q0 -166 86 -261.5t245 -95.5q129 0 200 46t107 130q10 23 33 11l25 -13q16 -8 8 -30q-84 -215 -373 -215q-195 0 -302 112.5t-107 302.5zM193 602h643v100 q0 178 -87 268.5t-239 90.5q-133 0 -225 -85t-92 -249v-125zM489.5 1281q-4.5 7 2.5 15l174 271q16 20 32 20h56q10 0 13 -8t-1 -12l-205 -281q-8 -12 -24 -12h-31q-12 0 -16.5 7z" />
<glyph unicode="&#xea;" horiz-adv-x="1007" d="M115 399v336q0 178 112.5 288t282.5 110q184 0 293.5 -110t109.5 -308v-142q0 -47 -49 -47h-671v-114q0 -166 86 -261.5t245 -95.5q129 0 200 46t107 130q10 23 33 11l25 -13q16 -8 8 -30q-84 -215 -373 -215q-195 0 -302 112.5t-107 302.5zM193 602h643v100 q0 178 -87 268.5t-239 90.5q-133 0 -225 -85t-92 -249v-125zM324 1294l155 232q10 16 31 16h43q23 0 37 -20l149 -228q14 -23 -10 -22h-41q-18 0 -24 12l-129 205l-136 -205q-6 -12 -24 -12h-41q-24 -1 -10 22z" />
<glyph unicode="&#xeb;" horiz-adv-x="1007" d="M115 399v336q0 178 112.5 288t282.5 110q184 0 293.5 -110t109.5 -308v-142q0 -47 -49 -47h-671v-114q0 -166 86 -261.5t245 -95.5q129 0 200 46t107 130q10 23 33 11l25 -13q16 -8 8 -30q-84 -215 -373 -215q-195 0 -302 112.5t-107 302.5zM193 602h643v100 q0 178 -87 268.5t-239 90.5q-133 0 -225 -85t-92 -249v-125zM315 1346v155q0 25 23 25h43q25 0 25 -27v-151q0 -27 -25 -27h-43q-23 0 -23 25zM633 1346v155q0 25 22 25h43q25 0 25 -27v-151q0 -27 -25 -27h-43q-22 0 -22 25z" />
<glyph unicode="&#xec;" horiz-adv-x="409" d="M-46 1581q3 8 13 8h56q16 0 32 -20l174 -271q6 -8 2 -15t-16 -7h-31q-16 0 -24 12l-205 281q-4 4 -1 12zM166 18v1082q0 18 22 18h33q23 0 23 -18v-1082q0 -18 -23 -18h-33q-22 0 -22 18z" />
<glyph unicode="&#xed;" horiz-adv-x="409" d="M166 18v1082q0 18 22 18h33q23 0 23 -18v-1082q0 -18 -23 -18h-33q-22 0 -22 18zM174 1283q-4 7 2 15l174 271q16 20 33 20h55q10 0 13.5 -8t-0.5 -12l-205 -281q-8 -12 -25 -12h-31q-12 0 -16 7z" />
<glyph unicode="&#xee;" horiz-adv-x="409" d="M-4 1290l156 232q10 16 30 16h43q23 0 37 -20l150 -228q14 -23 -11 -22h-41q-18 0 -24 12l-129 205l-135 -205q-6 -12 -25 -12h-41q-24 -1 -10 22zM166 18v1082q0 18 22 18h33q23 0 23 -18v-1082q0 -18 -23 -18h-33q-22 0 -22 18z" />
<glyph unicode="&#xef;" horiz-adv-x="372" d="M-16 1329v156q0 25 22 24h43q25 0 25 -26v-152q0 -27 -25 -26h-43q-22 -1 -22 24zM166 18v1082q0 18 22 18h33q23 0 23 -18v-1082q0 -18 -23 -18h-33q-22 0 -22 18zM301 1329v156q0 25 23 24h43q25 0 24 -26v-152q0 -27 -24 -26h-43q-23 -1 -23 24z" />
<glyph unicode="&#xf0;" horiz-adv-x="1114" d="M115 401v211q0 201 109.5 316.5t305.5 115.5q203 0 316 -151q-20 98 -84 203.5t-148 185.5l-96 -98q-14 -18 -33 0l-22 22q-14 14 -2 31l98 100q-63 66 -117 107q-18 12 -4 29l25 30q14 18 33 4q63 -53 120 -114l105 106q16 16 33 0l22 -22q14 -14 0 -31l-106 -109 q152 -162 214 -322.5t62 -432.5v-166q0 -201 -109.5 -316.5t-306.5 -115.5q-195 0 -305 110t-110 307zM193 408q0 -352 337.5 -352.5t337.5 364.5v188q0 170 -91 267.5t-247 97.5q-338 0 -337 -365v-200z" />
<glyph unicode="&#xf1;" horiz-adv-x="1064" d="M166 18v1082q0 18 22 18h33q23 0 23 -18v-168q141 201 360 201q313 0 314 -365v-750q0 -18 -23 -18h-33q-23 0 -22 18v719q0 160 -53.5 242t-188.5 82q-104 0 -201.5 -66.5t-152.5 -179.5v-797q0 -18 -23 -18h-33q-22 0 -22 18zM266 1378q14 35 59.5 68t104.5 33 q55 0 132 -52.5t110 -52.5q66 0 102 74q8 14 27 2l26 -18q10 -6 0 -27q-14 -35 -56 -67.5t-101 -32.5q-55 0 -129 52t-107 52q-78 0 -115 -74q-8 -14 -26 -2l-23 17q-14 10 -4 28z" />
<glyph unicode="&#xf2;" horiz-adv-x="1054" d="M115 401v299q0 201 109.5 317t306 116t306 -116t109.5 -317v-284q0 -201 -109.5 -316.5t-306.5 -115.5q-195 0 -305 110t-110 307zM193 408q0 -178 89 -265.5t248.5 -87.5t248.5 91.5t89 273.5v276q0 182 -89 273.5t-248.5 91.5t-248.5 -91t-89 -274v-288zM302 1577 q3 8 13 8h56q16 0 32 -20l175 -271q6 -8 1.5 -15t-16.5 -7h-31q-16 0 -24 12l-205 281q-4 4 -1 12z" />
<glyph unicode="&#xf3;" horiz-adv-x="1054" d="M115 401v299q0 201 109.5 317t306 116t306 -116t109.5 -317v-284q0 -201 -109.5 -316.5t-306.5 -115.5q-195 0 -305 110t-110 307zM193 408q0 -178 89 -265.5t248.5 -87.5t248.5 91.5t89 273.5v276q0 182 -89 273.5t-248.5 91.5t-248.5 -91t-89 -274v-288zM489.5 1277 q-4.5 7 2.5 15l174 271q16 20 32 20h56q10 0 13 -8t-1 -12l-205 -281q-8 -12 -24 -12h-31q-12 0 -16.5 7z" />
<glyph unicode="&#xf4;" horiz-adv-x="1054" d="M115 401v299q0 201 109.5 317t306 116t306 -116t109.5 -317v-284q0 -201 -109.5 -316.5t-306.5 -115.5q-195 0 -305 110t-110 307zM193 408q0 -178 89 -265.5t248.5 -87.5t248.5 91.5t89 273.5v276q0 182 -89 273.5t-248.5 91.5t-248.5 -91t-89 -274v-288zM326 1290 l155 232q10 16 31 16h43q23 0 37 -20l149 -228q14 -23 -10 -22h-41q-18 0 -24 12l-129 205l-136 -205q-6 -12 -24 -12h-41q-24 -1 -10 22z" />
<glyph unicode="&#xf5;" horiz-adv-x="1054" d="M115 401v299q0 201 109.5 317t306 116t306 -116t109.5 -317v-284q0 -201 -109.5 -316.5t-306.5 -115.5q-195 0 -305 110t-110 307zM193 408q0 -178 89 -265.5t248.5 -87.5t248.5 91.5t89 273.5v276q0 182 -89 273.5t-248.5 91.5t-248.5 -91t-89 -274v-288zM248 1378 q14 35 59 68t105 33q55 0 132 -52.5t109 -52.5q66 0 103 74q8 14 26 2l27 -18q10 -6 0 -27q-14 -35 -56 -67.5t-102 -32.5q-55 0 -128.5 52t-106.5 52q-78 0 -115 -74q-8 -14 -27 -2l-22 17q-14 10 -4 28z" />
<glyph unicode="&#xf6;" horiz-adv-x="1054" d="M115 401v299q0 201 109.5 317t306 116t306 -116t109.5 -317v-284q0 -201 -109.5 -316.5t-306.5 -115.5q-195 0 -305 110t-110 307zM193 408q0 -178 89 -265.5t248.5 -87.5t248.5 91.5t89 273.5v276q0 182 -89 273.5t-248.5 91.5t-248.5 -91t-89 -274v-288zM326 1323v156 q0 25 22 24h43q25 0 25 -26v-152q0 -27 -25 -27h-43q-22 0 -22 25zM643 1323v156q0 25 23 24h43q25 0 24 -26v-152q0 -27 -24 -27h-43q-23 0 -23 25z" />
<glyph unicode="&#xf7;" horiz-adv-x="1226" d="M106 612v41q0 18 17 19h999q16 0 17 -19v-41q0 -18 -17 -18h-999q-17 0 -17 18zM580 170v203q0 25 22 24h37q25 0 25 -26v-199q0 -27 -25 -27h-37q-22 0 -22 25zM580 891v203q0 25 22 24h37q25 0 25 -26v-199q0 -27 -25 -27h-37q-22 0 -22 25z" />
<glyph unicode="&#xf8;" horiz-adv-x="1060" d="M115 401v299q0 201 109.5 317t305.5 116q145 0 254 -72l62 110q6 14 24 15h37q27 0 17 -23l-84 -149q106 -117 106 -314v-284q0 -201 -109.5 -316.5t-306.5 -115.5q-141 0 -237 55l-62 -111q-10 -16 -26 -16h-37q-25 0 -14 22l82 148q-121 110 -121 319zM193 408 q0 -170 81 -258l474 845q-84 66 -218 66q-160 0 -248.5 -91t-88.5 -274v-288zM330 104q80 -49 200 -49q160 0 249 91.5t89 273.5v276q0 154 -67 248z" />
<glyph unicode="&#xf9;" horiz-adv-x="1069" d="M147 307v795q0 16 21 16h35q23 0 22 -16v-805q0 -113 61.5 -177.5t172.5 -64.5q186 0 366 217v830q0 16 21 16h37q20 0 20 -16v-1086q0 -16 -20 -16h-35q-23 0 -23 16v170q-158 -203 -368 -202q-147 0 -228.5 82.5t-81.5 240.5zM286 1579q3 8 13 8h55q16 0 33 -20 l174 -271q6 -8 2 -15t-16 -7h-31q-16 0 -24 12l-205 281q-4 4 -1 12z" />
<glyph unicode="&#xfa;" horiz-adv-x="1069" d="M147 307v795q0 16 21 16h35q23 0 22 -16v-805q0 -113 61.5 -177.5t172.5 -64.5q186 0 366 217v830q0 16 21 16h37q20 0 20 -16v-1086q0 -16 -20 -16h-35q-23 0 -23 16v170q-158 -203 -368 -202q-147 0 -228.5 82.5t-81.5 240.5zM473 1279q-4 7 2 15l174 271q16 20 33 20 h55q10 0 13.5 -8t-0.5 -12l-205 -281q-8 -12 -25 -12h-31q-12 0 -16 7z" />
<glyph unicode="&#xfb;" horiz-adv-x="1069" d="M147 307v795q0 16 21 16h35q23 0 22 -16v-805q0 -113 61.5 -177.5t172.5 -64.5q186 0 366 217v830q0 16 21 16h37q20 0 20 -16v-1086q0 -16 -20 -16h-35q-23 0 -23 16v170q-158 -203 -368 -202q-147 0 -228.5 82.5t-81.5 240.5zM319 1290l156 232q10 16 31 16h43 q23 0 37 -20l149 -228q14 -23 -10 -22h-41q-18 0 -25 12l-129 205l-135 -205q-6 -12 -24 -12h-41q-25 -1 -11 22z" />
<glyph unicode="&#xfc;" horiz-adv-x="1069" d="M147 307v795q0 16 21 16h35q23 0 22 -16v-805q0 -113 61.5 -177.5t172.5 -64.5q186 0 366 217v830q0 16 21 16h37q20 0 20 -16v-1086q0 -16 -20 -16h-35q-23 0 -23 16v170q-158 -203 -368 -202q-147 0 -228.5 82.5t-81.5 240.5zM332 1329v156q0 25 22 24h43q25 0 25 -26 v-152q0 -27 -25 -26h-43q-22 -1 -22 24zM649 1329v156q0 25 23 24h43q25 0 24 -26v-152q0 -27 -24 -26h-43q-23 -1 -23 24z" />
<glyph unicode="&#xfd;" horiz-adv-x="825" d="M-6 1096q-8 23 16 22h45q18 0 25 -18l338 -985l330 983q6 20 24 20h47q23 0 15 -22l-412 -1180q-43 -125 -114.5 -216t-147.5 -132q-23 -10 -31 0l-20 33q-12 18 4 28q176 94 264 379zM369 1279q-4 7 2 15l174 271q16 20 33 20h55q10 0 13 -8t-1 -12l-205 -281 q-10 -12 -24 -12h-31q-12 0 -16 7z" />
<glyph unicode="&#xfe;" horiz-adv-x="1073" d="M166 -408v1928q0 18 22 18h33q23 0 23 -18v-611q41 88 133 156t215 68q367 0 366 -422v-283q0 -211 -103 -327.5t-290 -116.5q-123 0 -206 52t-115 116v-560q0 -18 -23 -18h-33q-22 0 -22 18zM244 367q0 -143 91 -227.5t230 -84.5q150 0 233 95.5t83 285.5v269 q0 356 -289 356q-135 0 -241.5 -112.5t-106.5 -266.5v-315z" />
<glyph unicode="&#xff;" horiz-adv-x="825" d="M-6 1096q-8 23 16 22h45q18 0 25 -18l338 -985l330 983q6 20 24 20h47q23 0 15 -22l-412 -1180q-43 -125 -114.5 -216t-147.5 -132q-23 -10 -31 0l-20 33q-12 18 4 28q176 94 264 379zM215 1311v155q0 25 23 25h43q25 0 24 -27v-151q0 -27 -24 -27h-43q-23 0 -23 25z M532 1311v155q0 25 23 25h43q25 0 25 -27v-151q0 -27 -25 -27h-43q-23 0 -23 25z" />
<glyph unicode="&#x152;" horiz-adv-x="1902" d="M174 457v575q0 238 135 357.5t359 119.5q147 0 254.5 -59t156.5 -160v207h701q18 0 18 -20v-35q0 -23 -18 -23h-619v-612h565q16 0 17 -23v-34q0 -20 -17 -21h-565v-651h619q16 0 16 -21v-37q0 -20 -16 -20h-701v186q-61 -100 -153 -153t-258 -53q-223 0 -358.5 119.5 t-135.5 357.5zM256 477q0 -416 412 -420q412 0 411 418v537q0 219 -112.5 320.5t-298.5 99.5q-412 0 -412 -420v-535z" />
<glyph unicode="&#x153;" horiz-adv-x="1761" d="M115 401v299q0 201 109.5 317t305.5 116q274 0 377 -228q102 227 357 228q184 0 293.5 -110t109.5 -308v-142q0 -47 -49 -47h-672v-114q0 -162 85 -259.5t247 -97.5q129 0 199.5 46t107.5 130q10 23 33 11l24 -13q18 -10 9 -30q-86 -215 -373 -215q-272 0 -373 233 q-98 -233 -375 -233q-195 0 -305 110t-110 307zM193 408q0 -352 337 -353q162 0 250 93.5t88 271.5v276q0 365 -337.5 365t-337.5 -365v-288zM946 602h643v100q0 178 -87 268.5t-238 90.5q-131 0 -224.5 -87t-93.5 -247v-125z" />
<glyph unicode="&#x178;" horiz-adv-x="1009" d="M10 1477q-10 20 15 20h51q18 0 26 -14l402 -760l405 756q10 18 29 18h49q25 0 14 -22l-456 -840v-619q0 -16 -21 -16h-45q-18 0 -18 16v617zM317 1722v156q0 25 23 25h43q25 0 25 -27v-152q0 -27 -25 -26h-43q-23 -1 -23 24zM635 1722v156q0 25 22 25h43q25 0 25 -27 v-152q0 -27 -25 -26h-43q-22 -1 -22 24z" />
<glyph unicode="&#x2c6;" horiz-adv-x="835" d="M209 1290l156 232q10 16 30 16h43q23 0 37 -20l150 -228q14 -23 -11 -22h-41q-18 0 -24 12l-129 205l-135 -205q-6 -12 -25 -12h-41q-24 -1 -10 22z" />
<glyph unicode="&#x2dc;" horiz-adv-x="993" d="M213 1378q14 35 59 68t105 33q55 0 132 -52.5t109 -52.5q66 0 103 74q8 14 27 2l26 -18q10 -6 0 -27q-14 -35 -56 -67.5t-102 -32.5q-55 0 -128.5 52t-106.5 52q-78 0 -115 -74q-8 -14 -26 -2l-23 17q-14 10 -4 28z" />
<glyph unicode="&#x2000;" horiz-adv-x="987" />
<glyph unicode="&#x2001;" horiz-adv-x="1976" />
<glyph unicode="&#x2002;" horiz-adv-x="987" />
<glyph unicode="&#x2003;" horiz-adv-x="1976" />
<glyph unicode="&#x2004;" horiz-adv-x="657" />
<glyph unicode="&#x2005;" horiz-adv-x="493" />
<glyph unicode="&#x2006;" horiz-adv-x="327" />
<glyph unicode="&#x2007;" horiz-adv-x="327" />
<glyph unicode="&#x2008;" horiz-adv-x="245" />
<glyph unicode="&#x2009;" horiz-adv-x="395" />
<glyph unicode="&#x200a;" horiz-adv-x="108" />
<glyph unicode="&#x2010;" horiz-adv-x="851" d="M125 592v33q0 20 16 20h570q16 0 16 -20v-33q0 -20 -16 -21h-570q-16 1 -16 21z" />
<glyph unicode="&#x2011;" horiz-adv-x="851" d="M125 592v33q0 20 16 20h570q16 0 16 -20v-33q0 -20 -16 -21h-570q-16 1 -16 21z" />
<glyph unicode="&#x2012;" horiz-adv-x="851" d="M125 592v33q0 20 16 20h570q16 0 16 -20v-33q0 -20 -16 -21h-570q-16 1 -16 21z" />
<glyph unicode="&#x2013;" horiz-adv-x="1112" d="M125 565v35q0 20 18 21h826q18 0 18 -21v-35q0 -20 -18 -20h-826q-18 0 -18 20z" />
<glyph unicode="&#x2014;" horiz-adv-x="2136" d="M125 565v35q0 20 18 21h1850q18 0 18 -21v-35q0 -20 -18 -20h-1850q-18 0 -18 20z" />
<glyph unicode="&#x2018;" horiz-adv-x="393" d="M152 1143q0 150 20.5 233.5t91.5 169.5q10 12 27 2l16 -12q16 -12 4 -27q-55 -70 -68.5 -132t-13.5 -234q0 -14 -14 -15h-51q-12 1 -12 15z" />
<glyph unicode="&#x2019;" horiz-adv-x="395" d="M82 1128q55 70 68.5 132.5t13.5 234.5q0 14 14 14h49q14 0 15 -14q0 -150 -20.5 -233.5t-92.5 -169.5q-10 -12 -27 -2l-16 12q-16 12 -4 26z" />
<glyph unicode="&#x201a;" horiz-adv-x="337" d="M68 -129q55 70 68.5 132.5t13.5 234.5q0 14 14 14h49q14 0 14 -14q0 -150 -20.5 -234t-91.5 -170q-10 -12 -27 -2l-16 12q-16 13 -4 27z" />
<glyph unicode="&#x201c;" horiz-adv-x="657" d="M152 1141q0 150 20.5 233.5t91.5 169.5q10 12 27 2l16 -12q16 -12 4 -27q-55 -70 -68.5 -132t-13.5 -234q0 -14 -14 -15h-49q-14 1 -14 15zM414 1141q0 150 20.5 233.5t91.5 169.5q10 12 27 2l16 -12q16 -12 4 -27q-55 -70 -68 -132t-13 -234q0 -14 -15 -15h-49 q-14 1 -14 15z" />
<glyph unicode="&#x201d;" horiz-adv-x="651" d="M78 1128q55 70 68.5 132.5t13.5 234.5q0 14 14 14h49q14 0 15 -14q0 -150 -20.5 -233.5t-92.5 -169.5q-10 -12 -27 -2l-16 12q-16 12 -4 26zM340 1128q55 70 68.5 132.5t13.5 234.5q0 14 14 14h49q14 0 15 -14q0 -150 -20.5 -233.5t-92.5 -169.5q-10 -12 -27 -2l-16 12 q-16 12 -4 26z" />
<glyph unicode="&#x201e;" horiz-adv-x="602" d="M68 -129q55 70 68.5 132.5t13.5 234.5q0 14 14 14h49q14 0 14 -14q0 -150 -20.5 -234t-91.5 -170q-10 -12 -27 -2l-16 12q-16 13 -4 27zM334 -129q55 70 68.5 132.5t13.5 234.5q0 14 14 14h49q14 0 15 -14q0 -150 -20.5 -234t-92.5 -170q-10 -12 -27 -2l-16 12 q-16 13 -4 27z" />
<glyph unicode="&#x2022;" horiz-adv-x="671" d="M147 649q0 78 55.5 133.5t133.5 55.5t133 -55.5t55 -133.5t-55 -133t-133 -55t-133.5 55t-55.5 133z" />
<glyph unicode="&#x2026;" horiz-adv-x="1093" d="M123 25v202q0 25 22 25h41q27 0 27 -27v-198q0 -27 -27 -27h-41q-22 0 -22 25zM397 25v202q0 25 23 25h41q25 0 24 -27v-198q0 -27 -24 -27h-41q-23 0 -23 25zM989 25v202q0 25 23 25h43q25 0 24 -27v-198q0 -27 -24 -27h-43q-23 0 -23 25z" />
<glyph unicode="&#x202f;" horiz-adv-x="395" />
<glyph unicode="&#x2039;" horiz-adv-x="628" d="M135 594l309 444q12 18 31 6l27 -20q16 -12 4 -29l-283 -403l279 -393q14 -18 -4 -33l-21 -19q-16 -14 -31 5z" />
<glyph unicode="&#x203a;" horiz-adv-x="628" d="M137 995q-12 16 4 29l27 20q18 12 31 -6l309 -444l-311 -442q-12 -16 -31 -2l-21 16q-18 14 -4 33l279 393z" />
<glyph unicode="&#x205f;" horiz-adv-x="493" />
<glyph unicode="&#x20ac;" horiz-adv-x="1220" d="M86 623v28q0 20 18 21h152v182h-154q-16 0 -16 20v29q0 23 18 23h152v127q0 213 120 334.5t326 121.5q334 0 441 -290q10 -25 -10 -37l-35 -15q-25 -8 -31 11q-84 254 -365 254q-365 0 -364 -396v-110h453q16 0 16 -23v-29q0 -20 -16 -20h-453v-182h450q18 0 19 -21v-28 q0 -23 -16 -23h-453v-111q0 -217 85 -323.5t279 -106.5q287 0 365 252q6 23 31 15l39 -15q23 -8 10 -35q-111 -297 -445 -296q-211 0 -328.5 120.5t-117.5 364.5v135h-154q-16 0 -16 23z" />
<glyph unicode="&#x2122;" horiz-adv-x="1017" d="M31 1456v25q0 16 12 16h367q12 0 12 -16v-25q0 -16 -12 -16h-156v-482q0 -14 -14 -14h-33q-14 0 -14 14v482h-150q-12 0 -12 16zM508 958v521q0 18 16 18h68q16 0 20 -16l125 -424l129 432q2 8 13 8h75q12 0 13 -10v-529q0 -14 -15 -14h-28q-14 0 -15 14v474l-143 -474 q-6 -14 -16 -14h-25q-10 0 -16 14l-144 480v-480q0 -14 -14 -14h-29q-14 0 -14 14z" />
<glyph unicode="&#xe000;" horiz-adv-x="1120" d="M0 1120h1120v-1120h-1120v1120z" />
<glyph unicode="&#xfb01;" horiz-adv-x="995" d="M86 1036v21q0 23 18 22h103v107q0 162 81 256t230 94q106 0 184 -43t113 -102q12 -23 -2 -35l-27 -21q-18 -12 -26 2q-80 129 -242 129q-115 0 -174 -64.5t-59 -217.5v-105h526q18 0 18 -22v-1028q0 -29 -26 -29h-27q-25 0 -24 27v987h-467v-998q0 -16 -23 -16h-33 q-23 0 -22 16v998h-103q-18 -1 -18 22z" />
<glyph unicode="&#xfb02;" horiz-adv-x="1032" d="M86 1034v27q0 20 16 20h105v90q0 170 90 260.5t240 90.5q180 0 307 -86q25 -16 24 -52v-1366q0 -18 -26 -18h-27q-25 0 -24 18v1362q-41 27 -114 48.5t-140 21.5q-127 0 -189.5 -76t-62.5 -198v-95h276q18 0 19 -22v-23q0 -23 -19 -22h-276v-996q0 -18 -23 -18h-33 q-23 0 -22 18v996h-105q-16 0 -16 20z" />
<glyph unicode="&#xfb03;" horiz-adv-x="1634" d="M1391 27v1063q0 29 24 28h29q25 0 25 -24v-1065q0 -29 -27 -29h-29q-22 0 -22 27zM1391 1323v188q0 25 22 25h29q27 0 27 -25v-186q0 -27 -27 -27h-29q-22 0 -22 25zM698 1034v27q0 20 16 20h105v168q0 139 70.5 214t175.5 75q129 0 206 -90q10 -13 11 -23q0 -8 -6 -14 l-21 -20q-20 -20 -35 4q-55 72 -159 71q-164 0 -164 -227v-158h313q16 0 16 -20v-27q0 -20 -16 -20h-313v-998q0 -16 -19 -16h-37q-23 0 -22 16v998h-105q-16 0 -16 20zM86 1034v27q0 20 16 20h105v168q0 139 70.5 214t175.5 75q129 0 206 -90q10 -13 11 -23q0 -8 -6 -14 l-21 -20q-20 -20 -35 4q-55 72 -159 71q-164 0 -164 -227v-158h313q16 0 16 -20v-27q0 -20 -16 -20h-313v-998q0 -16 -19 -16h-37q-23 0 -22 16v998h-105q-16 0 -16 20z" />
<glyph unicode="&#xfb04;" horiz-adv-x="1632" d="M1391 18v1500q0 18 22 18h33q23 0 23 -18v-1500q0 -18 -23 -18h-33q-22 0 -22 18zM698 1034v27q0 20 16 20h105v168q0 139 70.5 214t175.5 75q129 0 206 -90q10 -13 11 -23q0 -8 -6 -14l-21 -20q-20 -20 -35 4q-55 72 -159 71q-164 0 -164 -227v-158h313q16 0 16 -20v-27 q0 -20 -16 -20h-313v-998q0 -16 -19 -16h-37q-23 0 -22 16v998h-105q-16 0 -16 20zM86 1034v27q0 20 16 20h105v168q0 139 70.5 214t175.5 75q129 0 206 -90q10 -13 11 -23q0 -8 -6 -14l-21 -20q-20 -20 -35 4q-55 72 -159 71q-164 0 -164 -227v-158h313q16 0 16 -20v-27 q0 -20 -16 -20h-313v-998q0 -16 -19 -16h-37q-23 0 -22 16v998h-105q-16 0 -16 20z" />
</font>
</defs>
</svg>
